<svg xmlns="http://www.w3.org/2000/svg" viewBox="0 0 60 60"><defs><style>.a,.d{fill:none;}.a{stroke:#efeff4;stroke-width:1.5px;}.b{fill:#2196f3;}.c{stroke:none;}</style></defs><g transform="translate(-967 -5238)"><g class="a" transform="translate(967 5238)"><rect class="c" width="60" height="60" rx="5"/><rect class="d" x="0.75" y="0.75" width="58.5" height="58.5" rx="4.25"/></g><g transform="translate(981.587 5252.893)"><path class="b" d="M27.722,16.13a1.009,1.009,0,0,0,1.008-1.008V13.544a2.015,2.015,0,0,0-.5-3.967,2.064,2.064,0,0,0-.4.04,2.015,2.015,0,0,0-.1,3.926v1.578h-5.04a7.522,7.522,0,0,0-2.213-5.348c-.1-.1-.2-.2-.307-.287V7.562h7.056a1.011,1.011,0,0,0,1.008-1.008V5.48a2.016,2.016,0,1,0-1.008,0V6.554H20.162a1.011,1.011,0,0,0-1.008,1.008V8.726a7.458,7.458,0,0,0-3.528-1.144V5.546h2.016A1.009,1.009,0,0,0,18.65,4.538v-.57a2.016,2.016,0,1,0-1.008,0v.57H15.626a1.009,1.009,0,0,0-1.008,1.008V7.582A7.315,7.315,0,0,0,12.6,7.99V3.026a1.009,1.009,0,0,0-1.008-1.008H6.488A2.015,2.015,0,1,0,3.414,4.195a1.988,1.988,0,0,0,1.124.343A2.012,2.012,0,0,0,6.488,3.026h5.106V8.434A7.563,7.563,0,0,0,7.99,12.6H2.522V10.016a2.016,2.016,0,1,0-1.008,0V12.6A1.009,1.009,0,0,0,2.522,13.61H7.713a7.54,7.54,0,0,0-.151,1.512H5.546A1.009,1.009,0,0,0,4.538,16.13v7.056h-.57a2.016,2.016,0,1,0,0,1.008h.57a1.009,1.009,0,0,0,1.008-1.008V16.13H7.627a7.555,7.555,0,0,0,3.967,5.68v5.912H8.5a2.016,2.016,0,1,0,0,1.008h3.09A1.009,1.009,0,0,0,12.6,27.722V22.253a7.311,7.311,0,0,0,2.016.408V24.7a1.009,1.009,0,0,0,1.008,1.008h3.528v.57a2.014,2.014,0,1,0,2.061.67,1.987,1.987,0,0,0-1.053-.67v-.57A1.009,1.009,0,0,0,19.154,24.7H15.626V22.662a7.5,7.5,0,0,0,4.844-2.192,7.672,7.672,0,0,0,1.063-1.341l0,0a.489.489,0,0,0,.139.028h5.04v5.106A2.012,2.012,0,0,0,25.2,26.21a1.917,1.917,0,0,0,.161.781,2.014,2.014,0,1,0,2.359-2.732V19.154a1.009,1.009,0,0,0-1.008-1.008H22.052a7.444,7.444,0,0,0,.564-2.016h5.106Zm-.5-4.536A1.008,1.008,0,1,1,28.226,12.6,1.008,1.008,0,0,1,27.218,11.594Zm-.5-8.064a1.008,1.008,0,1,1,1.008,1.008A1.008,1.008,0,0,1,26.714,3.53ZM17.138,2.018a1.008,1.008,0,1,1,1.008,1.008A1.008,1.008,0,0,1,17.138,2.018ZM4.538,3.53A1.008,1.008,0,1,1,5.546,2.522,1.008,1.008,0,0,1,4.538,3.53ZM2.018,9.074A1.008,1.008,0,1,1,3.026,8.066,1.011,1.011,0,0,1,2.018,9.074ZM3.026,23.69a1,1,0,1,1,0-.015v.015Zm3.528,5.544a1.008,1.008,0,1,1,1.008-1.008A1.008,1.008,0,0,1,6.554,29.234Zm13.1-2.016a1.008,1.008,0,1,1-1.008,1.008A1.011,1.011,0,0,1,19.658,27.218ZM16.835,9.084a.322.322,0,0,1,.076-.066c.025-.015.055-.03.086-.045a.707.707,0,0,1,.1-.03.641.641,0,0,1,.2,0,.546.546,0,0,1,.181.076.47.47,0,0,1,.076.066.505.505,0,0,1,0,.711.47.47,0,0,1-.076.066l-.086.045a.67.67,0,0,1-.1.025.345.345,0,0,1-.1.01.31.31,0,0,1-.1-.01.67.67,0,0,1-.1-.025c-.03-.015-.06-.03-.086-.045a.322.322,0,0,1-.076-.066.493.493,0,0,1,0-.711Zm-2.208-.111a.32.32,0,0,1,.03-.091.38.38,0,0,1,.045-.091.8.8,0,0,1,.06-.076.508.508,0,0,1,.358-.146.554.554,0,0,1,.1.01.3.3,0,0,1,.1.03.282.282,0,0,1,.086.045c.03.02.055.04.081.06a.521.521,0,0,1,.146.358.5.5,0,0,1-.04.192.582.582,0,0,1-.106.166c-.025.02-.05.04-.081.06a.281.281,0,0,1-.086.045.3.3,0,0,1-.1.03.62.62,0,0,1-.1.01.53.53,0,0,1-.358-.146.582.582,0,0,1-.106-.166.5.5,0,0,1-.04-.192A.687.687,0,0,1,14.628,8.973Zm-1.93.111h0a.506.506,0,0,1,.454-.141l.1.03c.03.015.06.03.086.045a.322.322,0,0,1,.076.066.492.492,0,0,1,.151.353.688.688,0,0,1-.01.1c-.01.03-.02.066-.03.1s-.03.055-.045.086a.867.867,0,0,1-.066.076.5.5,0,0,1-.711-.711Zm-4,4.793a.441.441,0,0,1,.111-.161.521.521,0,0,1,.711,0,.5.5,0,0,1,.106.161.444.444,0,0,1,.04.2.508.508,0,0,1-.5.5.517.517,0,0,1-.5-.5A.526.526,0,0,1,8.7,13.877Zm.564,2.787a.345.345,0,0,1-.1.01.487.487,0,0,1-.353-.146.44.44,0,0,1-.111-.161.527.527,0,0,1-.04-.2.492.492,0,0,1,.151-.353.516.516,0,0,1,.711,0,.509.509,0,0,1,.146.353.444.444,0,0,1-.04.2.5.5,0,0,1-.106.161.875.875,0,0,1-.076.066l-.091.045A.6.6,0,0,1,9.265,16.664Zm.973,1.84a.508.508,0,0,1-.353.146.52.52,0,0,1-.358-.146.511.511,0,0,1,0-.716.521.521,0,0,1,.711,0,.5.5,0,0,1,0,.716Zm.111-6.214a.5.5,0,0,1-.464.313.52.52,0,0,1-.358-.146.6.6,0,0,1-.111-.166.5.5,0,0,1-.035-.192.507.507,0,0,1,.146-.358.521.521,0,0,1,.711,0,.512.512,0,0,1,.151.358A.5.5,0,0,1,10.349,12.289Zm1.24,7.822a.511.511,0,0,1-.161.111.5.5,0,0,1-.192.035.506.506,0,0,1-.2-.035.512.512,0,0,1-.161-.111.5.5,0,0,1-.151-.358.62.62,0,0,1,.01-.1c.01-.035.02-.066.03-.1s.03-.06.045-.086a.322.322,0,0,1,.066-.076.441.441,0,0,1,.161-.111.517.517,0,0,1,.388,0,.442.442,0,0,1,.161.111.32.32,0,0,1,.066.076c.015.025.03.055.045.086s.02.06.03.1a.62.62,0,0,1,.01.1A.5.5,0,0,1,11.589,20.111Zm.141-9.526c-.01.035-.02.066-.03.1s-.03.06-.045.086a.508.508,0,0,1-.066.081.524.524,0,0,1-.353.146.507.507,0,0,1-.2-.04.5.5,0,0,1-.161-.106.511.511,0,0,1-.066-.081c-.015-.025-.03-.055-.045-.086s-.02-.06-.03-.1a.62.62,0,0,1-.01-.1.688.688,0,0,1,.01-.1c.01-.03.02-.066.03-.1s.03-.055.045-.086a.876.876,0,0,1,.066-.076.61.61,0,0,1,.161-.111.517.517,0,0,1,.388,0,.612.612,0,0,1,.161.111.876.876,0,0,1,.066.076c.015.03.03.055.045.086s.02.066.03.1a.687.687,0,0,1,.01.1A.627.627,0,0,1,11.73,10.586ZM13.519,21a.512.512,0,0,1-.111.161.493.493,0,0,1-.711,0A.511.511,0,0,1,12.587,21a.5.5,0,0,1-.035-.192.523.523,0,0,1,.035-.2.512.512,0,0,1,.111-.161.521.521,0,0,1,.711,0,.511.511,0,0,1,.111.161.549.549,0,0,1,.04.2A.5.5,0,0,1,13.519,21Zm1.961.529c-.025.02-.05.04-.081.06a.281.281,0,0,1-.086.045.3.3,0,0,1-.1.03.62.62,0,0,1-.1.01.53.53,0,0,1-.358-.146.8.8,0,0,1-.06-.076.381.381,0,0,1-.045-.091.319.319,0,0,1-.03-.091.687.687,0,0,1-.01-.1.5.5,0,0,1,.04-.192.582.582,0,0,1,.106-.166.5.5,0,0,1,.454-.136.3.3,0,0,1,.1.03.282.282,0,0,1,.086.045c.03.02.055.04.081.06a.582.582,0,0,1,.106.166.5.5,0,0,1,.04.192A.521.521,0,0,1,15.48,21.528Zm2.066-.368a.47.47,0,0,1-.076.066l-.086.045a.706.706,0,0,1-.1.03.686.686,0,0,1-.1.01.62.62,0,0,1-.1-.01.7.7,0,0,1-.1-.03c-.03-.015-.06-.03-.086-.045a.322.322,0,0,1-.076-.066.492.492,0,0,1-.151-.353.548.548,0,0,1,.04-.2.441.441,0,0,1,.111-.161.321.321,0,0,1,.076-.066c.025-.015.055-.03.086-.045a.67.67,0,0,1,.1-.025.432.432,0,0,1,.2,0,.67.67,0,0,1,.1.025l.086.045a.47.47,0,0,1,.076.066.511.511,0,0,1,.111.161.54.54,0,0,1,.035.2A.487.487,0,0,1,17.546,21.16Zm.6-4.985a1.985,1.985,0,0,1-2,1.971h-.02v.5a.5.5,0,1,1-1.008,0v-.5H14.114v.5a.5.5,0,0,1-1.008,0v-.5h-.5a.5.5,0,0,1,0-1.008H16.15a.978.978,0,0,0,.988-.963v-.091a.978.978,0,0,0-.988-.963H14.114v.5a.5.5,0,0,1-1.008,0V14.114a.5.5,0,0,1,1.008,0h1.835a.681.681,0,0,0,.685-.675v-.161a.681.681,0,0,0-.685-.675H12.6a.5.5,0,1,1,0-1.008h.5v-.5a.5.5,0,0,1,1.008,0v.5h1.008v-.5a.5.5,0,1,1,1.008,0v.524a1.682,1.682,0,0,1,1.512,1.663v.161a1.648,1.648,0,0,1-.358,1.023,1.973,1.973,0,0,1,.862,1.623v.091Zm1.331,3.775a.511.511,0,0,1-.111.161.4.4,0,0,1-.076.06.75.75,0,0,1-.086.05.669.669,0,0,1-.1.025.343.343,0,0,1-.1.01.487.487,0,0,1-.353-.146.44.44,0,0,1-.111-.161.549.549,0,0,1-.04-.2.507.507,0,0,1,.6-.494.546.546,0,0,1,.181.076l.076.06a.508.508,0,0,1,.146.358A.542.542,0,0,1,19.476,19.95Zm.03-9.39a.534.534,0,0,1-.03.121.512.512,0,0,1-.111.161.876.876,0,0,1-.076.066.547.547,0,0,1-.181.076.687.687,0,0,1-.1.01.492.492,0,0,1-.353-.151.441.441,0,0,1-.111-.161.491.491,0,0,1,.111-.549A.5.5,0,0,1,19.109,10a.146.146,0,0,1,.045.01l.05.015a.755.755,0,0,1,.086.05.4.4,0,0,1,.076.06.5.5,0,0,1,.146.358A.318.318,0,0,1,19.507,10.56ZM19.864,12a.639.639,0,0,1,.03-.091.384.384,0,0,1,.045-.091.867.867,0,0,1,.066-.076.5.5,0,0,1,.076-.06.281.281,0,0,1,.086-.045.3.3,0,0,1,.1-.03.517.517,0,0,1,.454.136.792.792,0,0,1,.06.076.38.38,0,0,1,.045.091.319.319,0,0,1,.03.091.508.508,0,0,1,0,.2.32.32,0,0,1-.03.091.381.381,0,0,1-.045.091.793.793,0,0,1-.06.076l-.076.06a.381.381,0,0,1-.091.045.319.319,0,0,1-.091.03.687.687,0,0,1-.1.01.62.62,0,0,1-.1-.01.3.3,0,0,1-.1-.03.281.281,0,0,1-.086-.045.5.5,0,0,1-.076-.06.512.512,0,0,1-.151-.358A.759.759,0,0,1,19.864,12Zm.958,6.34a.582.582,0,0,1-.106.166.521.521,0,0,1-.358.146.62.62,0,0,1-.1-.01.3.3,0,0,1-.1-.03.281.281,0,0,1-.086-.045.307.307,0,0,1-.076-.06.505.505,0,0,1,0-.716.308.308,0,0,1,.076-.06.281.281,0,0,1,.086-.045.3.3,0,0,1,.1-.03.5.5,0,0,1,.454.136.582.582,0,0,1,.106.166A.475.475,0,0,1,20.822,18.337Zm.751-2.066a.547.547,0,0,1-.076.181.47.47,0,0,1-.066.076.487.487,0,0,1-.353.146.343.343,0,0,1-.1-.01.669.669,0,0,1-.1-.025l-.086-.045a.875.875,0,0,1-.076-.066.285.285,0,0,1-.06-.076.478.478,0,0,1-.05-.086.67.67,0,0,1-.025-.1.343.343,0,0,1-.01-.1.487.487,0,0,1,.146-.353.867.867,0,0,1,.076-.066l.086-.045.1-.03a.516.516,0,0,1,.454.141.322.322,0,0,1,.066.076.281.281,0,0,1,.045.086.35.35,0,0,1,.03.1.62.62,0,0,1,.01.1A.687.687,0,0,1,21.573,16.271Zm0-2.1a.3.3,0,0,1-.03.1.282.282,0,0,1-.045.086.322.322,0,0,1-.066.076.492.492,0,0,1-.353.151.688.688,0,0,1-.1-.01l-.1-.03-.086-.045a.886.886,0,0,1-.076-.066.224.224,0,0,1-.06-.076.478.478,0,0,1-.05-.086.527.527,0,0,1-.025-.1.31.31,0,0,1-.01-.1.5.5,0,0,1,.146-.358.875.875,0,0,1,.076-.066l.086-.045a.669.669,0,0,1,.1-.025.5.5,0,0,1,.454.136.47.47,0,0,1,.066.076.546.546,0,0,1,.076.181.687.687,0,0,1,.01.1A.62.62,0,0,1,21.573,14.169ZM27.218,25.2A1.008,1.008,0,1,1,26.21,26.21,1.011,1.011,0,0,1,27.218,25.2Z"/></g></g></svg>