<svg xmlns="http://www.w3.org/2000/svg" viewBox="0 0 60 60"><defs><style>.a,.d{fill:none;}.a{stroke:#efeff4;stroke-width:1.5px;}.b{fill:#2196f3;}.c{stroke:none;}</style></defs><g transform="translate(-967 -4856)"><g class="a" transform="translate(967 4856)"><rect class="c" width="60" height="60" rx="5"/><rect class="d" x="0.75" y="0.75" width="58.5" height="58.5" rx="4.25"/></g><g transform="translate(214.543 2922.422)"><path class="b" d="M776.069,1973.59l5.46-2.781v-4.43l-5.46,2.37Zm-.824-6.49,5.769-2.473-5.769-2.473-5.769,2.473Zm15.454,6.49,5.46-2.781v-4.43l-5.46,2.37Zm-.927-6.49,5.769-2.473-5.769-2.473L784,1964.626Zm-6.387-4.224,5.46-2.369v-3.812l-5.46,2.37Zm-.927-5.357,6.284-2.679-6.284-2.679-6.284,2.679Zm15.557,7.314v5.976a1.662,1.662,0,0,1-.309.927,2.41,2.41,0,0,1-.721.721l-6.388,3.194a1.753,1.753,0,0,1-1.648,0l-6.388-3.194a.1.1,0,0,1-.1-.1.1.1,0,0,0-.1.1l-6.387,3.194a1.753,1.753,0,0,1-1.648,0l-6.388-3.194a1.624,1.624,0,0,1-.721-.721,1.662,1.662,0,0,1-.309-.927v-5.976a1.74,1.74,0,0,1,.309-1.03,2.775,2.775,0,0,1,.824-.721l6.181-2.679v-5.666a1.741,1.741,0,0,1,.309-1.03,2.777,2.777,0,0,1,.824-.721l6.387-2.781a2.582,2.582,0,0,1,1.442,0l6.388,2.781a1.834,1.834,0,0,1,.824.721,1.741,1.741,0,0,1,.309,1.03v5.666l6.181,2.679a1.833,1.833,0,0,1,.824.721A1.988,1.988,0,0,1,798.013,1964.833Z" transform="translate(0 0)"/></g></g></svg>