<svg xmlns="http://www.w3.org/2000/svg" xmlns:xlink="http://www.w3.org/1999/xlink" viewBox="0 0 458.256 321.3"><defs><style>.a{fill:#e43225;}.b{fill:#f7971d;}.c{fill:url(#a);}.d{fill:#3e53a4;}.e{fill:#fff;}.f{fill:#f90;}.g{fill:#eda012;}</style><linearGradient id="a" x1="-3.887" y1="-2.342" x2="-3.866" y2="-2.342" gradientUnits="objectBoundingBox"><stop offset="0" stop-color="#c869a8"/><stop offset="0.2" stop-color="#c869a8"/><stop offset="0.5" stop-color="#6e7ebb"/><stop offset="0.8" stop-color="#00bcf1"/><stop offset="1" stop-color="#00bcf1"/></linearGradient></defs><g transform="translate(-140.744 -2357)"><g transform="translate(321.078 2357)"><g transform="translate(69.18 5.634)"><path class="a" d="M92.1,50.315V7.5h25.313v5.408H97.358V26.053H115.31v5.408H97.358V44.982h21.483V50.39H92.1Z" transform="translate(-92.1 -7.5)"/><path class="a" d="M155.187,54.222,146.473,42.8,137.76,54.222H131.6l11.868-15.248L131,23.2h6.835l8.638,11.793L155.112,23.2h6.835L150.079,38.9l11.267,15.248h-6.159Z" transform="translate(-101.781 -11.407)"/><path class="a" d="M180.933,49.241V70.348H175.6V38.8c0-8.037,6.159-16.6,15.774-16.6,9.69,0,17.051,6.159,17.051,16.225,0,9.915-7.361,16.6-15.849,16.6C188.369,55.025,182.886,53.3,180.933,49.241Zm21.858-10.816c0-6.835-4.432-11.042-12.394-10.666-3.756.15-9.69,2.929-9.164,12.844A10.571,10.571,0,0,0,191.9,49.842C198.209,49.842,202.791,46.236,202.791,38.425Z" transform="translate(-112.88 -11.158)"/><path class="a" d="M225.2,54V22.976h5.183v3.305c2.554-2.854,6.46-3.981,10.741-3.981v5.634c-.6-.075-6.835-.826-10.741,7.286V54Z" transform="translate(-125.223 -11.183)"/><path class="a" d="M248.4,38.425c0-9.014,6.385-16.225,15.248-16.225,10.967,0,15.1,7.286,15.1,16.6v2.479H254.109c.376,5.859,5.634,8.939,10.441,8.788a11.329,11.329,0,0,0,8.563-3.756l3.38,3.605a17.286,17.286,0,0,1-12.319,5.108C255.01,55.025,248.4,48.114,248.4,38.425Zm14.873-11.042c-5.033,0-8.863,4.357-9.089,9.014h19.079C273.112,31.89,269.883,27.383,263.273,27.383Z" transform="translate(-130.997 -11.158)"/><path class="a" d="M292.3,49.646l3.831-3.38a29.2,29.2,0,0,0,2.178,2.253,6.832,6.832,0,0,0,2.929,1.5c3.38.9,9.389.6,9.765-3.906.225-2.554-1.728-3.981-3.906-4.807-2.854-1.052-5.934-1.427-8.713-2.7-3.155-1.427-5.183-3.906-5.183-7.436,0-9.314,13.22-10.892,19.3-6.535a30.863,30.863,0,0,1,3.155,3l-3.906,3c-1.878-2.253-3.756-3.455-7.812-3.455-2.028,0-4.807.826-5.408,3.08-.826,3.08,2.7,4.206,4.958,4.807,3.08.826,6.385,1.2,9.089,2.929,3.681,2.329,4.582,7.286,3.155,11.117-1.577,4.206-6.084,5.859-10.216,6.009A16.18,16.18,0,0,1,292.976,50.4,7.515,7.515,0,0,0,292.3,49.646Z" transform="translate(-141.922 -11.187)"/><path class="a" d="M328.2,49.646l3.831-3.38a29.2,29.2,0,0,0,2.178,2.253,6.832,6.832,0,0,0,2.929,1.5c3.38.9,9.389.6,9.765-3.906.225-2.554-1.728-3.981-3.906-4.807-2.854-1.052-5.934-1.427-8.713-2.7-3.155-1.427-5.183-3.906-5.183-7.436,0-9.314,13.22-10.892,19.3-6.535a30.86,30.86,0,0,1,3.155,3l-3.906,3c-1.878-2.253-3.756-3.455-7.812-3.455-2.028,0-4.807.826-5.408,3.08-.826,3.08,2.7,4.206,4.958,4.807,3.08.826,6.385,1.2,9.089,2.929,3.681,2.329,4.582,7.286,3.155,11.117-1.577,4.206-6.084,5.859-10.215,6.009A16.18,16.18,0,0,1,328.876,50.4C328.876,50.246,328.2,49.646,328.2,49.646Z" transform="translate(-150.856 -11.187)"/><g transform="translate(201.155 7.812)"><path class="a" d="M361.1,21.806V18.5h-1.2v-.6h3.08v.6h-1.2v3.305Z" transform="translate(-359.9 -17.9)"/><path class="a" d="M367.98,21.806v-3l-1.2,3h-.3l-1.2-3v3H364.6V17.9h.977l1.052,2.7,1.052-2.7h.977v3.906Z" transform="translate(-361.07 -17.9)"/></g></g><path class="b" d="M33.726,50.315,29.97,40.1H9.239L5.483,50.315H0L16.6,7.5h6.009l16.6,42.815Zm-14.5-36.731L11.492,34.766H27.717Z" transform="translate(0 -1.866)"/><path class="b" d="M56.4,50.315V7.5h5.333V50.315Z" transform="translate(-14.036 -1.866)"/><path class="b" d="M74.3,54.421V24h5.333V54.346H74.3Z" transform="translate(-18.49 -5.973)"/><path class="b" d="M83.124,8.187v-.6A7.75,7.75,0,0,1,75.612,0h-.6A7.858,7.858,0,0,1,67.5,7.587v.6a7.75,7.75,0,0,1,7.511,7.587h.6A7.75,7.75,0,0,1,83.124,8.187Z" transform="translate(-16.798)"/></g><g transform="translate(230.9 2590)"><path class="c" d="M320.8,0A44.15,44.15,0,1,0,365,44.2,44.214,44.214,0,0,0,320.8,0Zm0,87.3A43.15,43.15,0,1,1,364,44.2,43.19,43.19,0,0,1,320.8,87.3ZM318.4,6.4c0-.5.2-.7.6-.7h1.8a38.6,38.6,0,1,1-13.3,2.4.569.569,0,0,1,.8.5.63.63,0,0,1-.3.9,37.049,37.049,0,1,0,12.8-2.3H319A.779.779,0,0,1,318.4,6.4Zm1.3,61.2h1.1a23.5,23.5,0,0,0,0-47h-1.1a1.321,1.321,0,0,1-1.3-1.5,1.321,1.321,0,0,1,1.3-1.5h1.1a26.6,26.6,0,1,1,0,53.2h-1.1a1.321,1.321,0,0,1-1.3-1.5C318.4,68.2,318.9,67.6,319.7,67.6Zm1.1,7a30.4,30.4,0,0,0,0-60.8h-1.4c-.6,0-1-.5-1-1.2s.4-1.2,1-1.2h1.4a32.8,32.8,0,0,1,0,65.6h-1.4c-.6,0-1-.5-1-1.2s.4-1.2,1-1.2Zm-12.9-2.9a1.025,1.025,0,0,1,.4,1.5c-.3.7-.8.9-1.4.6A32.591,32.591,0,0,1,288,44.2a32.928,32.928,0,0,1,18.8-29.7c.6-.3,1.1,0,1.4.6.3.7.2,1.3-.4,1.5a30.473,30.473,0,0,0,.1,55.1Zm-.1-8a1.263,1.263,0,0,1,.2,2,1.339,1.339,0,0,1-1.9.6,26.471,26.471,0,0,1,0-44.2c.7-.5,1.4-.2,1.9.6a1.39,1.39,0,0,1-.2,2,23.357,23.357,0,0,0,0,39Zm-2.7-7.8a19.364,19.364,0,0,1-3.9-11.7,19.152,19.152,0,0,1,3.9-11.7c.6-.8,1.5-.8,2.4-.1a1.621,1.621,0,0,1,.5,2.4,15.887,15.887,0,0,0-3.1,9.5,16.337,16.337,0,0,0,3.1,9.5,1.621,1.621,0,0,1-.5,2.4A1.816,1.816,0,0,1,305.1,55.9Z"/><path class="d" d="M313.8,30.1a1.988,1.988,0,0,1-2.7-2V8c0-1.2.9-1.9,2.3-1.9s2.3.7,2.3,1.9V24.8a20.929,20.929,0,0,1,5.1-.7,20.1,20.1,0,1,1,0,40.2h-.4a2.035,2.035,0,0,1-2-2.3c0-1.4.7-2.3,2-2.3h.4a15.5,15.5,0,0,0,.1-31A18.372,18.372,0,0,0,313.8,30.1Zm15.7,5.4a12.254,12.254,0,0,0-8.7-3.6c-4.4,0-9.4,2.3-9.7,4.4V74.2c0,1.4.9,2,2.3,2,1.3,0,2.3-.6,2.3-2v-36a7.683,7.683,0,1,1,5.1,13.5h-.4c-1.2,0-1.9.9-1.9,2.3s.7,2.3,1.9,2.3h.4a12.163,12.163,0,0,0,8.7-20.8Z"/><path class="e" d="M246.3,55.2a12.551,12.551,0,0,0,6.9,1.8c5.7,0,9.1-2.9,9.1-7.7,0-3.7-2-5.6-7.3-7.4-3.5-1.1-5-2.3-5-4,0-2.2,1.9-3.3,4.6-3.3a12.813,12.813,0,0,1,6.9,1.9V33.2c-1.4-1.1-4.3-1.8-6.8-1.8-5.3,0-8.5,2.4-8.5,6.6,0,3.2,1.9,5.5,6.4,6.9,4.3,1.4,5.9,2.3,5.9,4.6,0,2.5-2,4.1-5.3,4.1a12.8,12.8,0,0,1-6.9-1.9ZM224.7,41.9c.4-4.5,2.8-7.2,7.1-7.2,4.4,0,6.6,2.4,6.7,7.2ZM241.8,52a18.651,18.651,0,0,1-8,1.6c-5.9,0-9-2.8-9.2-8.5h17.6c0-.7.1-2,.1-2.5,0-6.9-3.5-11.2-10.3-11.2-7.6,0-11.4,5.6-11.4,12.8,0,8.2,4.3,12.8,12.6,12.8,3.3,0,6.5-.6,8.4-1.7V52Zm-30,4.4,7-24.4H215l-5,19.2L204.3,32h-4.2l-5.6,19.5-5-19.5h-4.1l7,24.4h4L202.3,37l5.6,19.4Zm-39.7-2.8c-4.9,0-7.6-3.7-7.6-9.4,0-5.8,2.7-9.5,7.6-9.5s7.6,3.7,7.6,9.4C179.7,49.9,176.9,53.6,172.1,53.6Zm0,3.4c7.8,0,11.7-5.7,11.7-12.8,0-7.2-3.4-12.8-11.7-12.8-7.8,0-11.7,5.7-11.7,12.8S163.8,57,172.1,57ZM138.6,36a11.829,11.829,0,0,1,5.8-1.3c5.3,0,8.3,3.5,8.3,8.7,0,6.6-3.6,10.2-9.9,10.2a10.885,10.885,0,0,1-4.2-.7V36Zm-3.8,19.7a23.444,23.444,0,0,0,7.7,1.3c8.9,0,14.2-4.9,14.2-13.6,0-7.5-4.6-12-11.9-12a16.3,16.3,0,0,0-6.2,1.2V20.4h-3.8V55.7ZM110.9,68.8l4.7-12.4L125.3,32h-4.2l-7.4,20-7.3-20H102l9.7,24.4L107,68.8ZM82.2,41.9c.4-4.5,2.8-7.2,7.1-7.2,4.4,0,6.6,2.4,6.7,7.2ZM99.2,52a18.651,18.651,0,0,1-8,1.6c-5.9,0-9-2.8-9.2-8.5H99.6c0-.7.1-2,.1-2.5,0-6.9-3.5-11.2-10.3-11.2C81.8,31.4,78,37,78,44.2,78,52.4,82.3,57,90.6,57c3.3,0,6.5-.6,8.4-1.7l.2-3.3ZM74,56.4v-16c0-6.9-4.2-9-9.5-9a33.08,33.08,0,0,0-11,2.1v23h3.8V35.9a19.576,19.576,0,0,1,6.2-1.1c4.5,0,6.6,1.5,6.6,6.9V56.4ZM49.9,53a13.955,13.955,0,0,1-4.3.6c-1.7,0-3-.5-3-3.6V35.1H49V31.9H42.6v-6H38.8v6H34.7v3.2h4.1V50.7c0,4.4,2.3,6.2,5.9,6.2a13.808,13.808,0,0,0,5.2-.9ZM28.6,27.3a2.5,2.5,0,1,0-2.5-2.5A2.476,2.476,0,0,0,28.6,27.3Zm1.9,4.6H26.7V56.3h3.8ZM3.8,36.2a9.855,9.855,0,0,1,5.8-1.5c5.3,0,8.3,3.5,8.3,8.7,0,6.6-3.6,10.2-9.9,10.2a10.885,10.885,0,0,1-4.2-.7V36.2Zm0,32.6V56.4a16.842,16.842,0,0,0,4,.5C16.5,57,22,52,22,43.3c0-7.4-4.7-12-11.9-12a15.843,15.843,0,0,0-10,3.5V68.7H3.8Z"/></g><g transform="translate(140.744 2483)"><path class="f" d="M106.244,51.361c-8.887,6.583-21.789,10.072-32.913,10.072a59.7,59.7,0,0,1-40.22-15.338c-.856-.724-.066-1.777.922-1.185a81.066,81.066,0,0,0,40.22,10.664,80.129,80.129,0,0,0,30.675-6.254c1.514-.658,2.765.987,1.317,2.041" transform="translate(-11.19 -15.288)"/><path class="g" d="M144.226,46.336c-1.119-1.448-7.5-.658-10.4-.329-.856.132-.987-.658-.2-1.185,5.069-3.555,13.429-2.567,14.416-1.317.987,1.185-.263,9.545-5,13.56-.724.592-1.448.263-1.119-.527,1.053-2.7,3.423-8.755,2.3-10.2" transform="translate(-45.485 -14.475)"/><path class="e" d="M134.056,5.445V1.956a.83.83,0,0,1,.856-.856h15.6a.848.848,0,0,1,.922.856V4.918a4.173,4.173,0,0,1-1.185,2.172l-8.1,11.52a17.368,17.368,0,0,1,8.887,1.909,1.7,1.7,0,0,1,.856,1.382v3.686c0,.527-.592,1.119-1.119.79a18.123,18.123,0,0,0-16.457,0,.837.837,0,0,1-1.119-.79V22.1a3.933,3.933,0,0,1,.592-2.37L143.14,6.3h-8.163a.887.887,0,0,1-.922-.856" transform="translate(-45.519 -0.376)"/><path class="e" d="M45.3,26.928h-4.74a.981.981,0,0,1-.856-.79V1.782a.887.887,0,0,1,.922-.856h4.41a.862.862,0,0,1,.856.79v3.16h.066C47.138,1.782,49.245.4,52.207.4s4.805,1.448,6.188,4.476a6.983,6.983,0,0,1,11.98-1.843c1.514,2.041,1.185,5,1.185,7.636V26.007a.887.887,0,0,1-.922.856H65.9a.92.92,0,0,1-.856-.856V13.1a34.229,34.229,0,0,0-.132-4.542,2.431,2.431,0,0,0-2.765-2.106,3.2,3.2,0,0,0-2.831,1.975,15.679,15.679,0,0,0-.461,4.674v12.9a.887.887,0,0,1-.922.856h-4.74a.816.816,0,0,1-.79-.856V13.1c0-2.7.461-6.714-2.9-6.714-3.423,0-3.291,3.884-3.291,6.714v12.9a.989.989,0,0,1-.922.922" transform="translate(-13.567 -0.137)"/><path class="e" d="M175.764.4c7.043,0,10.861,6.056,10.861,13.692,0,7.438-4.213,13.3-10.861,13.3-6.912,0-10.664-6.056-10.664-13.56C165.1,6.259,168.918.4,175.764.4m0,4.937c-3.489,0-3.686,4.74-3.686,7.7s-.066,9.347,3.686,9.347c3.686,0,3.818-5.134,3.818-8.228a21.359,21.359,0,0,0-.724-6.451,2.947,2.947,0,0,0-3.094-2.37" transform="translate(-56.42 -0.137)"/><path class="e" d="M208.7,26.928h-4.74a.92.92,0,0,1-.856-.856V1.717a.923.923,0,0,1,.922-.79h4.41a1,1,0,0,1,.856.658V5.337h.066C210.67,1.98,212.513.4,215.8.4a6.231,6.231,0,0,1,5.529,2.9c1.251,1.975,1.251,5.2,1.251,7.57V26.2a.986.986,0,0,1-.922.79h-4.74a.915.915,0,0,1-.856-.79v-13.3c0-2.633.329-6.583-2.962-6.583A3.107,3.107,0,0,0,210.341,8.3a10.938,10.938,0,0,0-.724,4.608v13.1a.9.9,0,0,1-.922.922" transform="translate(-69.406 -0.137)"/><path class="e" d="M237.2,36.538a2.3,2.3,0,1,1,2.3,2.238,2.276,2.276,0,0,1-2.3-2.238" transform="translate(-81.059 -11.721)"/><path class="e" d="M313.156,26.86A.871.871,0,0,1,312.3,26V1.648a.816.816,0,0,1,.856-.79h1.711a.923.923,0,0,1,.922.79V5.2c1.251-2.831,3.555-5,6.451-5h.395c3.094,0,5.332,2.3,6.188,5.6C330.139,2.5,332.575.2,335.866.2h.395a6.449,6.449,0,0,1,5.661,3.752c1.119,2.172,1.053,5,1.053,7.438V26a.871.871,0,0,1-.856.856h-2.106a.859.859,0,0,1-.856-.79V11.325a13.775,13.775,0,0,0-.592-5.2,4.219,4.219,0,0,0-3.555-2.7,5.563,5.563,0,0,0-4.147,2.9c-1.251,2.106-1.251,4.015-1.251,6.451v13.3a.856.856,0,0,1-.856.724h-2.041a.871.871,0,0,1-.856-.856v-15.6a10.051,10.051,0,0,0-.724-4.41,4.545,4.545,0,0,0-3.555-2.5A5.4,5.4,0,0,0,317.7,5.993a10.151,10.151,0,0,0-1.382,5.924V25.938a.871.871,0,0,1-.856.856h-2.3" transform="translate(-106.723 -0.068)"/><path class="e" d="M286.842,27.287c-6.714,0-9.742-6.846-9.742-13.692C277.1,6.354,280.655.1,287.435.1h.395c6.583,0,9.874,6.649,9.874,13.495,0,7.241-3.62,13.692-10.466,13.692h-.4M287.3,24c2.238-.066,3.95-1.448,5-3.752a16.268,16.268,0,0,0,1.119-6.649,14.532,14.532,0,0,0-1.448-7.109,5.115,5.115,0,0,0-9.611.592,16.785,16.785,0,0,0-1.119,6.517A18.18,18.18,0,0,0,282.5,20.7,5.7,5.7,0,0,0,287.3,24" transform="translate(-94.694 -0.034)"/><path class="e" d="M254.877,23.829c3.028-.066,4.608-2.5,5.266-5.661a.976.976,0,0,1,.856-.724h1.975c.461,0,.922.395.856.79-.922,5.332-4.147,8.952-8.755,8.952h-.329c-6.714,0-9.545-6.714-9.545-13.495S248.1,0,254.811,0h.395c4.674,0,7.965,3.555,8.689,8.887a.908.908,0,0,1-.79.79H261a.977.977,0,0,1-.79-.856c-.527-2.962-2.238-5.332-5.069-5.464-4.542.132-5.859,5.727-5.859,10.006s1.053,10.335,5.6,10.466" transform="translate(-83.792 0)"/><path class="e" d="M116.915,22.315a6.507,6.507,0,0,1-1.777-4.41V10.532c0-3.16.2-5.99-2.106-8.163C111.188.592,108.226,0,105.922,0c-4.476,0-9.545,1.711-10.6,7.241a.815.815,0,0,0,.724.987l4.608.461c.461,0,.724-.461.856-.856A3.592,3.592,0,0,1,105.33,5a2.943,2.943,0,0,1,2.633,1.251,6.12,6.12,0,0,1,.592,3.423v.592c-2.765.329-6.319.527-8.887,1.646A8.037,8.037,0,0,0,94.6,19.682c0,4.937,3.094,7.373,7.109,7.373,3.357,0,5.2-.79,7.833-3.423a11.332,11.332,0,0,0,2.7,3.16.906.906,0,0,0,1.119-.132h0c.922-.856,2.7-2.37,3.62-3.16A1,1,0,0,0,116.915,22.315Zm-9.347-2.172a3.9,3.9,0,0,1-3.291,2.172c-1.843,0-2.9-1.382-2.9-3.423,0-4.015,3.62-4.805,7.043-4.805V15.14A8.72,8.72,0,0,1,107.568,20.143Z" transform="translate(-32.328 0)"/><path class="e" d="M22.381,22.315A6.507,6.507,0,0,1,20.6,17.9V10.532c0-3.16.2-5.99-2.106-8.163C16.72.592,13.692,0,11.388,0,6.912,0,1.843,1.711.79,7.241a.815.815,0,0,0,.724.987l4.608.461c.395,0,.724-.461.79-.856A3.592,3.592,0,0,1,10.73,5a2.943,2.943,0,0,1,2.633,1.251,6.12,6.12,0,0,1,.592,3.423v.592c-2.765.329-6.319.527-8.887,1.646A8.165,8.165,0,0,0,0,19.682c0,4.937,3.094,7.373,7.109,7.373,3.357,0,5.2-.79,7.833-3.423a11.331,11.331,0,0,0,2.7,3.16.906.906,0,0,0,1.119-.132h0c.922-.856,2.7-2.37,3.62-3.16C22.776,23.237,22.71,22.71,22.381,22.315ZM13.1,20.143a3.9,3.9,0,0,1-3.291,2.172c-1.843,0-2.9-1.382-2.9-3.423,0-4.015,3.62-4.805,7.043-4.805V15.14h0C13.955,16.983,14.021,18.5,13.1,20.143Z" transform="translate(0 0)"/><path class="e" d="M364.9,1.295A2.106,2.106,0,1,1,362.795,3.4,2.165,2.165,0,0,1,364.9,1.295m0-.395a2.5,2.5,0,1,0,2.5,2.5A2.5,2.5,0,0,0,364.9.9m-.922,3.884h.527V3.665h.461c.2,0,.263.066.263.263a4.528,4.528,0,0,0,.132.856h.592a2.366,2.366,0,0,1-.132-.724c-.066-.329-.066-.592-.461-.658a.654.654,0,0,0,.527-.658c0-.724-.658-.724-.987-.724h-.922V4.784m.527-2.3h.461c.132,0,.395,0,.395.395a.373.373,0,0,1-.395.395h-.461V2.48" transform="translate(-123.843 -0.308)"/></g></g></svg>