<svg xmlns="http://www.w3.org/2000/svg" viewBox="0 0 60 60"><defs><style>.a,.d{fill:none;}.a{stroke:#efeff4;stroke-width:1.5px;}.b{fill:#2196f3;}.c{stroke:none;}</style></defs><g transform="translate(-691 -5238)"><g class="a" transform="translate(691 5238)"><rect class="c" width="60" height="60" rx="5"/><rect class="d" x="0.75" y="0.75" width="58.5" height="58.5" rx="4.25"/></g><g transform="translate(386.067 3180.025)"><path class="b" d="M342.366,2072.246v4.912h-2.921a2.884,2.884,0,0,0-2.124.664,2.755,2.755,0,0,0-.531,1.991v3.452h5.443l-.664,5.443h-4.647v13.94h-5.576v-13.94H326.7v-5.443h4.647v-3.983a7.6,7.6,0,0,1,1.859-5.311,7.147,7.147,0,0,1,5.045-1.859A19.106,19.106,0,0,1,342.366,2072.246Z" transform="translate(0 0)"/></g></g></svg>