<svg xmlns="http://www.w3.org/2000/svg" viewBox="0 0 236 236"><defs><style>.a{fill:#e5f3ff;}.b{fill:#2196f3;}</style></defs><g transform="translate(-14910 -14041)"><circle class="a" cx="118" cy="118" r="118" transform="translate(14910 14041)"/><circle class="a" cx="117" cy="117" r="117" transform="translate(14910 14041)"/><g transform="translate(14551.3 13843.4)"><path class="b" d="M529.6,297.192a10.846,10.846,0,0,1,6.694,2.575c2.06,1.545,2.575,4.12,2.575,6.694a10.846,10.846,0,0,1-2.575,6.694c-1.545,2.06-4.12,2.575-6.694,2.575v27.293a8.528,8.528,0,0,1-2.575,6.18,9.5,9.5,0,0,1-6.18,2.575C501.273,335.3,481.7,326.03,463.166,324.485a15.681,15.681,0,0,0-6.694,4.635,11.823,11.823,0,0,0-2.06,7.209,9.065,9.065,0,0,0,3.09,6.694,8.306,8.306,0,0,0-1.545,4.635,10.038,10.038,0,0,0,.515,4.12,12.921,12.921,0,0,0,2.575,4.12c1.545,1.545,2.06,2.575,3.6,3.6a49.854,49.854,0,0,0,4.634,3.6,12.835,12.835,0,0,1-7.724,5.665,30.03,30.03,0,0,1-11.844,1.03,15.551,15.551,0,0,1-9.269-4.12c-.515-1.03-1.03-3.09-2.06-6.18s-2.06-5.149-2.06-6.694a53.461,53.461,0,0,1-1.545-6.18,40.4,40.4,0,0,1-1.03-7.209v-7.209a20.664,20.664,0,0,1,1.545-7.724h-8.754a10.969,10.969,0,0,1-8.239-3.6,12.152,12.152,0,0,1-3.6-8.239v-13.9a10.97,10.97,0,0,1,3.6-8.239,12.152,12.152,0,0,1,8.239-3.6h33.987c20.6,0,41.712-9.269,63.855-27.293a8.528,8.528,0,0,1,6.18,2.575,9.5,9.5,0,0,1,2.575,6.18v28.838Zm-9.269,43.256V272.474c-18.538,14.419-37.077,22.658-54.586,24.2v19.054C483.764,318.305,501.788,326.03,520.326,340.449Z" transform="translate(0 0)"/></g></g></svg>