<svg xmlns="http://www.w3.org/2000/svg" viewBox="0 0 60 60"><defs><style>.a,.d{fill:none;}.a{stroke:#efeff4;stroke-width:1.5px;}.b{fill:#2196f3;}.c{stroke:none;}</style></defs><g transform="translate(-415 -5238)"><g class="a" transform="translate(415 5238)"><rect class="c" width="60" height="60" rx="5"/><rect class="d" x="0.75" y="0.75" width="58.5" height="58.5" rx="4.25"/></g><g transform="translate(-497.347 4029.033)"><path class="b" d="M958.495,1249.535v2.1H925.5V1226.8h2.1v22.735Zm-2.1-20.17v7c0,.233-.116.35-.35.466s-.35,0-.583-.117l-1.982-1.982-10.26,10.26a.583.583,0,0,1-.7,0l-3.731-3.731-6.762,6.762-3.148-3.148,9.444-9.444a.584.584,0,0,1,.7,0l3.731,3.731,7.462-7.462-1.982-1.982a.513.513,0,0,1-.117-.583c.117-.233.233-.35.466-.35h7a.429.429,0,0,1,.35.116C956.4,1229.132,956.4,1229.249,956.4,1229.365Z" transform="translate(0 0)"/></g></g></svg>