<svg xmlns="http://www.w3.org/2000/svg" viewBox="0 0 60 60"><defs><style>.a,.d{fill:none;}.a{stroke:#efeff4;stroke-width:1.5px;}.b{fill:#2196f3;}.c{stroke:none;}</style></defs><g transform="translate(-139 -5238)"><g class="a" transform="translate(139 5238)"><rect class="c" width="60" height="60" rx="5"/><rect class="d" x="0.75" y="0.75" width="58.5" height="58.5" rx="4.25"/></g><path class="b" d="M17.089,2A15.089,15.089,0,1,0,32.179,17.089,15.095,15.095,0,0,0,17.089,2ZM15.58,29.055A12.054,12.054,0,0,1,5.018,17.089a12.249,12.249,0,0,1,.317-2.7l7.228,7.228v1.509a3.027,3.027,0,0,0,3.018,3.018Zm10.412-3.833a2.994,2.994,0,0,0-2.867-2.1H21.616V18.6a1.513,1.513,0,0,0-1.509-1.509H11.054V14.071h3.018a1.513,1.513,0,0,0,1.509-1.509V9.545H18.6a3.027,3.027,0,0,0,3.018-3.018V5.908a12.045,12.045,0,0,1,4.376,19.314Z" transform="translate(151.91 5250.91)"/></g></svg>