<svg xmlns="http://www.w3.org/2000/svg" viewBox="0 0 134 134"><defs><style>.a{fill:#e5f3ff;}.b{fill:#2196f3;}</style></defs><g transform="translate(-15217 -14230)"><circle class="a" cx="67" cy="67" r="67" transform="translate(15217 14230)"/><g transform="translate(14377.2 12258.375)"><path class="b" d="M893.771,2054.969l-1.858,1.858a1.326,1.326,0,0,1-1.593,0l-17.254-17.254a1.328,1.328,0,0,1,0-1.593l17.254-17.254a1.326,1.326,0,0,1,1.593,0l1.858,1.858a1.328,1.328,0,0,1,0,1.593l-14.334,14.334,14.334,14.334a.975.975,0,0,1,.265.8C894.036,2054.438,894.036,2054.7,893.771,2054.969Zm21.767-39.286-13.8,47.516c0,.265-.265.531-.531.8a.5.5,0,0,1-.8,0l-2.389-.531c-.266,0-.531-.266-.8-.531a.5.5,0,0,1,0-.8l13.8-47.516c0-.266.265-.531.531-.8a.5.5,0,0,1,.8,0l2.389.531c.265,0,.531.265.8.531S915.538,2015.417,915.538,2015.682Zm24.156,23.89-17.254,17.254a1.327,1.327,0,0,1-1.593,0l-1.858-1.858a1.328,1.328,0,0,1,0-1.593l14.334-14.334-14.334-14.334a1.328,1.328,0,0,1,0-1.593l1.858-1.858a1.329,1.329,0,0,1,1.593,0l17.254,17.254a.975.975,0,0,1,.265.8C939.959,2039.573,939.959,2039.307,939.693,2039.573Z" transform="translate(0 0)"/></g></g></svg>