<svg xmlns="http://www.w3.org/2000/svg" viewBox="0 0 60 60"><defs><style>.a,.d{fill:none;}.a{stroke:#efeff4;stroke-width:1.5px;}.b{fill:#2196f3;}.c{stroke:none;}</style></defs><g transform="translate(-415 -4856)"><g class="a" transform="translate(415 4856)"><rect class="c" width="60" height="60" rx="5"/><rect class="d" x="0.75" y="0.75" width="58.5" height="58.5" rx="4.25"/></g><g transform="translate(-85.247 4611.67)"><path class="b" d="M524.6,282.228v1.2a.471.471,0,0,1-.533.533h-1.2a.471.471,0,0,1-.533-.533v-1.2a.471.471,0,0,1,.533-.533h1.2a.49.49,0,0,1,.4.133C524.465,281.961,524.6,282.094,524.6,282.228Zm0-4.666v1.2a.471.471,0,0,1-.533.533h-1.2a.471.471,0,0,1-.533-.533v-1.2a.471.471,0,0,1,.533-.533h1.2a.49.49,0,0,1,.4.133C524.465,277.3,524.6,277.429,524.6,277.562Zm4.666,0v1.2a.471.471,0,0,1-.533.533h-1.2a.471.471,0,0,1-.533-.533v-1.2a.471.471,0,0,1,.533-.533h1.2a.471.471,0,0,1,.533.533ZM524.6,272.9v1.2a.471.471,0,0,1-.533.533h-1.2a.471.471,0,0,1-.533-.533v-1.2a.471.471,0,0,1,.533-.533h1.2a.49.49,0,0,1,.4.133A.584.584,0,0,1,524.6,272.9Zm14.13,9.331v1.2a.471.471,0,0,1-.533.533H537a.471.471,0,0,1-.533-.533v-1.2a.471.471,0,0,1,.533-.533h1.2a.471.471,0,0,1,.533.533Zm-4.666-4.666v1.2a.471.471,0,0,1-.533.533h-1.2a.471.471,0,0,1-.533-.533v-1.2a.471.471,0,0,1,.533-.533h1.2a.49.49,0,0,1,.4.133C533.929,277.3,534.063,277.429,534.063,277.562Zm-4.8-4.666v1.2a.471.471,0,0,1-.533.533h-1.2A.471.471,0,0,1,527,274.1v-1.2a.471.471,0,0,1,.533-.533h1.2a.49.49,0,0,1,.4.133C529.264,272.5,529.264,272.63,529.264,272.9Zm-4.666-4.8v1.2a.471.471,0,0,1-.533.533h-1.2a.471.471,0,0,1-.533-.533v-1.2a.471.471,0,0,1,.533-.533h1.2a.49.49,0,0,1,.4.133C524.465,267.831,524.6,267.964,524.6,268.1Zm14.13,9.464v1.2a.471.471,0,0,1-.533.533H537a.471.471,0,0,1-.533-.533v-1.2a.471.471,0,0,1,.533-.533h1.2a.471.471,0,0,1,.533.533Zm-4.666-4.666v1.2a.471.471,0,0,1-.533.533h-1.2a.471.471,0,0,1-.533-.533v-1.2a.471.471,0,0,1,.533-.533h1.2a.49.49,0,0,1,.4.133A.584.584,0,0,1,534.063,272.9Zm-4.8-4.8v1.2a.471.471,0,0,1-.533.533h-1.2A.471.471,0,0,1,527,269.3v-1.2a.471.471,0,0,1,.533-.533h1.2a.471.471,0,0,1,.533.533Zm-4.666-4.666v1.2a.471.471,0,0,1-.533.533h-1.2a.471.471,0,0,1-.533-.533v-1.2a.471.471,0,0,1,.533-.533h1.2a.49.49,0,0,1,.4.133C524.465,263.165,524.6,263.3,524.6,263.432Zm14.13,9.464v1.2a.471.471,0,0,1-.533.533H537a.471.471,0,0,1-.533-.533v-1.2a.471.471,0,0,1,.533-.533h1.2a.49.49,0,0,1,.4.133C538.728,272.5,538.728,272.63,538.728,272.9Zm-4.666-4.8v1.2a.471.471,0,0,1-.533.533h-1.2a.471.471,0,0,1-.533-.533v-1.2a.471.471,0,0,1,.533-.533h1.2a.49.49,0,0,1,.4.133C533.929,267.831,534.063,267.964,534.063,268.1Zm-4.8-4.666v1.2a.471.471,0,0,1-.533.533h-1.2a.471.471,0,0,1-.533-.533v-1.2a.471.471,0,0,1,.533-.533h1.2a.471.471,0,0,1,.533.533Zm9.464,4.666v1.2a.471.471,0,0,1-.533.533H537a.471.471,0,0,1-.533-.533v-1.2a.471.471,0,0,1,.533-.533h1.2a.471.471,0,0,1,.533.533Zm-4.666-4.666v1.2a.471.471,0,0,1-.533.533h-1.2a.471.471,0,0,1-.533-.533v-1.2a.471.471,0,0,1,.533-.533h1.2a.49.49,0,0,1,.4.133C533.929,263.165,534.063,263.3,534.063,263.432Zm4.666,0v1.2a.471.471,0,0,1-.533.533H537a.471.471,0,0,1-.533-.533v-1.2A.471.471,0,0,1,537,262.9h1.2a.471.471,0,0,1,.533.533Zm-4.666,25.327h7.065V260.366h-21.2v28.393H527v-4.132a.471.471,0,0,1,.533-.533H533.4a.471.471,0,0,1,.533.533v4.132Zm9.331-29.46v30.66a1.414,1.414,0,0,1-1.2,1.2H518.6a1.414,1.414,0,0,1-1.2-1.2V259.3a1.414,1.414,0,0,1,1.2-1.2h23.595a1.152,1.152,0,0,1,.8.4C543.394,258.633,543.394,258.9,543.394,259.3Z"/></g></g></svg>