<svg xmlns="http://www.w3.org/2000/svg" viewBox="0 0 176 176"><defs><style>.a{fill:#e5f3ff;}.b{fill:#2196f3;}.c{fill:#fafafa;}</style></defs><g transform="translate(-15237 -13966)"><circle class="a" cx="88" cy="88" r="88" transform="translate(15237 13966)"/><g transform="translate(15279.975 14009)"><path class="b" d="M45.374.009A44.483,44.483,0,0,0,.025,43.468,42.639,42.639,0,0,0,15.141,75.817v13a1.89,1.89,0,0,0,2.891,1.6L28.564,83.84a46.792,46.792,0,0,0,16.809,3.087A44.483,44.483,0,0,0,90.723,43.468,44.484,44.484,0,0,0,45.374.009Z" transform="translate(0 0)"/><path class="c" d="M145.457,171.454a1.889,1.889,0,0,0-2.419-.529l-19.651,10.714-12.225-10.483a1.889,1.889,0,0,0-2.566.1L85.922,193.928a1.89,1.89,0,0,0,2.241,2.993l19.651-10.714,12.237,10.487a1.889,1.889,0,0,0,2.566-.1l22.674-22.674A1.889,1.889,0,0,0,145.457,171.454Z" transform="translate(-70.229 -140.457)"/></g></g></svg>