<svg xmlns="http://www.w3.org/2000/svg" xmlns:xlink="http://www.w3.org/1999/xlink" viewBox="0 0 100.65 37.145"><defs><style>.a{fill:#242424;}.b{fill:url(#a);}</style><linearGradient id="a" y1="0.5" x2="1" y2="0.5" gradientUnits="objectBoundingBox"><stop offset="0" stop-color="#e7d16e"/><stop offset="1" stop-color="#cca241"/></linearGradient></defs><g transform="translate(-139 -26.605)"><g transform="translate(139 26.605)"><g transform="translate(0 0.187)"><path class="a" d="M10.765,13.945c.168.374.337.768.487,1.161.15-.412.318-.805.487-1.179s.356-.749.543-1.1L17.43,2.693a1.954,1.954,0,0,1,.281-.412.846.846,0,0,1,.318-.206A1.008,1.008,0,0,1,18.441,2H22.5V22.014H18.423V10.5c0-.562.019-1.161.075-1.816l-5.3,10.3a1.743,1.743,0,0,1-1.629.974h-.637A1.743,1.743,0,0,1,9.3,18.981L3.988,8.665c.037.318.056.637.075.955s.019.6.019.88V22.014H0V2H4.063a1.008,1.008,0,0,1,.412.075.846.846,0,0,1,.318.206,1.56,1.56,0,0,1,.281.412l5.167,10.166C10.428,13.215,10.6,13.57,10.765,13.945Z" transform="translate(0 -1.813)"/><path class="a" d="M369.419,5.25a1.4,1.4,0,0,1-.431.487.929.929,0,0,1-.58.168,1.46,1.46,0,0,1-.674-.206c-.243-.131-.524-.281-.824-.449a6.085,6.085,0,0,0-1.048-.449,4.247,4.247,0,0,0-1.348-.206,2.878,2.878,0,0,0-1.947.562,1.887,1.887,0,0,0-.637,1.5,1.4,1.4,0,0,0,.393,1.011,3.438,3.438,0,0,0,1.011.693,10.353,10.353,0,0,0,1.423.524c.524.168,1.067.356,1.629.543.562.206,1.1.431,1.648.693a5.166,5.166,0,0,1,1.423,1.011,5.022,5.022,0,0,1,1.011,1.5,5.236,5.236,0,0,1,.393,2.134,7.066,7.066,0,0,1-.487,2.6,5.982,5.982,0,0,1-1.4,2.116,6.877,6.877,0,0,1-2.247,1.423,8.614,8.614,0,0,1-3.052.524,9.7,9.7,0,0,1-1.91-.187,12.642,12.642,0,0,1-1.872-.543,10.237,10.237,0,0,1-1.7-.824A7.343,7.343,0,0,1,356.8,18.8l1.367-2.172a.979.979,0,0,1,.431-.393,1.291,1.291,0,0,1,.6-.15,1.579,1.579,0,0,1,.824.262c.281.168.6.374.955.58a7.376,7.376,0,0,0,1.217.58,4.64,4.64,0,0,0,1.629.262,3.071,3.071,0,0,0,1.966-.562,2.106,2.106,0,0,0,.693-1.76,1.66,1.66,0,0,0-.393-1.142,2.93,2.93,0,0,0-1.011-.73,10.416,10.416,0,0,0-1.423-.505c-.524-.15-1.086-.318-1.629-.487a10.969,10.969,0,0,1-1.629-.655,5.12,5.12,0,0,1-1.423-1.03,5.039,5.039,0,0,1-1.011-1.591,6.214,6.214,0,0,1-.393-2.359,5.594,5.594,0,0,1,.449-2.19,5.769,5.769,0,0,1,1.329-1.91A6.583,6.583,0,0,1,361.5,1.506,7.963,7.963,0,0,1,364.42,1a11.264,11.264,0,0,1,1.8.15,8.842,8.842,0,0,1,1.647.431,8.69,8.69,0,0,1,1.46.674,7.5,7.5,0,0,1,1.217.88Z" transform="translate(-290 -1)"/><path class="a" d="M461.605,22.014h-4.681V13.552h-8.144v8.462H444.1V2h4.681v8.369h8.144V2h4.681Z" transform="translate(-360.955 -1.813)"/></g><path class="b" d="M156.367,15.876a10.09,10.09,0,0,0,18.5-5.6A10.2,10.2,0,0,0,164.755,0a9.839,9.839,0,0,0-6.834,2.771l-.037.019a9.446,9.446,0,0,0-1.011,1.123A66.168,66.168,0,0,0,152.717,9.1a32.561,32.561,0,0,1-3.445,4.156c-.131.131-.281.281-.431.412-.15.15-.318.3-.487.468a5.983,5.983,0,0,1-3.932,1.423c-3.351,0-5.149-3.183-5.149-5.467,0-2.172,1.479-5.261,4.774-5.261a7.154,7.154,0,0,1,5.336,2.677h0l.58.693,3.164-3.782A12.054,12.054,0,0,0,144.1,0a9.116,9.116,0,0,0-7.152,3.333,10.7,10.7,0,0,0-2.453,6.759,10.688,10.688,0,0,0,2.584,6.871,9.73,9.73,0,0,0,7.4,3.445,10.849,10.849,0,0,0,8.051-3.538l.019-.019A88.064,88.064,0,0,0,159.1,8.912l1.273-1.535a5.241,5.241,0,0,1,4.4-2.527,5.433,5.433,0,0,1,5.28,5.448,5.264,5.264,0,0,1-10.316,1.5Z" transform="translate(-109.319 0)"/></g><g transform="translate(190.711 53.452)"><path class="a" d="M279.907,154.26H276.2V144.3h3.707a4.99,4.99,0,1,1,0,9.96Zm0-8.369h-1.966v6.777h1.966a3.249,3.249,0,0,0,3.464-3.37A3.288,3.288,0,0,0,279.907,145.891Z" transform="translate(-276.2 -144.132)"/><path class="a" d="M330.16,144.3v9.96H328.4V144.3Z" transform="translate(-318.627 -144.132)"/><path class="a" d="M347.267,153.7a4.944,4.944,0,0,1-5.167-5.13,5.075,5.075,0,0,1,5.13-5.167,5.433,5.433,0,0,1,3.838,1.348l-1.1,1.329a3.887,3.887,0,0,0-2.79-1.067,3.373,3.373,0,0,0-3.239,3.538,3.335,3.335,0,0,0,3.389,3.576,4.16,4.16,0,0,0,2.415-.749V149.5h-2.546v-1.516h4.25v4.194A6.612,6.612,0,0,1,347.267,153.7Z" transform="translate(-329.762 -143.4)"/><path class="a" d="M398.741,144.3v9.96H397V144.3Z" transform="translate(-374.384 -144.132)"/><path class="a" d="M414.043,154.179h-1.779v-8.35H409.1V144.2h8.088v1.629h-3.164v8.35Z" transform="translate(-384.218 -144.05)"/><path class="a" d="M453.51,153.935h-1.853l-1.011-2.415h-4.718l-1.03,2.415h-1.8l4.381-10.035h1.629ZM448.286,146l-1.7,3.988h3.426Z" transform="translate(-411.853 -143.806)"/><path class="a" d="M500.2,144.3h1.76v8.369H507.2v1.591h-6.983V144.3Z" transform="translate(-458.263 -144.132)"/></g></g></svg>