<svg xmlns="http://www.w3.org/2000/svg" viewBox="0 0 399.421 409.053"><defs><style>.a{fill:#fff;}.b{fill:#009cde;}.c{fill:#003087;}.d{fill:#2566af;}.e{fill:#e6a540;}.f{fill:#e9b040;}.g{fill:#cc2131;}.h{fill:#2196f3;}</style></defs><g transform="translate(-826 -1724)"><rect class="a" width="159" height="142" rx="15" transform="translate(826 1843.767) rotate(-13)"/><rect class="a" width="139" height="124" rx="15" transform="matrix(0.985, 0.174, -0.174, 0.985, 1088.533, 1724)"/><rect class="a" width="133" height="120" rx="15" transform="matrix(0.985, -0.174, 0.174, 0.985, 1058, 1935.095)"/><g transform="translate(873 1893.405) rotate(-13)"><path class="b" d="M892.467,6.613c-.388,2.532-2.319,2.532-4.188,2.532h-1.063l.748-4.733a.59.59,0,0,1,.583-.5h.486c1.274,0,2.474,0,3.1.726a2.376,2.376,0,0,1,.337,1.972M891.656,0H884.6a.987.987,0,0,0-.971.829l-2.851,18.1a.592.592,0,0,0,.491.674.462.462,0,0,0,.091.006h3.622a.692.692,0,0,0,.68-.577l.811-5.133a.982.982,0,0,1,.966-.829h2.234c4.65,0,7.33-2.246,8.032-6.71a5.459,5.459,0,0,0-.9-4.555C895.792.623,894.015,0,891.656,0" transform="translate(-830.45 0)"/><path class="c" d="M11.665,6.613c-.383,2.532-2.319,2.532-4.188,2.532H6.414l.748-4.733a.59.59,0,0,1,.583-.5h.486c1.274,0,2.474,0,3.1.726a2.376,2.376,0,0,1,.337,1.972M10.853,0H3.8a.987.987,0,0,0-.971.829l-2.851,18.1a.588.588,0,0,0,.491.674.491.491,0,0,0,.091.006H3.929a.977.977,0,0,0,.965-.829l.771-4.881a.982.982,0,0,1,.965-.829H8.865c4.65,0,7.33-2.252,8.032-6.71A5.459,5.459,0,0,0,16,1.8C14.989.623,13.213,0,10.853,0M27.232,13.112a3.765,3.765,0,0,1-3.811,3.229,2.843,2.843,0,0,1-2.268-.915,2.871,2.871,0,0,1-.531-2.372A3.781,3.781,0,0,1,24.41,9.8a2.85,2.85,0,0,1,2.251.92,2.916,2.916,0,0,1,.571,2.389M31.94,6.527H28.564a.59.59,0,0,0-.583.5l-.149.943L27.6,7.625c-.731-1.063-2.359-1.417-3.988-1.417A7.772,7.772,0,0,0,16.069,13a6.385,6.385,0,0,0,1.257,5.2,5.29,5.29,0,0,0,4.256,1.72,6.47,6.47,0,0,0,4.679-1.932l-.149.937a.588.588,0,0,0,.491.674.491.491,0,0,0,.091.006h3.039a.987.987,0,0,0,.971-.829L32.534,7.207a.592.592,0,0,0-.491-.674.555.555,0,0,1-.1-.006" transform="translate(0.032 0)"/><path class="b" d="M1172.079,115.5a3.765,3.765,0,0,1-3.811,3.229,2.622,2.622,0,0,1-2.8-3.287,3.781,3.781,0,0,1,3.788-3.252,2.85,2.85,0,0,1,2.251.92,2.916,2.916,0,0,1,.571,2.389m4.707-6.584h-3.376a.59.59,0,0,0-.583.5l-.149.943-.234-.343c-.731-1.063-2.359-1.417-3.988-1.417a7.772,7.772,0,0,0-7.541,6.8,6.386,6.386,0,0,0,1.257,5.2,5.29,5.29,0,0,0,4.256,1.72,6.471,6.471,0,0,0,4.679-1.932l-.149.937a.588.588,0,0,0,.486.674.524.524,0,0,0,.1.006h3.039a.987.987,0,0,0,.971-.829l1.828-11.569a.592.592,0,0,0-.491-.674.525.525,0,0,1-.1-.006" transform="translate(-1094.495 -102.393)"/><path class="c" d="M614.645,114.206h-3.4a.98.98,0,0,0-.811.429l-4.684,6.9-1.988-6.63a.991.991,0,0,0-.937-.7h-3.336a.588.588,0,0,0-.589.589.526.526,0,0,0,.034.189l3.742,10.986-3.519,4.967a.592.592,0,0,0,.48.932h3.393a.986.986,0,0,0,.806-.423l11.295-16.313a.585.585,0,0,0-.486-.92" transform="translate(-564.683 -107.673)"/><path class="b" d="M1462.175.5l-2.9,18.427a.592.592,0,0,0,.491.674.493.493,0,0,0,.091.006h2.914a.987.987,0,0,0,.971-.829L1466.6.68a.588.588,0,0,0-.491-.674.491.491,0,0,0-.091-.006h-3.256a.587.587,0,0,0-.588.5" transform="translate(-1375.901 0)"/></g><g transform="matrix(0.985, 0.174, -0.174, 0.985, 1109.746, 1778.521)"><path class="d" d="M33.294,24.492H27.026L30.943.431H37.21ZM21.755.431,15.78,16.979l-.708-3.565h0L12.966,2.6A2.683,2.683,0,0,0,9.994.431H.117L0,.836A23.441,23.441,0,0,1,6.556,3.587L12,24.492h6.53L28.5.431ZM71.044,24.492H76.8L71.782.431H66.745A2.884,2.884,0,0,0,63.85,2.222l-9.345,22.27h6.534l1.307-3.572h7.965l.734,3.572Zm-6.9-8.513,3.292-9.006,1.851,9.006ZM54.994,6.218l.894-5.167A18.066,18.066,0,0,0,50.253,0c-3.11,0-10.494,1.357-10.494,7.966,0,6.218,8.669,6.295,8.669,9.561s-7.775,2.678-10.341.62l-.931,5.4a17.591,17.591,0,0,0,7.074,1.357c4.278,0,10.728-2.215,10.728-8.24,0-6.258-8.746-6.838-8.746-9.561s6.1-2.368,8.782-.89Z" transform="translate(0 0)"/><path class="e" d="M15.075,24.691l-2.11-10.823A2.683,2.683,0,0,0,9.994,11.7H.117L0,12.109a24.312,24.312,0,0,1,9.3,4.667A18.78,18.78,0,0,1,15.075,24.691Z" transform="translate(0 -11.273)"/></g><g transform="matrix(0.985, -0.174, 0.174, 0.985, 1092, 1967.226)"><path class="f" d="M863.719,39.672a22.544,22.544,0,0,0,15.273,5.922,22.847,22.847,0,0,0,0-45.694,22.544,22.544,0,0,0-15.273,5.922,22.808,22.808,0,0,0,0,33.85Z" transform="translate(-825.617 0.1)"/><path class="f" d="M2047.5,980.4a.7.7,0,0,1,.707-.7.713.713,0,0,1,.746.7.721.721,0,0,1-.746.743A.712.712,0,0,1,2047.5,980.4Zm.707.59a.6.6,0,0,0,.589-.587.57.57,0,0,0-.589-.548.561.561,0,0,0-.55.548A.6.6,0,0,0,2048.207,981Zm-.079-.238h-.157v-.666h.275a.238.238,0,0,1,.157.039c.078.039.078.078.078.157s-.04.157-.118.157l.157.313h-.2l-.078-.274h-.118v-.117h.157c.039,0,.039-.039.039-.078s0-.039-.039-.078h-.157Z" transform="translate(-1974.365 -944.829)"/><path class="g" d="M45.463,20.432c-.079-.822-.236-1.609-.393-2.431H31.136a23.731,23.731,0,0,1,.629-2.392H44.4q-.413-1.239-.943-2.431H32.747c.393-.829.829-1.641,1.3-2.431h8.069a20.287,20.287,0,0,0-1.732-2.392h-4.6A22.326,22.326,0,0,1,38.1,5.926,22.82,22.82,0,1,0,22.789,45.694,22.644,22.644,0,0,0,38.1,39.772a21.58,21.58,0,0,0,2.282-2.392h-4.6a27.158,27.158,0,0,1-1.732-2.431h8.069a18.5,18.5,0,0,0,1.339-2.431H32.747c-.354-.783-.707-1.57-.986-2.392H44.4a24.608,24.608,0,0,0,.668-2.431,24.125,24.125,0,0,0,.393-2.431c.079-.794.118-1.594.118-2.392a23.658,23.658,0,0,0-.114-2.441Z" transform="translate(0 0.004)"/><path class="a" d="M2047.5,771.044a.713.713,0,0,1,.707-.744.721.721,0,0,1,.746.744.745.745,0,0,1-.746.744A.735.735,0,0,1,2047.5,771.044Zm.707.552a.549.549,0,1,0,0-1.1.548.548,0,1,0,0,1.1Zm-.079-.238h-.157v-.626h.432c.078.039.078.117.078.2a.21.21,0,0,1-.118.157l.157.274h-.2l-.078-.235h-.118V771h.079c.04,0,.078,0,.078-.039.039,0,.039-.039.039-.078a.038.038,0,0,0-.039-.039c0-.039-.039,0-.078,0h-.079Z" transform="translate(-1974.365 -742.881)"/><path class="a" d="M112.674,478.791l-.432,2.509a4.748,4.748,0,0,0-2.2-.626c-1.85,0-3.15,1.8-3.15,4.353,0,1.765.864,2.822,2.322,2.822a4.848,4.848,0,0,0,2.086-.587l-.432,2.627a8.257,8.257,0,0,1-2.165.352c-2.675,0-4.329-1.922-4.329-5.018,0-4.118,2.282-7.022,5.551-7.022a4.85,4.85,0,0,1,1.139.117l.986.235c.314.121.393.16.629.238Zm-7.951,1.726h-.236c-.825,0-1.3.391-2.047,1.53l.236-1.452H100.43l-1.536,9.414h2.479c.9-5.766,1.139-6.744,2.322-6.744h.157a9.806,9.806,0,0,1,.943-2.7l-.071-.043Zm-14.248,9.374a5.137,5.137,0,0,1-1.772.313,1.816,1.816,0,0,1-1.968-2.078,6.535,6.535,0,0,1,.079-.826l.157-.94.118-.744,1.064-6.431h2.44l-.275,1.413h1.261l-.314,2.313H90l-.668,3.922a1.463,1.463,0,0,0-.039.391c0,.47.236.666.825.666a1.636,1.636,0,0,0,.668-.079l-.311,2.079Zm-9.487-6.317a2.741,2.741,0,0,0,1.85,2.627c1.025.47,1.182.626,1.182,1.021,0,.587-.432.861-1.418.861a7.392,7.392,0,0,1-2.2-.352l-.354,2.157.118.039.432.078a2.58,2.58,0,0,0,.668.078,9.175,9.175,0,0,0,1.339.078c2.6,0,3.818-.982,3.818-3.139a2.6,2.6,0,0,0-1.732-2.627c-1.064-.47-1.182-.587-1.182-1.021,0-.509.432-.744,1.222-.744a15.426,15.426,0,0,1,1.772.117l.354-2.157a14.368,14.368,0,0,0-2.165-.2c-2.757,0-3.74,1.456-3.7,3.178Zm50.539,6.435h-2.322l.118-.9a2.956,2.956,0,0,1-2.282,1.021c-1.811,0-2.99-1.53-2.99-3.883,0-3.139,1.85-5.8,4.015-5.8a2.821,2.821,0,0,1,2.361,1.3l.55-3.3h2.44l-1.89,11.57Zm-3.622-2.2c1.143,0,1.929-1.334,1.929-3.178,0-1.217-.432-1.844-1.3-1.844-1.1,0-1.929,1.3-1.929,3.139,0,1.253.436,1.883,1.3,1.883Zm-29.875,2a8.129,8.129,0,0,1-2.557.391c-2.754,0-4.172-1.452-4.172-4.235,0-3.217,1.811-5.609,4.29-5.609a3.158,3.158,0,0,1,3.347,3.413,9.464,9.464,0,0,1-.314,2.353H93.74a.762.762,0,0,0-.039.274c0,1.1.747,1.648,2.165,1.648a5.434,5.434,0,0,0,2.557-.587l-.393,2.353ZM96.654,484.2v-.47a1.089,1.089,0,0,0-1.182-1.217c-.786,0-1.339.587-1.575,1.687Zm-25.075,5.8H69.14l1.418-8.9-3.19,8.9H65.675l-.2-8.826-1.5,8.826H61.7l1.929-11.57h3.543l.118,7.179,2.361-7.179h3.858l-1.929,11.57Zm6.1-4.2c-.236,0-.354-.039-.55-.039-1.379,0-2.086.509-2.086,1.452a.827.827,0,0,0,.864.94c1.025,0,1.732-.943,1.772-2.353Zm1.811,4.2H77.445l.039-.982a3.075,3.075,0,0,1-2.6,1.139,2.281,2.281,0,0,1-2.243-2.548c0-2.313,1.575-3.648,4.329-3.648.275,0,.629.039,1.025.078a1.969,1.969,0,0,0,.079-.587c0-.626-.432-.861-1.575-.861a8.171,8.171,0,0,0-2.047.235l-.354.117-.236.039.354-2.118a9.96,9.96,0,0,1,2.954-.47c2.125,0,3.268.94,3.268,2.744a11.834,11.834,0,0,1-.2,1.883l-.55,3.335-.079.587-.039.47-.039.352-.046.235Zm37.158-4.2c-.275,0-.393-.039-.55-.039-1.418,0-2.125.509-2.125,1.452a.856.856,0,0,0,.907.94c.982,0,1.729-.943,1.768-2.353Zm1.811,4.2h-2.047l.039-.982a3.075,3.075,0,0,1-2.6,1.139,2.281,2.281,0,0,1-2.243-2.548c0-2.313,1.575-3.648,4.329-3.648.275,0,.632.039.986.078a2.48,2.48,0,0,0,.118-.587c0-.626-.432-.861-1.575-.861a8.477,8.477,0,0,0-2.086.235l-.314.117-.236.039.354-2.118a9.96,9.96,0,0,1,2.954-.47c2.125,0,3.229.94,3.229,2.744a8.4,8.4,0,0,1-.2,1.883l-.511,3.335-.079.587-.079.47-.039.352-.007.235Zm6.612-9.492h-.236c-.825,0-1.3.391-2.047,1.53l.236-1.452h-2.243l-1.5,9.414h2.44c.907-5.766,1.143-6.744,2.322-6.744h.157a9.808,9.808,0,0,1,.943-2.7l-.075-.043Z" transform="translate(-59.496 -461.177)"/></g><g transform="translate(-20990 -2496)"><rect class="a" width="117" height="104" rx="15" transform="matrix(0.978, 0.208, -0.208, 0.978, 21906.623, 4503)"/><g transform="matrix(0.978, 0.208, -0.208, 0.978, 21918.986, 4529.398)"><path class="h" d="M91.1,16.042l-1.7-3.75-1.7,3.75m38.185-1.7a1.253,1.253,0,0,1-1.023.341h-2.728V12.632h2.728a1.253,1.253,0,0,1,1.023.341c.341,0,.341.341.341,1.023C126.558,14,126.217,14.337,125.876,14.337Zm20.115,1.7-1.7-3.75-1.7,3.75Zm-37.5,4.091H106.1v-7.5l-3.409,7.5h-2.046l-3.409-7.5v7.5H92.464l-.682-2.046H87.009l-1.023,2.046H83.6l4.091-9.546H91.1l4.091,9.205V10.587h3.75l3.068,6.478,2.728-6.478h3.75v9.546Zm9.546,0h-7.842V10.587h7.842v2.046H112.58v1.7h5.455v2.046H112.58v2.046h5.455Zm10.91-7.16a2.819,2.819,0,0,1-1.7,2.728,4.9,4.9,0,0,0,1.023.682,2.555,2.555,0,0,1,.341,1.7v2.046h-2.387V18.769a4.324,4.324,0,0,0-.341-2.046,2.555,2.555,0,0,0-1.7-.341h-2.387v3.409H119.4V10.587h5.455a6.646,6.646,0,0,1,2.728.341A1.87,1.87,0,0,1,128.945,12.973Zm3.75,7.16h-2.387V10.587H132.7Zm27.275,0h-3.409l-4.432-7.16v7.16h-4.773l-1.023-2.046H141.56l-1.023,2.046h-2.728A6.578,6.578,0,0,1,134.4,19.11a5.452,5.452,0,0,1-1.364-3.75,5.127,5.127,0,0,1,1.364-3.75,5.09,5.09,0,0,1,3.409-1.023H140.2v2.046H138.15c-.682,0-1.364,0-1.7.682a12.061,12.061,0,0,0-.341,2.046,4.927,4.927,0,0,0,.682,2.387,2.555,2.555,0,0,0,1.7.341h1.023l3.409-7.5h3.409l4.091,9.205V10.587h3.409l4.091,6.819V10.587h2.387v9.546ZM83.6,22.178h4.091l1.023-2.046H90.76l1.023,2.046h7.842v-1.7l.682,1.7H104.4l.682-1.7v1.7h19.433V18.769h.341c.341,0,.341,0,.341.341v3.068h9.887V21.156a9.123,9.123,0,0,0,3.75.682h4.091l1.023-2.046h2.046l1.023,2.046H155.2V19.792l1.364,2.046h6.478V8.2h-6.478V9.9l-1.023-1.7H149.06V9.9l-.682-1.7h-8.864a12.256,12.256,0,0,0-3.75.682V8.541h-6.137v.682a3.673,3.673,0,0,0-2.728-.682H104.4l-1.364,3.409-1.7-3.409h-7.16v1.7l-.682-1.7H87.35l-2.728,6.478v7.16Z" transform="translate(-83.6 5.7)"/><path class="h" d="M154.3,17.532H150.21a1.253,1.253,0,0,0-1.023.341c-.341,0-.341.341-.341.682a1.19,1.19,0,0,0,.341.682h2.387a5.281,5.281,0,0,1,2.728.682l.341.341m-.341,3.75a4.322,4.322,0,0,1-3.068,1.364H146.8V22.987h4.432a1.252,1.252,0,0,0,1.023-.341,1.19,1.19,0,0,0,.341-.682c0-.341,0-.341-.341-.682a1.19,1.19,0,0,0-.682-.341c-2.046,0-4.773,0-4.773-3.068,0-1.364,1.023-2.728,3.409-2.728h4.773V13.1h-4.432a4.406,4.406,0,0,0-2.728.682V13.1h-6.478a6.423,6.423,0,0,0-2.728.682V13.1H127.367v.682A5.607,5.607,0,0,0,124.3,13.1h-7.5v.682c-.682-.682-2.387-.682-3.409-.682h-8.523l-2.046,2.046-1.7-2.046H88.5V26.738h11.933l2.046-2.046,1.7,2.046h7.5V23.669h.682a9.439,9.439,0,0,0,3.068-.341v3.75h6.137V23.669h.341c.341,0,.341,0,.341.341v3.068h19.093a4.168,4.168,0,0,0,3.068-1.023v1.023h6.137a10.087,10.087,0,0,0,3.409-.682V24.01ZM145.1,19.919a2.882,2.882,0,0,1,.682,2.046c0,2.046-1.364,3.068-3.75,3.068H137.6V22.987h4.432a1.253,1.253,0,0,0,1.023-.341,1.19,1.19,0,0,0,.341-.682c0-.341,0-.341-.341-.682-.341,0-.341-.341-.682-.341-2.046,0-4.773,0-4.773-3.068,0-1.364,1.023-2.728,3.409-2.728h4.773v2.046h-4.091a1.253,1.253,0,0,0-1.023.341c-.341,0-.341.341-.341.682a1.19,1.19,0,0,0,.341.682h2.387Zm-21.138-.682a1.253,1.253,0,0,1-1.023.341h-2.728V17.532h2.728a1.253,1.253,0,0,1,1.023.341c.341,0,.341.341.341,1.023S124.3,19.237,123.958,19.237Zm1.364,1.364a4.22,4.22,0,0,1,1.023.682,2.555,2.555,0,0,1,.341,1.7v2.046H124.3V23.669a4.324,4.324,0,0,0-.341-2.046,2.555,2.555,0,0,0-1.7-.341h-2.387v3.409H117.48V15.146h5.455a6.646,6.646,0,0,1,2.728.341,2.062,2.062,0,0,1,1.023,2.046C127.026,19.578,126,20.26,125.321,20.6Zm3.068-5.114h7.842v2.046h-5.455v1.7h5.455v2.046h-5.455v1.7h5.455v2.046H128.39Zm-15.683,4.432h-3.068V17.532h3.068c.682,0,1.364.341,1.364,1.023C114.07,19.578,113.729,19.919,112.707,19.919Zm-5.114,4.432-3.409-4.091,3.409-3.75Zm-9.205-1.364h-5.8V20.942h5.114V18.9H92.591v-1.7h5.8l2.387,2.728ZM116.8,18.555c0,2.728-2.046,3.409-4.091,3.409h-2.728v3.409h-4.432l-2.728-3.068-3.068,3.068H90.2V15.828H99.41l2.728,3.068,3.068-3.068h7.5C114.752,15.487,116.8,15.828,116.8,18.555Z" transform="translate(-71.794 17.506)"/></g></g></g></svg>