<svg xmlns="http://www.w3.org/2000/svg" viewBox="0 0 60 60"><defs><style>.a,.d{fill:none;}.a{stroke:#efeff4;stroke-width:1.5px;}.b{fill:#ffca00;}.c{stroke:none;}</style></defs><g transform="translate(-691 -4128)"><g class="a" transform="translate(691 4128)"><rect class="c" width="60" height="60" rx="5"/><rect class="d" x="0.75" y="0.75" width="58.5" height="58.5" rx="4.25"/></g><path class="b" d="M15.449,6.219a2.37,2.37,0,1,0-2.37-2.37A2.377,2.377,0,0,0,15.449,6.219ZM11.184,22.688l1.185-5.213,2.488,2.37v7.109h2.37V18.067L14.738,15.7l.711-3.554a8.676,8.676,0,0,0,6.517,2.962v-2.37a5.828,5.828,0,0,1-5.095-2.844L15.686,8a2.444,2.444,0,0,0-2.014-1.185c-.355,0-.592.118-.948.118L6.563,9.537v5.569h2.37V11.077l2.133-.829-1.9,9.6L3.364,18.66,2.89,21.03Z" transform="translate(708.621 4143.533)"/></g></svg>