<svg xmlns="http://www.w3.org/2000/svg" viewBox="0 0 80 80"><defs><style>.a{fill:#ffca00;}.b{fill:#292929;}</style></defs><g transform="translate(-139 -164.017)"><rect class="a" width="80" height="80" rx="10" transform="translate(139 164.017)"/><path class="b" d="M30.57,21.785l2.2-2.2-2.2-2.2-5.492,5.492L11.892,9.692,17.385,4.2,15.185,2l-2.2,2.2L10.785,2,7.492,5.292l-2.2-2.2-2.2,2.2,2.2,2.2L2,10.785l2.2,2.2L2,15.185l2.2,2.2,5.492-5.492L22.877,25.077,17.385,30.57l2.2,2.2,2.2-2.2,2.2,2.2,3.292-3.292,2.2,2.2,2.2-2.2-2.2-2.2,3.292-3.292Z" transform="translate(161.615 186.615)"/></g></svg>