<svg xmlns="http://www.w3.org/2000/svg" viewBox="0 0 60 60"><defs><style>.a,.d{fill:none;}.a{stroke:#efeff4;stroke-width:1.5px;}.b{fill:#ffca00;}.c{stroke:none;}</style></defs><g transform="translate(-139 -4128)"><g class="a" transform="translate(139 4128)"><rect class="c" width="60" height="60" rx="5"/><rect class="d" x="0.75" y="0.75" width="58.5" height="58.5" rx="4.25"/></g><path class="b" d="M15.415.67A25.827,25.827,0,0,1,16.3,6.438a4.17,4.17,0,0,1-4.1,4.482A4.374,4.374,0,0,1,7.845,6.438l.036-.433A16.544,16.544,0,0,0,4,16.688a9.613,9.613,0,0,0,19.226,0A20.566,20.566,0,0,0,15.415.67ZM13.265,22.7A3.816,3.816,0,0,1,9.4,18.923c0-1.947,1.262-3.317,3.377-3.749a9.267,9.267,0,0,0,5.552-3.1,16.767,16.767,0,0,1,.709,4.855A5.769,5.769,0,0,1,13.265,22.7Z" transform="translate(155.387 4144.18)"/></g></svg>