<svg xmlns="http://www.w3.org/2000/svg" viewBox="0 0 60 60"><defs><style>.a,.d{fill:none;}.a{stroke:#efeff4;stroke-width:1.5px;}.b{fill:#ffca00;}.c{stroke:none;}</style></defs><g transform="translate(-415 -4510)"><g class="a" transform="translate(415 4510)"><rect class="c" width="60" height="60" rx="5"/><rect class="d" x="0.75" y="0.75" width="58.5" height="58.5" rx="4.25"/></g><path class="b" d="M20.514,0H2.279A2.286,2.286,0,0,0,0,2.279V22.033a2.286,2.286,0,0,0,2.279,2.279H20.514a2.286,2.286,0,0,0,2.279-2.279V2.279A2.286,2.286,0,0,0,20.514,0Zm-.76,21.273H3.039V3.039H19.754ZM6.078,10.637H16.715v1.52H6.078Zm0,3.039H16.715V15.2H6.078Zm0,3.039H16.715v1.52H6.078Zm0-9.117H16.715v1.52H6.078Z" transform="translate(433.604 4528.844)"/></g></svg>