<svg xmlns="http://www.w3.org/2000/svg" viewBox="0 0 60 60"><defs><style>.a,.d{fill:none;}.a{stroke:#efeff4;stroke-width:1.5px;}.b{fill:#ffca00;}.c{stroke:none;}</style></defs><g transform="translate(-967 -4510)"><g class="a" transform="translate(967 4510)"><rect class="c" width="60" height="60" rx="5"/><rect class="d" x="0.75" y="0.75" width="58.5" height="58.5" rx="4.25"/></g><path class="b" d="M14.41,27.875a2.61,2.61,0,0,0,2.6-2.6H11.808A2.61,2.61,0,0,0,14.41,27.875Zm7.808-7.808V13.561c0-3.995-2.121-7.339-5.856-8.224V4.452a1.952,1.952,0,0,0-3.9,0v.885C8.737,6.222,6.6,9.553,6.6,13.561v6.506L4,22.67v1.3H24.82v-1.3Zm-2.6,1.3H9.205V13.561c0-3.227,1.965-5.856,5.205-5.856s5.205,2.629,5.205,5.856Z" transform="translate(982.59 4524.563)"/></g></svg>