<svg xmlns="http://www.w3.org/2000/svg" viewBox="0 0 60 60"><defs><style>.a,.d{fill:none;}.a{stroke:#efeff4;stroke-width:1.5px;}.b{fill:#ffca00;}.c{stroke:none;}</style></defs><g transform="translate(-415 -4128)"><g class="a" transform="translate(415 4128)"><rect class="c" width="60" height="60" rx="5"/><rect class="d" x="0.75" y="0.75" width="58.5" height="58.5" rx="4.25"/></g><path class="b" d="M25.222,3H5.778A2.786,2.786,0,0,0,3,5.778V25.222A2.786,2.786,0,0,0,5.778,28H25.222A2.786,2.786,0,0,0,28,25.222V5.778A2.786,2.786,0,0,0,25.222,3ZM11.333,22.444H8.556V12.722h2.778Zm5.556,0H14.111V8.556h2.778Zm5.556,0H19.667V16.889h2.778Z" transform="translate(429.336 4142.336)"/></g></svg>