<svg xmlns="http://www.w3.org/2000/svg" viewBox="0 0 60 60"><defs><style>.a,.d{fill:none;}.a{stroke:#efeff4;stroke-width:1.5px;}.b{fill:#ffca00;}.c{stroke:none;}</style></defs><g transform="translate(-139 -4510)"><g class="a" transform="translate(139 4510)"><rect class="c" width="60" height="60" rx="5"/><rect class="d" x="0.75" y="0.75" width="58.5" height="58.5" rx="4.25"/></g><path class="b" d="M25.212,18.075,27,16.287,25.212,14.5,20.75,18.962,10.037,8.25,14.5,3.788,12.712,2,10.925,3.788,9.137,2,6.463,4.675,4.675,2.888,2.888,4.675,4.675,6.462,2,9.137l1.787,1.788L2,12.712,3.788,14.5,8.25,10.037,18.962,20.75,14.5,25.212,16.287,27l1.788-1.788L19.863,27l2.675-2.675,1.788,1.788,1.788-1.788-1.788-1.788L27,19.863Z" transform="translate(154.283 4525.283)"/></g></svg>