<svg xmlns="http://www.w3.org/2000/svg" viewBox="0 0 60 60"><defs><style>.a,.d{fill:none;}.a{stroke:#efeff4;stroke-width:1.5px;}.b{fill:#2196f3;}.c{stroke:none;}</style></defs><g transform="translate(-139 -4510)"><g class="a" transform="translate(139 4510)"><rect class="c" width="60" height="60" rx="5"/><rect class="d" x="0.75" y="0.75" width="58.5" height="58.5" rx="4.25"/></g><path class="b" d="M20,0H4V2H20ZM4,24H20V22H4ZM20,4H4A2.006,2.006,0,0,0,2,6V18a2.006,2.006,0,0,0,2,2H20a2.006,2.006,0,0,0,2-2V6A2.006,2.006,0,0,0,20,4ZM12,6.75A2.25,2.25,0,1,1,9.75,9,2.253,2.253,0,0,1,12,6.75ZM17,17H7V15.5c0-1.67,3.33-2.5,5-2.5s5,.83,5,2.5Z" transform="translate(157 4528)"/></g></svg>