<svg xmlns="http://www.w3.org/2000/svg" viewBox="0 0 60 60"><defs><style>.a,.d{fill:none;}.a{stroke:#efeff4;stroke-width:1.5px;}.b{fill:#2196f3;}.c{stroke:none;}</style></defs><g transform="translate(-415 -4128)"><g class="a" transform="translate(415 4128)"><rect class="c" width="60" height="60" rx="5"/><rect class="d" x="0.75" y="0.75" width="58.5" height="58.5" rx="4.25"/></g><path class="b" d="M22.2,2H4.244A2.241,2.241,0,0,0,2.011,4.244L2,24.441l4.488-4.488H22.2a2.251,2.251,0,0,0,2.244-2.244V4.244A2.251,2.251,0,0,0,22.2,2ZM8.732,15.465H6.488V13.221H8.732Zm0-3.366H6.488V9.854H8.732Zm0-3.366H6.488V6.488H8.732Zm7.854,6.732h-5.61V13.221h5.61ZM19.953,12.1H10.977V9.854h8.977Zm0-3.366H10.977V6.488h8.977Z" transform="translate(431.779 4144.779)"/></g></svg>