<svg xmlns="http://www.w3.org/2000/svg" viewBox="0 0 60 60"><defs><style>.a,.d{fill:none;}.a{stroke:#efeff4;stroke-width:1.5px;}.b{fill:#2196f3;}.c{stroke:none;}</style></defs><g transform="translate(-967 -4128)"><g class="a" transform="translate(967 4128)"><rect class="c" width="60" height="60" rx="5"/><rect class="d" x="0.75" y="0.75" width="58.5" height="58.5" rx="4.25"/></g><path class="b" d="M14.5,2A12.5,12.5,0,1,0,27,14.5,12.5,12.5,0,0,0,14.5,2ZM13.25,24.413A9.986,9.986,0,0,1,4.5,14.5a10.147,10.147,0,0,1,.263-2.237L10.75,18.25V19.5a2.507,2.507,0,0,0,2.5,2.5Zm8.625-3.175A2.48,2.48,0,0,0,19.5,19.5H18.25V15.75A1.254,1.254,0,0,0,17,14.5H9.5V12H12a1.254,1.254,0,0,0,1.25-1.25V8.25h2.5a2.507,2.507,0,0,0,2.5-2.5V5.237a9.978,9.978,0,0,1,3.625,16Z" transform="translate(982.869 4143.869)"/></g></svg>