<svg xmlns="http://www.w3.org/2000/svg" viewBox="0 0 60 60"><defs><style>.a,.d{fill:none;}.a{stroke:#efeff4;stroke-width:1.5px;}.b{fill:#2196f3;}.c{stroke:none;}</style></defs><g transform="translate(-139 -4128)"><g class="a" transform="translate(139 4128)"><rect class="c" width="60" height="60" rx="5"/><rect class="d" x="0.75" y="0.75" width="58.5" height="58.5" rx="4.25"/></g><path class="b" d="M18.528,12.011a3.506,3.506,0,1,0-3.506-3.506A3.491,3.491,0,0,0,18.528,12.011Zm-9.348,0A3.506,3.506,0,1,0,5.674,8.506,3.491,3.491,0,0,0,9.18,12.011Zm0,2.337c-2.723,0-8.18,1.367-8.18,4.09v2.921H17.359V18.438C17.359,15.715,11.9,14.348,9.18,14.348Zm9.348,0c-.339,0-.724.023-1.133.058a4.931,4.931,0,0,1,2.3,4.031v2.921h7.011V18.438C26.707,15.715,21.25,14.348,18.528,14.348Z" transform="translate(156.146 4143.82)"/></g></svg>