<svg xmlns="http://www.w3.org/2000/svg" viewBox="0 0 80 80"><defs><style>.a{fill:#2196f3;}.b,.c{fill:#fff;}.c{opacity:0.2;}</style></defs><g transform="translate(-139 -164.017)"><rect class="a" width="80" height="80" rx="10" transform="translate(139 164.017)"/><path class="b" d="M29.865,2H5.1A3.092,3.092,0,0,0,2.015,5.1L2,32.961l6.192-6.192H29.865a3.105,3.105,0,0,0,3.1-3.1V5.1A3.105,3.105,0,0,0,29.865,2ZM11.288,20.577h-3.1v-3.1h3.1Zm0-4.644h-3.1v-3.1h3.1Zm0-4.644h-3.1v-3.1h3.1Zm10.836,9.288h-7.74v-3.1h7.74Zm4.644-4.644H14.384v-3.1H26.769Zm0-4.644H14.384v-3.1H26.769Z" transform="translate(161.52 181.52)"/><path class="c" d="M29.865,2H5.1A3.092,3.092,0,0,0,2.015,5.1L2,32.961l6.192-6.192H29.865a3.105,3.105,0,0,0,3.1-3.1V5.1A3.105,3.105,0,0,0,29.865,2ZM11.288,20.577h-3.1v-3.1h3.1Zm0-4.644h-3.1v-3.1h3.1Zm0-4.644h-3.1v-3.1h3.1Zm10.836,9.288h-7.74v-3.1h7.74Zm4.644-4.644H14.384v-3.1H26.769Zm0-4.644H14.384v-3.1H26.769Z" transform="translate(176.52 171.52)"/><path class="c" d="M29.865,2H5.1A3.092,3.092,0,0,0,2.015,5.1L2,32.961l6.192-6.192H29.865a3.105,3.105,0,0,0,3.1-3.1V5.1A3.105,3.105,0,0,0,29.865,2ZM11.288,20.577h-3.1v-3.1h3.1Zm0-4.644h-3.1v-3.1h3.1Zm0-4.644h-3.1v-3.1h3.1Zm10.836,9.288h-7.74v-3.1h7.74Zm4.644-4.644H14.384v-3.1H26.769Zm0-4.644H14.384v-3.1H26.769Z" transform="translate(176.52 181.52)"/></g></svg>