<svg xmlns="http://www.w3.org/2000/svg" viewBox="0 0 60 60"><defs><style>.a,.d{fill:none;}.a{stroke:#efeff4;stroke-width:1.5px;}.b{fill:#2196f3;}.c{stroke:none;}</style></defs><g transform="translate(-415 -4510)"><g class="a" transform="translate(415 4510)"><rect class="c" width="60" height="60" rx="5"/><rect class="d" x="0.75" y="0.75" width="58.5" height="58.5" rx="4.25"/></g><g transform="translate(431.094 4526.188)"><circle class="b" cx="2.381" cy="2.381" r="2.381" transform="translate(5.572 4.191)"/><path class="b" d="M12.895,13.716a5.721,5.721,0,0,1-.976-.857l-1.667-1.846a2.554,2.554,0,0,0-.822-.6,2.65,2.65,0,0,0-1.143-.274H8.251a2.683,2.683,0,0,0-2.679,2.679v.893H2v9.525a2.388,2.388,0,0,0,2.381,2.381H23.432a2.388,2.388,0,0,0,2.381-2.381V13.716ZM7.953,23.242H5.572V16.1H7.953Zm4.763,0H10.335V16.1h2.381Zm4.763,0H15.1V16.1h2.381Zm4.763,0H19.86V16.1h2.381ZM21.825,6.405l-.083-.083a3.007,3.007,0,0,1-.8-2.62l.107-.7H18.8l-.071.512a5.112,5.112,0,0,0,1.548,4.429l.083.071a3.007,3.007,0,0,1,.8,2.62l-.131.7H23.3l.071-.512A5.044,5.044,0,0,0,21.825,6.405Zm-4.763,0-.083-.083a3.007,3.007,0,0,1-.8-2.62l.107-.7h-2.25l-.071.512a5.112,5.112,0,0,0,1.548,4.429l.083.071a3.007,3.007,0,0,1,.8,2.62l-.131.7h2.274l.071-.512A5.044,5.044,0,0,0,17.062,6.405Z"/></g></g></svg>