<svg xmlns="http://www.w3.org/2000/svg" viewBox="0 0 60 60"><defs><style>.a,.d{fill:none;}.a{stroke:#efeff4;stroke-width:1.5px;}.b{fill:#2196f3;}.c{stroke:none;}</style></defs><g transform="translate(-691 -4128)"><g class="a" transform="translate(691 4128)"><rect class="c" width="60" height="60" rx="5"/><rect class="d" x="0.75" y="0.75" width="58.5" height="58.5" rx="4.25"/></g><path class="b" d="M13.549,2A11.549,11.549,0,1,0,25.1,13.549,11.553,11.553,0,0,0,13.549,2Zm0,3.465a3.465,3.465,0,1,1-3.465,3.465A3.46,3.46,0,0,1,13.549,5.465Zm0,16.4A8.316,8.316,0,0,1,6.62,18.145c.035-2.3,4.62-3.557,6.929-3.557s6.895,1.259,6.929,3.557A8.316,8.316,0,0,1,13.549,21.864Z" transform="translate(707.451 4144.451)"/></g></svg>