<svg xmlns="http://www.w3.org/2000/svg" viewBox="0 0 60 60"><defs><style>.a,.d{fill:none;}.a{stroke:#efeff4;stroke-width:1.5px;}.b{fill:#2196f3;}.c{stroke:none;}</style></defs><g transform="translate(-691 -4510)"><g class="a" transform="translate(691 4510)"><rect class="c" width="60" height="60" rx="5"/><rect class="d" x="0.75" y="0.75" width="58.5" height="58.5" rx="4.25"/></g><path class="b" d="M10,20H5v2h5v2l3-3-3-3Zm4,0v2h5V20ZM12,8a2,2,0,1,0-1.99-2A2.006,2.006,0,0,0,12,8Zm5-8H7A2.006,2.006,0,0,0,5,2V16a2.006,2.006,0,0,0,2,2H17a2.006,2.006,0,0,0,2-2V2A2.006,2.006,0,0,0,17,0ZM7,2H17V12.5c0-1.67-3.33-2.5-5-2.5s-5,.83-5,2.5Z" transform="translate(709 4528)"/></g></svg>