<svg xmlns="http://www.w3.org/2000/svg" viewBox="0 0 60 60"><defs><style>.a,.d{fill:none;}.a{stroke:#efeff4;stroke-width:1.5px;}.b{fill:#00de6e;}.c{stroke:none;}</style></defs><g transform="translate(-691 -4510)"><g class="a" transform="translate(691 4510)"><rect class="c" width="60" height="60" rx="5"/><rect class="d" x="0.75" y="0.75" width="58.5" height="58.5" rx="4.25"/></g><path class="b" d="M22.13,13.452A4.226,4.226,0,1,0,17.9,9.226,4.208,4.208,0,0,0,22.13,13.452Zm-11.269,0A4.226,4.226,0,1,0,6.635,9.226,4.208,4.208,0,0,0,10.861,13.452Zm0,2.817C7.578,16.269,1,17.917,1,21.2v3.522H20.721V21.2C20.721,17.917,14.143,16.269,10.861,16.269Zm11.269,0c-.409,0-.873.028-1.366.07a5.944,5.944,0,0,1,2.775,4.86v3.522H31.99V21.2C31.99,17.917,25.412,16.269,22.13,16.269Z" transform="translate(704.504 4525.14)"/></g></svg>