<svg xmlns="http://www.w3.org/2000/svg" viewBox="0 0 60 60"><defs><style>.a,.d{fill:none;}.a{stroke:#efeff4;stroke-width:1.5px;}.b{fill:#00de6e;}.c{stroke:none;}</style></defs><g transform="translate(-415 -4128)"><g class="a" transform="translate(415 4128)"><rect class="c" width="60" height="60" rx="5"/><rect class="d" x="0.75" y="0.75" width="58.5" height="58.5" rx="4.25"/></g><path class="b" d="M27.978,3l-.228.043L20.128,6,11.564,3,3.514,5.712A.719.719,0,0,0,3,6.4V27.978a.707.707,0,0,0,.714.714l.228-.043,7.622-2.955,8.564,3,8.05-2.712a.719.719,0,0,0,.514-.685V3.714A.707.707,0,0,0,27.978,3Zm-7.85,22.837-8.564-3.012V5.855l8.564,3.012Z" transform="translate(429.154 4142.154)"/></g></svg>