<svg xmlns="http://www.w3.org/2000/svg" viewBox="0 0 60 60"><defs><style>.a,.d{fill:none;}.a{stroke:#efeff4;stroke-width:1.5px;}.b{fill:#00de6e;}.c{stroke:none;}</style></defs><g transform="translate(-967 -4510)"><g class="a" transform="translate(967 4510)"><rect class="c" width="60" height="60" rx="5"/><rect class="d" x="0.75" y="0.75" width="58.5" height="58.5" rx="4.25"/></g><path class="b" d="M15.23,5.211V1L9.615,6.615,15.23,12.23V8.019a8.43,8.43,0,0,1,8.423,8.423,8.241,8.241,0,0,1-.983,3.931l2.05,2.05A11.211,11.211,0,0,0,15.23,5.211Zm0,19.653a8.43,8.43,0,0,1-8.423-8.423,8.241,8.241,0,0,1,.983-3.931l-2.05-2.05a11.211,11.211,0,0,0,9.49,17.211v4.211l5.615-5.615L15.23,20.653Z" transform="translate(981.77 4523.559)"/></g></svg>