<svg xmlns="http://www.w3.org/2000/svg" viewBox="0 0 60 60"><defs><style>.a,.d{fill:none;}.a{stroke:#efeff4;stroke-width:1.5px;}.b{fill:#00de6e;}.c{stroke:none;}</style></defs><g transform="translate(-967 -4128)"><g class="a" transform="translate(967 4128)"><rect class="c" width="60" height="60" rx="5"/><rect class="d" x="0.75" y="0.75" width="58.5" height="58.5" rx="4.25"/></g><g transform="translate(982.867 4142.974)"><circle class="b" cx="2.427" cy="2.427" r="2.427" transform="translate(5.64 4.213)"/><path class="b" d="M13.1,13.92a5.829,5.829,0,0,1-.995-.874l-1.7-1.881a2.6,2.6,0,0,0-.837-.607,2.7,2.7,0,0,0-1.165-.279H8.37a2.734,2.734,0,0,0-2.73,2.73v.91H2v9.706a2.434,2.434,0,0,0,2.427,2.427H23.839a2.434,2.434,0,0,0,2.427-2.427V13.92ZM8.066,23.626H5.64v-7.28H8.066Zm4.853,0H10.493v-7.28H12.92Zm4.853,0H15.346v-7.28h2.427Zm4.853,0H20.2v-7.28h2.427ZM22.2,6.47l-.085-.085A3.065,3.065,0,0,1,21.3,3.716L21.413,3H19.119l-.073.522a5.209,5.209,0,0,0,1.577,4.513l.085.073a3.065,3.065,0,0,1,.813,2.669l-.133.716h2.317l.073-.522A5.14,5.14,0,0,0,22.2,6.47Zm-4.853,0-.085-.085a3.065,3.065,0,0,1-.813-2.669L16.559,3H14.266l-.073.522a5.209,5.209,0,0,0,1.577,4.513l.085.073a3.065,3.065,0,0,1,.813,2.669l-.133.716h2.317l.073-.522A5.14,5.14,0,0,0,17.348,6.47Z" transform="translate(0 0)"/></g></g></svg>