<svg xmlns="http://www.w3.org/2000/svg" viewBox="0 0 100.338 98.445"><defs><style>.a{fill:#48494a;}</style></defs><g transform="translate(0 -0.211)"><path class="a" d="M0,13.929V76.9H22.113a16.072,16.072,0,0,0,6.645,7.424V98.656l7.988-3.994,7.988,3.994V84.323A16.072,16.072,0,0,0,51.379,76.9H70.3V.211H13.717ZM12.781,5.666v7.327H5.454Zm28.758,87.82-4.793-2.4-4.793,2.4V85.748a15.966,15.966,0,0,0,9.586,0Zm-4.793-10.2A12.781,12.781,0,1,1,49.527,70.508,12.8,12.8,0,0,1,36.746,83.289ZM67.1,73.7H52.4a15.977,15.977,0,1,0-31.307,0H3.2V16.188H15.977V3.407H67.1Zm0,0"/><path class="a" d="M151.829,314.63,148.6,311.4l-2.259,2.259,6.36,6.36,8.981-17.959-2.86-1.428Zm0,0" transform="translate(-117.118 -240.428)"/><path class="a" d="M281.586,32.211H272V57.773h9.586Zm-3.2,22.367h-3.2V35.406h3.2Zm0,0" transform="translate(-217.68 -25.609)"/><path class="a" d="M217.586,64.211H208V83.383h9.586Zm-3.2,15.977h-3.2V67.406h3.2Zm0,0" transform="translate(-166.461 -51.218)"/><path class="a" d="M153.586,108.992V96.211H144v12.781ZM147.2,99.406h3.2V105.8h-3.2Zm0,0" transform="translate(-115.242 -76.828)"/><path class="a" d="M32,176.211h3.2v3.2H32Zm0,0" transform="translate(-25.609 -140.851)"/><path class="a" d="M64,176.211H89.562v3.2H64Zm0,0" transform="translate(-51.219 -140.851)"/><path class="a" d="M32,208.211h3.2v3.2H32Zm0,0" transform="translate(-25.609 -166.461)"/><path class="a" d="M64,208.211H89.562v3.2H64Zm0,0" transform="translate(-51.219 -166.461)"/><path class="a" d="M32,240.211h3.2v3.2H32Zm0,0" transform="translate(-25.609 -192.07)"/><path class="a" d="M64,240.211H89.562v3.2H64Zm0,0" transform="translate(-51.219 -192.07)"/><path class="a" d="M380.781,44.015l14.065-9.377-14.065-9.376v4.583h-6.391v3.2h9.586V31.233l5.107,3.4-5.107,3.405V36.235H368v3.2h12.781Zm0,0" transform="translate(-294.508 -20.048)"/><path class="a" d="M368,48.211h3.2v3.2H368Zm0,0" transform="translate(-294.508 -38.414)"/><path class="a" d="M380.781,149.845H368v3.2h15.977v-1.807l5.107,3.4-5.107,3.405v-1.807H368v3.2h12.781v4.584l14.065-9.377-14.065-9.376Zm0,0" transform="translate(-294.508 -116.083)"/><path class="a" d="M380.781,269.851H368v3.2h15.977v-1.808l5.107,3.406-5.107,3.407v-1.809h-9.586v3.2h6.391v4.582l14.065-9.375-14.065-9.375Zm0,0" transform="translate(-294.508 -212.124)"/><path class="a" d="M368,320.211h3.2v3.2H368Zm0,0" transform="translate(-294.508 -256.093)"/></g></svg>