<svg xmlns="http://www.w3.org/2000/svg" xmlns:xlink="http://www.w3.org/1999/xlink" viewBox="0 0 366.057 135.092">
  <defs>
    <style>
      .cls-1 {
        fill: #fff;
      }

      .cls-2 {
        fill: url(#linear-gradient);
      }
    </style>
    <linearGradient id="linear-gradient" y1="0.5" x2="1" y2="0.5" gradientUnits="objectBoundingBox">
      <stop offset="0" stop-color="#e7d16e"/>
      <stop offset="1" stop-color="#cca241"/>
    </linearGradient>
  </defs>
  <g id="moosh-logo" transform="translate(-139 -26.605)">
    <g id="Group_4" data-name="Group 4" transform="translate(139 26.605)">
      <g id="Group_3" data-name="Group 3" transform="translate(0 0.681)">
        <g id="Group_2" data-name="Group 2">
          <g id="Group_1" data-name="Group 1">
            <path id="Path_1" data-name="Path 1" class="cls-1" d="M39.152,45.442c.613,1.362,1.226,2.792,1.77,4.222.545-1.5,1.158-2.928,1.77-4.29s1.294-2.724,1.975-4.017L63.393,4.519a7.108,7.108,0,0,1,1.021-1.5,3.076,3.076,0,0,1,1.158-.749A3.664,3.664,0,0,1,67.07,2H81.845V74.789H67V32.913c0-2.043.068-4.222.272-6.6L48,63.758A6.337,6.337,0,0,1,42.08,67.3H39.765a6.337,6.337,0,0,1-5.924-3.541L14.5,26.24c.136,1.158.2,2.315.272,3.473s.068,2.179.068,3.2V74.789H0V2H14.776a3.664,3.664,0,0,1,1.5.272,3.076,3.076,0,0,1,1.158.749,5.673,5.673,0,0,1,1.021,1.5L37.246,41.493C37.927,42.786,38.539,44.08,39.152,45.442Z" transform="translate(0 -1.319)"/>
            <path id="Path_2" data-name="Path 2" class="cls-1" d="M402.693,16.457a5.1,5.1,0,0,1-1.566,1.77,3.379,3.379,0,0,1-2.111.613,5.31,5.31,0,0,1-2.451-.749c-.885-.477-1.907-1.021-3-1.634a22.134,22.134,0,0,0-3.813-1.634,15.448,15.448,0,0,0-4.9-.749c-3.2,0-5.515.681-7.081,2.043a6.864,6.864,0,0,0-2.315,5.447,5.087,5.087,0,0,0,1.43,3.677,12.5,12.5,0,0,0,3.677,2.519,37.654,37.654,0,0,0,5.175,1.907c1.907.613,3.881,1.294,5.924,1.975,2.043.749,4.017,1.566,5.992,2.519a18.789,18.789,0,0,1,5.175,3.677,18.265,18.265,0,0,1,3.677,5.447,19.04,19.04,0,0,1,1.43,7.762,25.7,25.7,0,0,1-1.77,9.465,21.758,21.758,0,0,1-5.107,7.694,25.011,25.011,0,0,1-8.171,5.175,31.329,31.329,0,0,1-11.1,1.907,35.278,35.278,0,0,1-6.945-.681,45.979,45.979,0,0,1-6.809-1.975,37.226,37.226,0,0,1-6.2-3,26.708,26.708,0,0,1-5.039-3.881l4.971-7.9a3.56,3.56,0,0,1,1.566-1.43,4.7,4.7,0,0,1,2.179-.545,5.742,5.742,0,0,1,3,.953c1.021.613,2.179,1.362,3.473,2.111a26.825,26.825,0,0,0,4.426,2.111,16.874,16.874,0,0,0,5.924.953q4.6,0,7.15-2.043c1.7-1.362,2.519-3.473,2.519-6.4a6.036,6.036,0,0,0-1.43-4.154,10.655,10.655,0,0,0-3.677-2.656,37.884,37.884,0,0,0-5.175-1.838c-1.906-.545-3.949-1.158-5.924-1.77a39.9,39.9,0,0,1-5.924-2.383A18.621,18.621,0,0,1,364.7,37.02a18.327,18.327,0,0,1-3.677-5.788,22.6,22.6,0,0,1-1.43-8.579,20.346,20.346,0,0,1,1.634-7.967,20.98,20.98,0,0,1,4.834-6.945,23.944,23.944,0,0,1,7.83-4.9A28.962,28.962,0,0,1,384.513,1a40.968,40.968,0,0,1,6.537.545,32.16,32.16,0,0,1,5.992,1.566,31.609,31.609,0,0,1,5.311,2.451,27.3,27.3,0,0,1,4.426,3.2Z" transform="translate(-113.852 -1)"/>
            <path id="Path_3" data-name="Path 3" class="cls-1" d="M507.765,74.789H490.742V44.012h-29.62V74.789H444.1V2h17.023V32.437h29.62V2h17.023Z" transform="translate(-141.708 -1.319)"/>
          </g>
        </g>
      </g>
      <path id="Path_4" data-name="Path 4" class="cls-2" d="M214.03,57.741A36.7,36.7,0,0,0,281.3,37.382C281.3,16.75,264.826,0,244.535,0a35.782,35.782,0,0,0-24.853,10.077l-.136.068a34.353,34.353,0,0,0-3.677,4.085,240.636,240.636,0,0,0-15.116,18.861,118.416,118.416,0,0,1-12.529,15.116c-.477.477-1.021,1.021-1.566,1.5-.545.545-1.158,1.089-1.771,1.7a21.76,21.76,0,0,1-14.3,5.175c-12.188,0-18.725-11.575-18.725-19.883,0-7.9,5.379-19.134,17.363-19.134s19.133,9.4,19.406,9.737h0l2.111,2.519L202.25,16.069C199.527,12.733,187.951,0,169.431,0A33.152,33.152,0,0,0,143.42,12.12,38.914,38.914,0,0,0,134.5,36.7a38.871,38.871,0,0,0,9.4,24.989,35.388,35.388,0,0,0,26.9,12.529A39.457,39.457,0,0,0,200.072,61.35l.068-.068a320.288,320.288,0,0,0,23.832-28.871l4.63-5.583a19.062,19.062,0,0,1,16-9.192c10.418,0,19.2,9.056,19.2,19.814A19.147,19.147,0,0,1,226.286,42.9Z" transform="translate(-42.918 0)"/>
    </g>
    <g id="Group_5" data-name="Group 5" transform="translate(327.068 124.247)">
      <path id="Path_5" data-name="Path 5" class="cls-1" d="M289.682,180.524H276.2V144.3h13.482c11.371,0,19.27,7.83,19.27,18.044C308.884,172.626,301.053,180.524,289.682,180.524Zm0-30.437h-7.149v24.649h7.149c7.626,0,12.6-5.107,12.6-12.256S297.24,150.088,289.682,150.088Z" transform="translate(-276.2 -143.687)"/>
      <path id="Path_6" data-name="Path 6" class="cls-1" d="M334.8,144.3v36.224h-6.4V144.3Z" transform="translate(-292.857 -143.687)"/>
      <path id="Path_7" data-name="Path 7" class="cls-1" d="M360.893,180.85c-11.371,0-18.793-8.1-18.793-18.657A18.457,18.457,0,0,1,360.757,143.4c6.332,0,10.214,1.77,13.958,4.9l-4.017,4.834a14.138,14.138,0,0,0-10.145-3.881c-6.673,0-11.78,5.788-11.78,12.869,0,7.49,4.9,13.005,12.324,13.005a15.13,15.13,0,0,0,8.784-2.724V165.6h-9.26v-5.515h15.457v15.252A24.048,24.048,0,0,1,360.893,180.85Z" transform="translate(-297.228 -143.4)"/>
      <path id="Path_8" data-name="Path 8" class="cls-1" d="M403.333,144.3v36.224H397V144.3Z" transform="translate(-314.746 -143.687)"/>
      <path id="Path_9" data-name="Path 9" class="cls-1" d="M427.076,180.493h-6.469V150.124H409.1V144.2h29.415v5.924H427.008v30.369Z" transform="translate(-318.607 -143.655)"/>
      <path id="Path_10" data-name="Path 10" class="cls-1" d="M480.958,180.4h-6.741l-3.677-8.784H453.382l-3.745,8.784H443.1l15.933-36.5h5.924Zm-19-28.871-6.2,14.5h12.461Z" transform="translate(-329.456 -143.56)"/>
      <path id="Path_11" data-name="Path 11" class="cls-1" d="M500.2,144.3h6.4v30.437h19.066v5.788h-25.4V144.3Z" transform="translate(-347.677 -143.687)"/>
    </g>
  </g>
</svg>
