<svg xmlns="http://www.w3.org/2000/svg" viewBox="0 0 1088 253.627"><defs><style>.a{opacity:0.7;}.b{opacity:0.2;}.c{fill:#705522;}.d{fill:#6dccde;}.e{fill:#69c290;}.f{fill:#fec130;}.g{fill:#f69986;}.h{fill:#98d7dc;}.i{opacity:0.5;}.j{opacity:0.3;}</style></defs><g class="a"><g class="b" transform="translate(644.703 38.884)"><path class="c" d="M1080.271,596.4c-1.9-13.709-14.793-7.911-13.276-21.729,1.246-11.325,21.675-11.813,31.591-6.34s16.635,17.719,11.379,33.867C1105.685,615.527,1082.764,614.443,1080.271,596.4Z" transform="translate(-1066.872 -564.935)"/></g><g class="b" transform="translate(1024.087 62.096)"><path class="d" d="M1276.935,624.558c19.724-9.049,16.473-17.069,31.808-17.773,16.96-.813,22.325,26.281,10.187,45.138-11.217,17.394-29.207,24.818-44.487,17.177C1256.561,660.159,1257.32,633.553,1276.935,624.558Z" transform="translate(-1261.601 -606.767)"/></g><g class="b" transform="translate(274.5 224.226)"><path class="e" d="M879.989,915.09c-5.961,4.66-1.842,11.813-9.754,12.246a9.068,9.068,0,0,1-9.374-12.138c1.951-5.473,5.039-11.488,12.788-13.547C882.969,899.105,887.846,908.967,879.989,915.09Z" transform="translate(-860.341 -901.241)"/></g><g transform="translate(280.917 175.79)"><path class="e" d="M874.6,813.7a7.8,7.8,0,1,0,7.8,7.8A7.8,7.8,0,0,0,874.6,813.7Zm0,11.6A3.793,3.793,0,1,1,878.4,821.5,3.77,3.77,0,0,1,874.6,825.3Z" transform="translate(-866.8 -813.7)"/></g><g transform="translate(429.347 110.079)"><path class="d" d="M965.353,694.4a7.153,7.153,0,1,0,7.153,7.153A7.146,7.146,0,0,0,965.353,694.4Zm0,10.675a3.522,3.522,0,1,1,3.522-3.522A3.586,3.586,0,0,1,965.353,705.075Z" transform="translate(-958.2 -694.4)"/></g><g transform="translate(302.359 228.485)"><path class="f" d="M886.234,909.1a2.727,2.727,0,1,0,3.034,2.709A2.87,2.87,0,0,0,886.234,909.1Zm0,4.01a1.31,1.31,0,1,1,1.463-1.3A1.4,1.4,0,0,1,886.234,913.11Z" transform="translate(-883.2 -909.1)"/></g><g transform="translate(254.503 113.348)"><path class="g" d="M858.7,700.3a8.4,8.4,0,1,0,8.4,8.4A8.406,8.406,0,0,0,858.7,700.3Zm0,12.571a4.118,4.118,0,1,1,4.118-4.118A4.116,4.116,0,0,1,858.7,712.871Z" transform="translate(-850.3 -700.3)"/></g><g transform="translate(412.054 239.322)"><path class="f" d="M954.753,929.1a7.153,7.153,0,1,0,7.153,7.153A7.146,7.146,0,0,0,954.753,929.1Zm0,10.621a3.522,3.522,0,1,1,3.522-3.522A3.515,3.515,0,0,1,954.753,939.721Z" transform="translate(-947.6 -929.1)"/></g><g transform="translate(40.622 237.751)"><path class="h" d="M776.177,926.2a6.177,6.177,0,1,0,6.177,6.177A6.175,6.175,0,0,0,776.177,926.2Zm0,9.266a3.034,3.034,0,1,1,3.034-3.034A3.029,3.029,0,0,1,776.177,935.466Z" transform="translate(-770 -926.2)"/></g><g transform="translate(15.642 84.298)"><path class="f" d="M734.846,647.5a10.946,10.946,0,1,0,10.946,10.946A10.95,10.95,0,0,0,734.846,647.5Zm0,16.364a5.365,5.365,0,1,1,5.365-5.365A5.342,5.342,0,0,1,734.846,663.864Z" transform="translate(-723.9 -647.5)"/></g><g transform="translate(115.807 195.2)"><path class="c" d="M808.6,858.429,818.679,849l3.631,13.276Z" transform="translate(-808.6 -849)"/></g><g transform="translate(366.514 146.042)"><path class="f" d="M930.778,759.8l-1.517,9L922,763.322Z" transform="translate(-922 -759.8)"/></g><g transform="translate(54.592 35.165)"><path class="g" d="M803.865,570.073a.874.874,0,0,1-.488-.163l-7.261-5.527a.833.833,0,0,1-.325-.759.864.864,0,0,1,.488-.65l8.778-3.522a.864.864,0,0,1,.813.108.8.8,0,0,1,.271.759l-1.517,9.049a.7.7,0,0,1-.488.6A.413.413,0,0,1,803.865,570.073Zm-5.635-6.123,5.039,3.847,1.03-6.286Z" transform="translate(-795.781 -559.396)"/></g><g transform="translate(496.014 47.248)"><path class="e" d="M1013.718,592.221l-15.118,2.6,4.714-14.522Z" transform="translate(-998.6 -580.3)"/></g><g transform="translate(54.616 80.957)"><path class="h" d="M798.467,647.019c3.468,0,3.468-5.419,0-5.419-3.522,0-3.522,5.419,0,5.419Z" transform="translate(-795.825 -641.6)"/></g><g transform="translate(398.947 72.591)"><path class="f" d="M946.3,631.819c3.468,0,3.468-5.419,0-5.419s-3.468,5.419,0,5.419Z" transform="translate(-943.7 -626.4)"/></g><g transform="translate(297.293 58.998)"><path class="c" d="M882.967,607.119c3.468,0,3.468-5.419,0-5.419-3.522,0-3.522,5.419,0,5.419Z" transform="translate(-880.325 -601.7)"/></g><g transform="translate(506.194 147.935)"><path class="g" d="M1013.167,768.719c3.468,0,3.468-5.419,0-5.419-3.522,0-3.522,5.419,0,5.419Z" transform="translate(-1010.525 -763.3)"/></g><g transform="translate(2.488 43.512)"><path class="g" d="M702.267,580.219c3.468,0,3.468-5.419,0-5.419-3.522,0-3.522,5.419,0,5.419Z" transform="translate(-699.625 -574.8)"/></g><g transform="translate(20.207 160.237)"><path class="g" d="M738.868,799.047c8.724,0,8.724-13.547,0-13.547s-8.724,13.547,0,13.547Z" transform="translate(-732.325 -785.5)"/></g><g transform="translate(531.906 93.505)"><path class="c" d="M1029.184,669.819c3.468,0,3.468-5.419,0-5.419s-3.522,5.419,0,5.419Z" transform="translate(-1026.563 -664.4)"/></g><g transform="translate(674.853 54.128)"><path class="f" d="M1116.168,606.347c8.724,0,8.724-13.547,0-13.547s-8.724,13.547,0,13.547Z" transform="translate(-1109.625 -592.8)"/></g><g class="b" transform="translate(0 134.156)"><path class="g" d="M740.315,785.328c-19.724,9.049-11.325,22.65-26.606,23.409-16.96.813-24.98-30.453-12.842-49.31,11.217-17.394,31.049-26.931,46.98-20.591C769.956,747.669,759.931,776.333,740.315,785.328Z" transform="translate(-695.033 -736.868)"/></g><g transform="translate(23.77 7.261)"><path class="e" d="M743.506,507.9a4.606,4.606,0,1,0,4.606,4.606A4.6,4.6,0,0,0,743.506,507.9Zm0,6.882a2.276,2.276,0,1,1,2.276-2.276A2.364,2.364,0,0,1,743.506,514.782Z" transform="translate(-738.9 -507.9)"/></g><g class="b" transform="translate(257.812 1.4)"><path class="f" d="M860.672,529.442c-4.877-12.951-16.2-4.443-17.719-18.315-1.246-11.325,18.532-16.256,29.423-13.113s21.675,14.089,16.96,30.4S867.066,546.511,860.672,529.442Z" transform="translate(-842.896 -497.083)"/></g><g class="i" transform="translate(318.138 15.443)"><path class="d" d="M896.668,533.837c6.99,0,6.99-10.837,0-10.837s-6.99,10.837,0,10.837Z" transform="translate(-929.425 -524)"/></g><g class="b" transform="translate(829.093 3.395)"><path class="e" d="M1197.715,513.627c6.123-4.877,1.9-12.409,10.025-12.842,7.911-.433,11.65,6.936,9.645,12.734-2,5.744-5.148,12.029-13.167,14.2C1194.68,530.371,1189.7,520.021,1197.715,513.627Z" transform="translate(-1193.711 -500.766)"/></g><g transform="translate(829.12 63.663)"><path class="e" d="M1209.8,625.706a7.8,7.8,0,1,0-7.8-7.8A7.8,7.8,0,0,0,1209.8,625.706Zm0-11.6a3.793,3.793,0,1,1-3.793,3.793A3.77,3.77,0,0,1,1209.8,614.11Z" transform="translate(-1202 -610.1)"/></g><g transform="translate(739.326 146.259)"><path class="g" d="M1155.353,774.405a7.153,7.153,0,1,0-7.153-7.153A7.146,7.146,0,0,0,1155.353,774.405Zm0-10.621a3.522,3.522,0,1,1-3.522,3.522A3.515,3.515,0,0,1,1155.353,763.785Z" transform="translate(-1148.2 -760.1)"/></g><g transform="translate(817.039 20.645)"><path class="f" d="M1206.489,538.235a2.935,2.935,0,0,0,3.089-2.818,3.1,3.1,0,1,0-3.089,2.818Zm0-4.172a1.427,1.427,0,0,1,1.517,1.409,1.5,1.5,0,0,1-1.517,1.409,1.427,1.427,0,0,1-1.517-1.409A1.459,1.459,0,0,1,1206.489,534.063Z" transform="translate(-1203.4 -532.6)"/></g><g transform="translate(870.817 133.781)"><path class="c" d="M1234.7,754.2a8.4,8.4,0,1,0-8.4-8.4A8.406,8.406,0,0,0,1234.7,754.2Zm0-12.571a4.118,4.118,0,1,1-4.118,4.118A4.116,4.116,0,0,1,1234.7,741.627Z" transform="translate(-1226.3 -737.4)"/></g><g transform="translate(505.455)"><path class="g" d="M1011.8,511.3a8.4,8.4,0,1,0-8.4-8.4A8.406,8.406,0,0,0,1011.8,511.3Zm0-12.517a4.118,4.118,0,1,1-4.118,4.118A4.116,4.116,0,0,1,1011.8,498.781Z" transform="translate(-1003.4 -494.5)"/></g><g transform="translate(699.028 1.409)"><path class="f" d="M1130.653,511.405a7.153,7.153,0,1,0-7.153-7.153A7.146,7.146,0,0,0,1130.653,511.405Zm0-10.675a3.522,3.522,0,1,1-3.522,3.522A3.586,3.586,0,0,1,1130.653,500.73Z" transform="translate(-1123.5 -497.1)"/></g><g transform="translate(1051.505 9.537)"><path class="h" d="M1318.377,524.455a6.177,6.177,0,1,0-6.177-6.177A6.175,6.175,0,0,0,1318.377,524.455Zm0-9.212a3.034,3.034,0,1,1-3.034,3.034A3.029,3.029,0,0,1,1318.377,515.243Z" transform="translate(-1312.2 -512.1)"/></g><g transform="translate(1060.988 165.014)"><path class="e" d="M1340.646,815.891a10.946,10.946,0,1,0-10.946-10.946A10.95,10.95,0,0,0,1340.646,815.891Zm0-16.364a5.365,5.365,0,1,1-5.365,5.365A5.342,5.342,0,0,1,1340.646,799.527Z" transform="translate(-1329.7 -794)"/></g><g transform="translate(1024.392 45.743)"><path class="c" d="M1266.573,592.485a.326.326,0,0,1-.217-.054.7.7,0,0,1-.542-.542l-3.63-13.276a.907.907,0,0,1,.217-.813.868.868,0,0,1,.813-.217l13.763,3.847a.932.932,0,0,1,.6.6.907.907,0,0,1-.217.813l-10.133,9.428A1.541,1.541,0,0,1,1266.573,592.485Zm-2.438-12.951,2.926,10.566,8.074-7.532Z" transform="translate(-1262.164 -577.564)"/></g><g transform="translate(749.801 99.967)"><path class="f" d="M1159.4,685.149l1.463-9.049,7.261,5.527Z" transform="translate(-1159.4 -676.1)"/></g><g transform="translate(1035.506 209.246)"><path class="g" d="M1283.447,884.219a.756.756,0,0,1-.488-.163.8.8,0,0,1-.271-.759l1.517-9.049a.7.7,0,0,1,.488-.6.884.884,0,0,1,.813.108l7.261,5.527a.833.833,0,0,1,.325.759.864.864,0,0,1-.488.65l-8.778,3.522A.805.805,0,0,0,1283.447,884.219Zm2.059-8.4-1.03,6.286,6.123-2.438Z" transform="translate(-1282.674 -873.596)"/></g><g transform="translate(621.875 164.241)"><path class="f" d="M1079.273,809.715a.326.326,0,0,1-.217-.054.852.852,0,0,1-.542-.6l-3.63-15.389a.769.769,0,0,1,.217-.759.757.757,0,0,1,.813-.163l14.576,4.768a.852.852,0,0,1,.542.6.8.8,0,0,1-.217.759L1079.869,809.5A1.136,1.136,0,0,1,1079.273,809.715Zm-2.547-15.01,2.98,12.571,8.941-8.724Z" transform="translate(-1074.864 -792.7)"/></g><g transform="translate(1040.559 168.628)"><path class="h" d="M1294.6,806.319c3.468,0,3.468-5.419,0-5.419s-3.468,5.419,0,5.419Z" transform="translate(-1292 -800.9)"/></g><g transform="translate(686.856 204.318)"><path class="f" d="M1125.767,869.919c3.468,0,3.468-5.419,0-5.419-3.522,0-3.522,5.419,0,5.419Z" transform="translate(-1123.125 -864.5)"/></g><g transform="translate(1.879 229.135)"><path class="f" d="M701.1,915.719c3.468,0,3.468-5.419,0-5.419s-3.468,5.419,0,5.419Z" transform="translate(-698.5 -910.3)"/></g><g transform="translate(632.342 243.766)"><path class="h" d="M1091.784,942.719c3.468,0,3.468-5.419,0-5.419s-3.522,5.419,0,5.419Z" transform="translate(-1089.162 -937.3)"/></g><g transform="translate(822.303 190.587)"><path class="c" d="M1210.184,846.219c3.468,0,3.468-5.419,0-5.419s-3.522,5.419,0,5.419Z" transform="translate(-1207.563 -840.8)"/></g><g transform="translate(620.988 116.51)"><path class="e" d="M1084.7,711.619c3.468,0,3.468-5.419,0-5.419s-3.468,5.419,0,5.419Z" transform="translate(-1082.1 -706.2)"/></g><g transform="translate(1048.714 94.563)"><path class="d" d="M1314.934,682.456c10.458,0,10.458-16.256,0-16.256-10.512,0-10.512,16.256,0,16.256Z" transform="translate(-1307.05 -666.2)"/></g><g transform="translate(567.082 211.362)"><path class="c" d="M1051.1,882.919c3.468,0,3.468-5.419,0-5.419s-3.468,5.419,0,5.419Z" transform="translate(-1048.5 -877.5)"/></g><g class="j" transform="translate(432.99 192.911)"><path class="e" d="M967.568,855.737c6.99,0,6.99-10.837,0-10.837s-6.99,10.837,0,10.837Z" transform="translate(-962.325 -844.9)"/></g><g class="b" transform="translate(408.204 172.782)"><path class="e" d="M947.826,814.775c13.6,2.547,12.192-11.542,24.818-5.69,10.35,4.768,4.335,24.276-3.956,31.97s-22.054,10.133-35.763.108C921.6,832.765,929.89,811.416,947.826,814.775Z" transform="translate(-927.75 -807.649)"/></g><g transform="translate(1063.047 232.82)"><path class="f" d="M1338.106,926.312a4.606,4.606,0,1,0-4.606-4.606A4.6,4.6,0,0,0,1338.106,926.312Zm0-6.882a2.276,2.276,0,1,1-2.276,2.276A2.289,2.289,0,0,1,1338.106,919.43Z" transform="translate(-1333.5 -917.1)"/></g><g class="b" transform="translate(822.742 209.22)"><path class="f" d="M1196.7,885.551c4.877,12.951,16.2,4.443,17.719,18.315,1.246,11.325-18.532,16.256-29.423,13.113s-21.675-14.089-16.961-30.4S1190.31,868.537,1196.7,885.551Z" transform="translate(-1166.902 -873.548)"/></g><g class="i" transform="translate(796.499 228.756)"><path class="d" d="M1191.968,920.437c6.99,0,6.99-10.837,0-10.837s-6.99,10.837,0,10.837Z" transform="translate(-1186.725 -909.6)"/></g></g></svg>