<svg xmlns="http://www.w3.org/2000/svg" viewBox="0 0 104.025 104.026"><defs><style>.a{fill:#48494a;}</style></defs><g transform="translate(0 0)"><path class="a" d="M98.992,63.758H77.18V53.691H90.6a5.04,5.04,0,0,0,5.034-5.034V41.946A5.04,5.04,0,0,0,90.6,36.912H77.18V14.405L62.775,0H10.067V13.422h3.356V3.355H60.4V16.778H73.825V50.335H60.4a5.04,5.04,0,0,0-5.034,5.034V60.4H52.013a5.04,5.04,0,0,0-5.034,5.034v1.678H25.167a5.04,5.04,0,0,0-5.034,5.034v1.678H13.422V36.912h23.49V10.067H26.845v23.49H23.489V16.778H13.422V33.556H10.067V23.489H0V36.912H10.067V77.18H20.134V98.992a5.04,5.04,0,0,0,5.034,5.034H98.992a5.04,5.04,0,0,0,5.034-5.034v-30.2a5.04,5.04,0,0,0-5.034-5.034ZM30.2,13.422h3.356V33.556H30.2ZM16.778,20.134h3.356V33.556H16.778ZM6.711,33.556H3.355V26.845H6.711ZM63.758,5.728l7.694,7.694H63.758ZM77.18,40.268H90.6a1.681,1.681,0,0,1,1.678,1.678v6.711A1.681,1.681,0,0,1,90.6,50.335H77.18Zm-18.456,15.1A1.681,1.681,0,0,1,60.4,53.691H73.825V63.873a5.015,5.015,0,0,0-1.777.73l-3.765,2.51H67.113V65.436A5.04,5.04,0,0,0,62.08,60.4H58.724ZM50.335,65.436a1.681,1.681,0,0,1,1.678-1.678H62.08a1.681,1.681,0,0,1,1.678,1.678v1.678H50.335ZM100.67,98.992a1.681,1.681,0,0,1-1.678,1.678H25.167a1.681,1.681,0,0,1-1.678-1.678V72.147a1.681,1.681,0,0,1,1.678-1.678H69.3L73.912,67.4a1.663,1.663,0,0,1,.928-.282H98.992a1.681,1.681,0,0,1,1.678,1.678Zm0,0"/><path class="a" d="M128,375.49h43.624V352H128Zm3.356-6.711h6.711v3.356h-6.711Zm26.846-3.356H151.49v-3.356H158.2Zm3.356-3.356h6.711v3.356h-6.711Zm-3.356,6.711v3.356H141.423v-3.356Zm-6.711-10.067v-3.356H158.2v3.356Zm-3.356,0h-6.711v-3.356h6.711Zm0,3.356v3.356h-6.711v-3.356Zm-10.067,3.356h-6.711v-3.356h6.711Zm23.49,6.711v-3.356h6.711v3.356Zm6.711-13.423h-6.711v-3.356h6.711Zm-30.2-3.356v3.356h-6.711v-3.356Zm0,0" transform="translate(-101.155 -278.175)"/><path class="a" d="M352,375.49h23.49V352H352Zm3.356-6.711h3.356v3.356h-3.356Zm10.067-6.711v3.356h-3.356v-3.356Zm-3.356-3.356v-3.356h3.356v3.356Zm6.711,3.356h3.356v3.356h-3.356Zm-3.356,6.711v3.356h-3.356v-3.356Zm-6.711-3.356h-3.356v-3.356h3.356Zm10.067,6.711v-3.356h3.356v3.356Zm3.356-13.423h-3.356v-3.356h3.356Zm-13.423-3.356v3.356h-3.356v-3.356Zm0,0" transform="translate(-278.175 -278.175)"/><path class="a" d="M110.2,159.1a5,5,0,0,0-3.948,1.95l-6.129-2.044a5.029,5.029,0,1,0-9.21,2.881l-4.39,5.854a4.939,4.939,0,0,0-1.49-.251,5.044,5.044,0,1,0,4.186,2.246l4.39-5.854a4.946,4.946,0,0,0,1.49.252,5.005,5.005,0,0,0,3.948-1.95l6.129,2.044a5.029,5.029,0,0,0,10.057-.094,4.977,4.977,0,0,0-.314-1.693l11.143-9.116a4.979,4.979,0,0,0,2.594.741,5.034,5.034,0,1,0-5.034-5.034,4.985,4.985,0,0,0,.314,1.693l-11.143,9.116A4.979,4.979,0,0,0,110.2,159.1ZM85.034,174.2a1.678,1.678,0,1,1,1.678-1.678A1.681,1.681,0,0,1,85.034,174.2ZM95.1,160.778a1.678,1.678,0,1,1,1.678-1.678A1.681,1.681,0,0,1,95.1,160.778Zm15.1,5.034a1.678,1.678,0,1,1,1.678-1.678A1.681,1.681,0,0,1,110.2,165.812Zm18.456-18.456a1.678,1.678,0,1,1-1.678,1.678A1.681,1.681,0,0,1,128.657,147.356Zm0,0" transform="translate(-63.222 -113.799)"/></g></svg>