<svg xmlns="http://www.w3.org/2000/svg" xmlns:xlink="http://www.w3.org/1999/xlink" viewBox="0 0 137.715 137.715"><defs><style>.a{opacity:0.3;}.b{fill:#393a3c;}.c{filter:url(#a);}</style><filter id="a" x="0" y="0" width="137.715" height="137.715" filterUnits="userSpaceOnUse"><feOffset dy="3" input="SourceAlpha"/><feGaussianBlur stdDeviation="3" result="b"/><feFlood flood-opacity="0.161"/><feComposite operator="in" in2="b"/><feComposite in="SourceGraphic"/></filter></defs><g class="a" transform="translate(9 6)"><g class="c" transform="matrix(1, 0, 0, 1, -9, -6)"><path class="b" d="M101.01,0h-82.3A18.76,18.76,0,0,0,0,18.706v82.3a18.76,18.76,0,0,0,18.706,18.705h82.3a18.76,18.76,0,0,0,18.705-18.705v-82.3A18.76,18.76,0,0,0,101.01,0Zm11.223,101.01a11.236,11.236,0,0,1-11.223,11.223h-82.3A11.236,11.236,0,0,1,7.482,101.01v-82.3A11.236,11.236,0,0,1,18.706,7.482h82.3a11.236,11.236,0,0,1,11.223,11.223v82.3Z" transform="translate(9 6)"/></g><rect class="b" width="54.538" height="54.538" transform="translate(32.588 32.588)"/></g></svg>