<svg xmlns="http://www.w3.org/2000/svg" viewBox="0 0 99.924 100.877"><defs><style>.a{fill:#48494a;}</style></defs><path class="a" d="M188.3,197.287a14.643,14.643,0,1,0-14.643-14.643A14.66,14.66,0,0,0,188.3,197.287Zm0-26.033a11.389,11.389,0,1,1-11.389,11.389A11.4,11.4,0,0,1,188.3,171.254Zm0,0" transform="translate(-138.338 -133.832)"/><path class="a" d="M213.791,216.27a8.135,8.135,0,1,0-8.135-8.135A8.145,8.145,0,0,0,213.791,216.27Zm0-13.016a4.881,4.881,0,1,1-4.881,4.881A4.887,4.887,0,0,1,213.791,203.254Zm0,0" transform="translate(-163.83 -159.324)"/><path class="a" d="M136.5,138.033H125.111V131.9l-6.4-1.689q-.1-.263-.219-.527l3.332-5.721-8.675-8.675-5.721,3.332c-.174-.075-.351-.148-.527-.219l-1.686-6.4H92.944l-1.687,6.4c-.176.07-.353.143-.527.219l-5.721-3.332-8.675,8.675,3.332,5.721q-.114.263-.219.527l-6.4,1.687v6.136H61.656v15.514l29.287,19.525V190.1h16.27V173.071L136.5,153.547Zm-60.2-3.627,5.622-1.484.286-.814a18.07,18.07,0,0,1,.753-1.812l.373-.778-2.927-5.026,5.128-5.131,5.028,2.929.779-.374a17.414,17.414,0,0,1,1.811-.752l.815-.286,1.484-5.625h7.255l1.482,5.622.815.286a18.319,18.319,0,0,1,1.811.752l.779.375,5.027-2.929,5.129,5.13-2.928,5.027.373.778a18.2,18.2,0,0,1,.754,1.812l.286.814,5.622,1.487v7.255l-5.622,1.484-.286.814a17.894,17.894,0,0,1-.754,1.812l-.373.778,2.928,5.027-5.129,5.13-5.027-2.929-.779.374A17.409,17.409,0,0,1,105,154.9l-.815.286-1.484,5.623H95.45l-1.482-5.622-.815-.286a18.313,18.313,0,0,1-1.811-.752l-.779-.375-5.028,2.929-5.128-5.13,2.927-5.027-.373-.778a18.386,18.386,0,0,1-.753-1.812l-.286-.814L76.3,141.659Zm56.947,17.4L103.959,171.33v15.514H94.2V171.33L64.91,151.805V141.287h8.135v2.882l6.4,1.689q.1.263.219.527L76.333,152.1l8.675,8.675,5.721-3.332c.174.075.351.148.527.219l1.686,6.4h12.27l1.687-6.4c.176-.07.353-.143.527-.219l5.721,3.332,8.675-8.675-3.332-5.721q.114-.263.219-.527l6.4-1.687v-2.882h8.135Zm0,0" transform="translate(-49.116 -89.221)"/><path class="a" d="M45.206,46.981l1.579-2.846a11.386,11.386,0,0,1,4.19-21.272l1.256-.145.169-1.253a9.721,9.721,0,0,1,12.977-7.857l1.332.484.661-1.254a17.878,17.878,0,0,1,33.53,5.727l.255,1.772,1.74-.425a12.968,12.968,0,0,1,16.112,12.629,12.949,12.949,0,0,1-7.232,11.664l1.449,2.914a16.268,16.268,0,0,0-9.417-30.692,21.13,21.13,0,0,0-38.65-6.283,12.824,12.824,0,0,0-3.1-.382A13.054,13.054,0,0,0,49.4,19.821a14.641,14.641,0,0,0-4.191,27.16Zm0,0" transform="translate(-29.997)"/><path class="a" d="M0,316.346l2.3,2.3,3.731-3.731v15.6H9.286v-15.6l3.731,3.731,2.3-2.3-7.659-7.659Zm0,0" transform="translate(0 -245.907)"/><path class="a" d="M29.656,432H32.91v3.254H29.656Zm0,0" transform="translate(-23.625 -344.14)"/><path class="a" d="M29.656,464H32.91v3.254H29.656Zm0,0" transform="translate(-23.625 -369.631)"/><path class="a" d="M429.016,395.866l-3.731,3.731V384h-3.254v15.6l-3.731-3.731-2.3,2.3,7.659,7.659,7.659-7.659Zm0,0" transform="translate(-331.394 -305.902)"/><path class="a" d="M445.656,352h3.254v3.254h-3.254Zm0,0" transform="translate(-355.018 -280.41)"/><path class="a" d="M445.656,320h3.254v3.254h-3.254Zm0,0" transform="translate(-355.018 -254.918)"/><path class="a" d="M69.656,136.135H72.91a4.887,4.887,0,0,1,4.881-4.881V128A8.145,8.145,0,0,0,69.656,136.135Zm0,0" transform="translate(-55.49 -101.967)"/><path class="a" d="M210.742,36.316l2.3,2.3a11.4,11.4,0,0,1,16.108,0l2.3-2.3a14.66,14.66,0,0,0-20.709,0Zm0,0" transform="translate(-167.881 -25.519)"/><path class="a" d="M373.656,112v3.254a6.515,6.515,0,0,1,6.508,6.508h3.254A9.772,9.772,0,0,0,373.656,112Zm0,0" transform="translate(-297.662 -89.221)"/></svg>