<svg xmlns="http://www.w3.org/2000/svg" viewBox="0 0 106.623 99.744"><defs><style>.a{fill:#48494a;}</style></defs><g transform="translate(0 -0.5)"><path class="a" d="M106.623,86.486V.5H0V86.486H25.084l-3.957,3.957a5.077,5.077,0,0,0-2.21-.517,5.159,5.159,0,1,0,5.159,5.159,5.077,5.077,0,0,0-.517-2.21L38.718,77.715l-2.432-2.432-7.763,7.763H3.439V17.7h99.744v65.35H78.1l-7.765-7.765L67.9,77.714,83.062,92.873a5.113,5.113,0,0,0-.516,2.212,5.159,5.159,0,1,0,5.159-5.159,5.077,5.077,0,0,0-2.21.517l-3.957-3.957ZM18.917,96.8a1.72,1.72,0,1,1,1.72-1.72A1.722,1.722,0,0,1,18.917,96.8ZM3.439,14.258V3.939h99.744V14.258ZM89.426,95.085a1.72,1.72,0,1,1-1.72-1.72A1.722,1.722,0,0,1,89.426,95.085Zm0,0"/><path class="a" d="M32,32.5h3.439v3.439H32Zm0,0" transform="translate(-25.121 -25.121)"/><path class="a" d="M64,32.5h3.439v3.439H64Zm0,0" transform="translate(-50.242 -25.121)"/><path class="a" d="M96,32.5h3.439v3.439H96Zm0,0" transform="translate(-75.363 -25.121)"/><path class="a" d="M193.611,217.5l4.224-1.407v-9.358l-4.224-1.407,1.992-3.981-6.618-6.618L185,196.726,183.6,192.5h-9.358l-1.407,4.224-3.981-1.992-6.618,6.618,1.992,3.981L160,206.738V216.1l4.224,1.407-1.992,3.981,6.618,6.618,3.979-1.99,1.408,4.224H183.6L185,226.112l3.979,1.99,6.618-6.618Zm-5.305,6.415-3.718-1.859-.745.333c-.215.1-.432.181-.652.267l-.758.291-1.316,3.945h-4.4L175.4,222.95l-.758-.291c-.22-.086-.439-.172-.652-.267l-.744-.333-3.718,1.859-3.111-3.111,1.859-3.718-.333-.744c-.095-.212-.181-.427-.264-.645l-.289-.766-3.95-1.318v-4.4l3.952-1.318.289-.766c.083-.218.169-.433.264-.645l.333-.744-1.859-3.718,3.111-3.111,3.718,1.859.745-.333c.212-.1.43-.181.647-.265l.763-.289,1.316-3.947h4.4l1.318,3.948.764.289c.218.083.435.169.647.265l.744.333,3.718-1.859,3.111,3.111-1.859,3.718.333.744c.095.212.181.427.264.645l.289.766,3.948,1.318v4.4l-3.952,1.318-.289.766c-.083.218-.169.433-.264.645l-.333.744,1.859,3.718Zm0,0" transform="translate(-125.606 -150.727)"/><path class="a" d="M216.6,240.5a8.6,8.6,0,1,0,8.6,8.6A8.609,8.609,0,0,0,216.6,240.5Zm0,13.758a5.159,5.159,0,1,1,5.159-5.159A5.166,5.166,0,0,1,216.6,254.258Zm0,0" transform="translate(-163.287 -188.408)"/><path class="a" d="M88.962,119.031,73.8,103.871a5.112,5.112,0,0,0,.516-2.212,5.159,5.159,0,1,0-5.159,5.159,5.077,5.077,0,0,0,2.21-.517l15.159,15.159ZM67.439,101.66a1.72,1.72,0,1,1,1.72,1.72A1.723,1.723,0,0,1,67.439,101.66Zm0,0" transform="translate(-50.242 -75.364)"/><path class="a" d="M318.316,121.462,333.476,106.3a5.112,5.112,0,0,0,2.212.516,5.159,5.159,0,1,0-5.159-5.159,5.077,5.077,0,0,0,.517,2.21l-15.159,15.159Zm17.371-21.523a1.72,1.72,0,1,1-1.72,1.72A1.723,1.723,0,0,1,335.688,99.939Zm0,0" transform="translate(-247.982 -75.363)"/><path class="a" d="M32,176.5H49.2v3.439H32Zm0,0" transform="translate(-25.121 -138.166)"/><path class="a" d="M32,208.5H49.2v3.439H32Zm0,0" transform="translate(-25.121 -163.287)"/><path class="a" d="M32,240.5H49.2v3.439H32Zm0,0" transform="translate(-25.121 -188.408)"/><path class="a" d="M32,272.5H49.2v3.439H32Zm0,0" transform="translate(-25.121 -213.529)"/><path class="a" d="M32,304.5H49.2v3.439H32Zm0,0" transform="translate(-25.121 -238.65)"/><path class="a" d="M384,176.5h17.2v3.439H384Zm0,0" transform="translate(-301.453 -138.166)"/><path class="a" d="M384,208.5h17.2v3.439H384Zm0,0" transform="translate(-301.453 -163.287)"/><path class="a" d="M384,240.5h17.2v3.439H384Zm0,0" transform="translate(-301.453 -188.408)"/><path class="a" d="M384,272.5h17.2v3.439H384Zm0,0" transform="translate(-301.453 -213.529)"/><path class="a" d="M384,304.5h17.2v3.439H384Zm0,0" transform="translate(-301.453 -238.65)"/></g></svg>