<svg xmlns="http://www.w3.org/2000/svg" xmlns:xlink="http://www.w3.org/1999/xlink" viewBox="0 0 60.623 60.623"><defs><style>.a{opacity:0.87;}.b{fill:#fff;}.c{filter:url(#a);}</style><filter id="a" x="0" y="0" width="60.623" height="60.623" filterUnits="userSpaceOnUse"><feOffset dy="3" input="SourceAlpha"/><feGaussianBlur stdDeviation="3" result="b"/><feFlood flood-opacity="0.161"/><feComposite operator="in" in2="b"/><feComposite in="SourceGraphic"/></filter></defs><g class="a" transform="translate(9 6)"><g class="c" transform="matrix(1, 0, 0, 1, -9, -6)"><path class="b" d="M35.963,0H6.66A6.679,6.679,0,0,0,0,6.66v29.3a6.679,6.679,0,0,0,6.66,6.66h29.3a6.679,6.679,0,0,0,6.66-6.66V6.66A6.679,6.679,0,0,0,35.963,0Zm4,35.963a4,4,0,0,1-4,4H6.66a4,4,0,0,1-4-4V6.66a4,4,0,0,1,4-4h29.3a4,4,0,0,1,4,4v29.3Z" transform="translate(9 6)"/></g><rect class="b" width="18.339" height="18.339" transform="translate(12.142 12.142)"/></g></svg>