<svg xmlns="http://www.w3.org/2000/svg" viewBox="0 0 59 59"><defs><style>.a{fill:#797979;}.b,.d{fill:none;}.b{stroke:#707070;}.c{stroke:none;}</style></defs><g transform="translate(-139 -656)"><g transform="translate(130.407 669)"><g transform="translate(21.593 0.774)"><path class="a" d="M143.608,31.983H125.729c.238-2.563,2.742-7.152,9-7.152a8.6,8.6,0,0,1,8.88,7.152" transform="translate(-118.577 -24.831)"/><path class="a" d="M23.977,176.791h0a2.391,2.391,0,0,1-2.384-2.384v-8.344a2.384,2.384,0,0,1,4.768,0v8.344a2.391,2.391,0,0,1-2.384,2.384" transform="translate(-21.593 -154.143)"/><path class="a" d="M423.164,176.791h0a2.391,2.391,0,0,1-2.384-2.384v-8.344a2.384,2.384,0,1,1,4.768,0v8.344a2.391,2.391,0,0,1-2.384,2.384" transform="translate(-393.365 -154.143)"/><path class="a" d="M141.224,179.77v5.96a1.788,1.788,0,0,1-3.576,0v-5.96h-5.96v5.96a1.788,1.788,0,0,1-3.576,0v-5.96h-2.384V163.679h17.879V179.77Z" transform="translate(-118.576 -154.143)"/></g><g transform="translate(33.513 3.754)"><path class="a" d="M197.537,69.413a1.192,1.192,0,1,0-1.192,1.192,1.2,1.2,0,0,0,1.192-1.192" transform="translate(-195.153 -68.221)"/><path class="a" d="M284.316,69.413a1.192,1.192,0,1,0-1.192,1.192,1.2,1.2,0,0,0,1.192-1.192" transform="translate(-275.972 -68.221)"/></g><g transform="translate(31.143 -1)"><path class="a" d="M162.358,2.562a.573.573,0,0,1-.536-.358L160.689-.18a.591.591,0,0,1,.3-.775.591.591,0,0,1,.775.3l1.132,2.384a.591.591,0,0,1-.3.775C162.537,2.5,162.477,2.562,162.358,2.562Z" transform="translate(-160.644 1)"/><path class="a" d="M317.429,2.562a.358.358,0,0,1-.238-.06.591.591,0,0,1-.3-.775l1.132-2.384a.591.591,0,0,1,.775-.3.591.591,0,0,1,.3.775L317.965,2.2A.521.521,0,0,1,317.429,2.562Z" transform="translate(-306.119 1)"/></g></g><g class="b" transform="translate(139 656)"><rect class="c" width="59" height="59" rx="5"/><rect class="d" x="0.5" y="0.5" width="58" height="58" rx="4.5"/></g></g></svg>