<svg xmlns="http://www.w3.org/2000/svg" viewBox="0 0 439.047 389.06"><defs><style>.a{opacity:0.7;}.b{fill:#6dccde;}.c{fill:#f69986;}.d{fill:#fec130;}.e{fill:#69c290;}.f{fill:#98d7dc;}.g{fill:#705522;}</style></defs><g class="a" transform="translate(-926.952 -3653.366)"><g transform="translate(1286.541 3972.146)"><path class="b" d="M270.253,694.4a7.153,7.153,0,1,0,7.153,7.153A7.146,7.146,0,0,0,270.253,694.4Zm0,10.675a3.522,3.522,0,1,1,3.522-3.522A3.515,3.515,0,0,1,270.253,705.075Z" transform="translate(-263.1 -694.4)"/></g><g transform="translate(1228.074 3975.343)"><path class="c" d="M163.6,700.3a8.4,8.4,0,1,0,8.4,8.4A8.406,8.406,0,0,0,163.6,700.3Zm0,12.571a4.118,4.118,0,1,1,4.118-4.118A4.116,4.116,0,0,1,163.6,712.871Z" transform="translate(-155.2 -700.3)"/></g><g transform="translate(1159.637 3946.732)"><path class="d" d="M39.846,647.5a10.973,10.973,0,1,0,10.946,11A10.95,10.95,0,0,0,39.846,647.5Zm0,16.364A5.365,5.365,0,1,1,45.21,658.5,5.412,5.412,0,0,1,39.846,663.864Z" transform="translate(-28.9 -647.5)"/></g><g transform="translate(1266.98 4007.584)"><path class="d" d="M235.724,759.8l-1.463,9L227,763.322Z" transform="translate(-227 -759.8)"/></g><g transform="translate(1198.586 3898.991)"><path class="c" d="M108.865,570.073a.874.874,0,0,1-.488-.163l-7.261-5.527a.833.833,0,0,1-.325-.759.864.864,0,0,1,.488-.65l8.778-3.522a.864.864,0,0,1,.813.108.8.8,0,0,1,.271.759l-1.517,9.049a.7.7,0,0,1-.488.6A.914.914,0,0,1,108.865,570.073Zm-5.635-6.123,5.039,3.847,1.03-6.286Z" transform="translate(-100.781 -559.396)"/></g><g transform="translate(1308.488 3910.318)"><path class="e" d="M318.718,592.221l-15.118,2.6,4.66-14.522Z" transform="translate(-303.6 -580.3)"/></g><g transform="translate(1198.609 3943.535)"><path class="f" d="M103.467,647.019c3.468,0,3.468-5.419,0-5.419-3.522,0-3.522,5.419,0,5.419Z" transform="translate(-100.825 -641.6)"/></g><g transform="translate(1278.699 3935.299)"><path class="d" d="M251.267,631.819c3.468,0,3.468-5.419,0-5.419-3.522,0-3.522,5.419,0,5.419Z" transform="translate(-248.625 -626.4)"/></g><g transform="translate(1314.936 4009.48)"><path class="c" d="M318.1,768.719c3.468,0,3.468-5.419,0-5.419s-3.468,5.419,0,5.419Z" transform="translate(-315.5 -763.3)"/></g><g transform="translate(1146.469 3907.338)"><path class="c" d="M7.2,580.219c3.468,0,3.468-5.419,0-5.419s-3.468,5.419,0,5.419Z" transform="translate(-4.6 -574.8)"/></g><g transform="translate(1323.605 3955.89)"><path class="g" d="M334.1,669.819c3.468,0,3.468-5.419,0-5.419s-3.468,5.419,0,5.419Z" transform="translate(-331.5 -664.4)"/></g><g transform="translate(1167.711 3871.087)"><path class="e" d="M48.406,507.9a4.606,4.606,0,1,0,4.606,4.606A4.6,4.6,0,0,0,48.406,507.9Zm0,6.882a2.276,2.276,0,1,1,2.276-2.276A2.29,2.29,0,0,1,48.406,514.782Z" transform="translate(-43.8 -507.9)"/></g><g transform="translate(1311.088 3863.826)"><path class="c" d="M316.8,511.3a8.4,8.4,0,1,0-8.4-8.4A8.406,8.406,0,0,0,316.8,511.3Zm0-12.517a4.118,4.118,0,1,1-4.118,4.118A4.116,4.116,0,0,1,316.8,498.781Z" transform="translate(-308.4 -494.5)"/></g><g transform="translate(-955.656 7550.908) rotate(-135)"><g transform="translate(1275.072 4087.146)"><path class="b" d="M270.253,694.4a7.153,7.153,0,1,0,7.153,7.153A7.146,7.146,0,0,0,270.253,694.4Zm0,10.675a3.522,3.522,0,1,1,3.522-3.522A3.515,3.515,0,0,1,270.253,705.075Z" transform="translate(-263.1 -694.4)"/></g><g transform="translate(1216.605 4090.343)"><path class="c" d="M163.6,700.3a8.4,8.4,0,1,0,8.4,8.4A8.406,8.406,0,0,0,163.6,700.3Zm0,12.571a4.118,4.118,0,1,1,4.118-4.118A4.116,4.116,0,0,1,163.6,712.871Z" transform="translate(-155.2 -700.3)"/></g><g transform="translate(1148.168 4061.732)"><path class="d" d="M39.846,647.5a10.973,10.973,0,1,0,10.946,11A10.95,10.95,0,0,0,39.846,647.5Zm0,16.364A5.365,5.365,0,1,1,45.21,658.5,5.412,5.412,0,0,1,39.846,663.864Z" transform="translate(-28.9 -647.5)"/></g><g transform="translate(1255.512 4122.584)"><path class="d" d="M235.724,759.8l-1.463,9L227,763.322Z" transform="translate(-227 -759.8)"/></g><g transform="translate(1187.117 4013.991)"><path class="c" d="M108.865,570.073a.874.874,0,0,1-.488-.163l-7.261-5.527a.833.833,0,0,1-.325-.759.864.864,0,0,1,.488-.65l8.778-3.522a.864.864,0,0,1,.813.108.8.8,0,0,1,.271.759l-1.517,9.049a.7.7,0,0,1-.488.6A.914.914,0,0,1,108.865,570.073Zm-5.635-6.123,5.039,3.847,1.03-6.286Z" transform="translate(-100.781 -559.396)"/></g><g transform="translate(1297.02 4025.318)"><path class="e" d="M318.718,592.221l-15.118,2.6,4.66-14.522Z" transform="translate(-303.6 -580.3)"/></g><g transform="translate(1187.141 4058.535)"><path class="f" d="M103.467,647.019c3.468,0,3.468-5.419,0-5.419-3.522,0-3.522,5.419,0,5.419Z" transform="translate(-100.825 -641.6)"/></g><g transform="translate(1267.23 4050.299)"><path class="d" d="M251.267,631.819c3.468,0,3.468-5.419,0-5.419-3.522,0-3.522,5.419,0,5.419Z" transform="translate(-248.625 -626.4)"/></g><g transform="translate(1303.467 4124.48)"><path class="c" d="M318.1,768.719c3.468,0,3.468-5.419,0-5.419s-3.468,5.419,0,5.419Z" transform="translate(-315.5 -763.3)"/></g><g transform="translate(1135 4022.338)"><path class="c" d="M7.2,580.219c3.468,0,3.468-5.419,0-5.419s-3.468,5.419,0,5.419Z" transform="translate(-4.6 -574.8)"/></g><g transform="translate(1312.137 4070.89)"><path class="g" d="M334.1,669.819c3.468,0,3.468-5.419,0-5.419s-3.468,5.419,0,5.419Z" transform="translate(-331.5 -664.4)"/></g><g transform="translate(1156.242 3986.087)"><path class="e" d="M48.406,507.9a4.606,4.606,0,1,0,4.606,4.606A4.6,4.6,0,0,0,48.406,507.9Zm0,6.882a2.276,2.276,0,1,1,2.276-2.276A2.29,2.29,0,0,1,48.406,514.782Z" transform="translate(-43.8 -507.9)"/></g><g transform="translate(1299.619 3978.826)"><path class="c" d="M316.8,511.3a8.4,8.4,0,1,0-8.4-8.4A8.406,8.406,0,0,0,316.8,511.3Zm0-12.517a4.118,4.118,0,1,1-4.118,4.118A4.116,4.116,0,0,1,316.8,498.781Z" transform="translate(-308.4 -494.5)"/></g><g transform="translate(1338.344 4140.411)"><path class="d" d="M384.273,809.715a.326.326,0,0,1-.217-.054.852.852,0,0,1-.542-.6l-3.631-15.389a.769.769,0,0,1,.217-.759.757.757,0,0,1,.813-.163l14.576,4.768a.852.852,0,0,1,.542.6.8.8,0,0,1-.217.759l-11,10.566A.862.862,0,0,1,384.273,809.715Zm-2.547-15.01,2.98,12.571,8.941-8.724Z" transform="translate(-379.864 -792.7)"/></g></g><g transform="translate(1349.813 4025.411)"><path class="d" d="M384.273,809.715a.326.326,0,0,1-.217-.054.852.852,0,0,1-.542-.6l-3.631-15.389a.769.769,0,0,1,.217-.759.757.757,0,0,1,.813-.163l14.576,4.768a.852.852,0,0,1,.542.6.8.8,0,0,1-.217.759l-11,10.566A.862.862,0,0,1,384.273,809.715Zm-2.547-15.01,2.98,12.571,8.941-8.724Z" transform="translate(-379.864 -792.7)"/></g></g></svg>