<svg xmlns="http://www.w3.org/2000/svg" viewBox="0 0 40.463 40.463">
  <defs>
    <style>
      .cls-1 {
        opacity: 0.87;
      }

      .cls-2 {
        fill: #fff;
      }
    </style>
  </defs>
  <g id="drop" class="cls-1">
    <path id="Path_1553" data-name="Path 1553" class="cls-2" d="M6.957,40.463H33.507a6.965,6.965,0,0,0,6.956-6.957V6.955A6.964,6.964,0,0,0,33.507,0H6.957A6.964,6.964,0,0,0,0,6.955V33.507A6.964,6.964,0,0,0,6.957,40.463ZM3.765,6.955a3.194,3.194,0,0,1,3.192-3.19H33.507A3.194,3.194,0,0,1,36.7,6.955V33.507A3.2,3.2,0,0,1,33.507,36.7H6.957a3.194,3.194,0,0,1-3.192-3.191Z"/>
    <path id="Path_1554" data-name="Path 1554" class="cls-2" d="M24.439,33.076,27.1,35.737h0l2.661-2.661v0l5.983-5.983-2.662-2.662L29.024,28.49V18.533H25.259V28.569l-4.14-4.14-2.662,2.662,5.983,5.983Z" transform="translate(-6.875 -6.903)"/>
  </g>
</svg>
