<svg xmlns="http://www.w3.org/2000/svg" viewBox="0 0 59 59"><defs><style>.a{fill:#797979;}.b,.d{fill:none;}.b{stroke:#707070;}.c{stroke:none;}</style></defs><g transform="translate(-14340 -13244)"><g transform="translate(13068.3 12815.7)"><path class="a" d="M1315.336,465.227a20.9,20.9,0,0,1-2.522,5.193q-2.671,4.006-5.342,4.006a7.961,7.961,0,0,1-2.819-.594,8.79,8.79,0,0,0-3.116-.593,8.656,8.656,0,0,0-2.968.742,8.146,8.146,0,0,1-2.671.742q-3.116,0-6.232-5.341a20.2,20.2,0,0,1-2.968-10.386,11.969,11.969,0,0,1,2.374-7.715,7.242,7.242,0,0,1,5.787-2.967,11.139,11.139,0,0,1,3.561.594,11.5,11.5,0,0,0,2.819.593,11.919,11.919,0,0,0,2.967-.742,11.754,11.754,0,0,1,3.561-.742,7.069,7.069,0,0,1,4.3,1.335,6.916,6.916,0,0,1,2.077,2.077,17.6,17.6,0,0,0-2.374,2.374,7.739,7.739,0,0,0,.148,8.9A7.576,7.576,0,0,0,1315.336,465.227Zm-7.715-24.036a6.882,6.882,0,0,1-.594,2.819,8.7,8.7,0,0,1-1.929,2.819,6.482,6.482,0,0,1-2.226,1.484,6.88,6.88,0,0,1-2.077.3,9.121,9.121,0,0,1,1.632-5.341,7.525,7.525,0,0,1,5.193-2.967v.742S1307.621,441.042,1307.621,441.19Z" transform="translate(0 0)"/></g><g class="b" transform="translate(14340 13244)"><rect class="c" width="59" height="59" rx="5"/><rect class="d" x="0.5" y="0.5" width="58" height="58" rx="4.5"/></g></g></svg>