<svg xmlns="http://www.w3.org/2000/svg" viewBox="0 0 26.5 23.3"><defs><style>.a{fill:none;stroke:#797979;stroke-linecap:round;stroke-linejoin:round;stroke-miterlimit:10;stroke-width:1.5px;}</style></defs><g transform="translate(-889.65 -630.65)"><line class="a" x2="8.5" transform="translate(898.6 636.2)"/><line class="a" x2="8.5" transform="translate(898.6 640.7)"/><line class="a" x2="8.5" transform="translate(898.6 640.7)"/><line class="a" x2="8.5" transform="translate(898.6 645.2)"/><path class="a" d="M902.9,631.4c-4.5,0-9,.9-10.9,2.7-1.4,1.3-1.5,4-1.6,7"/><path class="a" d="M902.9,631.4c4.5,0,9,.9,10.9,2.7,1.4,1.3,1.5,4,1.6,7"/><path class="a" d="M890.4,641.1c0,3,.1,5.7,1.6,7,1.5,1.4,4.4,2.2,7.7,2.6l3.3,2.5,3.1-2.5c3.3-.3,6.2-1.2,7.7-2.6,1.4-1.3,1.5-4,1.6-7"/></g></svg>