<svg xmlns="http://www.w3.org/2000/svg" viewBox="0 0 25.5 20.2"><defs><style>.a{fill:none;stroke:#797979;}.a,.b{stroke-linecap:round;stroke-linejoin:round;stroke-miterlimit:10;stroke-width:1.5px;}.b{fill:#738080;stroke:#738080;}</style></defs><g transform="translate(-997.449 -632.15)"><path class="a" d="M1020.7,635.5a10.706,10.706,0,0,1-1.6,1.4l-6.4,4.6a4.2,4.2,0,0,1-4.9,0l-6.4-4.5a7.967,7.967,0,0,1-1.7-1.5"/><path class="a" d="M1010.2,651.6c-4.3,0-8.6-.9-10.5-2.6-1.4-1.3-1.5-3.8-1.5-6.7"/><path class="a" d="M1010.2,651.6c4.3,0,8.6-.9,10.5-2.6,1.4-1.3,1.5-3.8,1.5-6.7"/><path class="a" d="M1010.2,632.9c-4.3,0-8.6.9-10.5,2.6"/><path class="b" d="M998.5,638.5a22.365,22.365,0,0,0-.2,3.8"/><path class="b" d="M1022,638.5a22.365,22.365,0,0,1,.2,3.8"/><path class="a" d="M1010.2,632.9c4.3,0,8.6.9,10.5,2.6"/></g></svg>