<svg xmlns="http://www.w3.org/2000/svg" viewBox="0 0 501.605 442.143"><defs><style>.a{opacity:0.49;}.b{fill:#393a3c;}</style></defs><g class="a" transform="translate(-898.027 -153.623)"><g transform="translate(1246.557 420.284)"><g transform="translate(0 0.041)"><path class="b" d="M113.194,45.456A27.854,27.854,0,0,0,70.029,10.24a14.271,14.271,0,0,1-14.693,5.049,35.728,35.728,0,0,0-14.13-1.011A36.122,36.122,0,0,0,10.289,44.913a35.6,35.6,0,0,0,3.427,20.83,13.917,13.917,0,0,0-1.592,27.716l2.147,22.024a3.98,3.98,0,0,0,3.98,3.98H29.863a3.98,3.98,0,0,0,3.021-1.393,4.068,4.068,0,0,0,.876-3.383L28.439,93.592h1a49.672,49.672,0,0,1,6.579.474,43.7,43.7,0,0,0,39.692,25.4q1.97,0,3.98-.177a44.1,44.1,0,0,0,39.6-40.038,43.452,43.452,0,0,0-6.514-26.725A6.072,6.072,0,0,1,113.194,45.456ZM11.953,89.413a9.95,9.95,0,0,1,0-19.5Zm17.911,26.07-11.622-.2L16.132,93.592h8.2ZM15.933,89.612v-19.9h3.98v19.9Zm13.495,0H23.893v-19.9h5.534a53.6,53.6,0,0,0,16.991-2.758l9.316-3.1V95.475l-9.316-3.1A53.6,53.6,0,0,0,29.428,89.612Zm85.88-10.685a39.738,39.738,0,0,1-74.4,16.022c1.429.34,2.85.728,4.253,1.194l21.891,7.3a1.981,1.981,0,0,0,2.613-1.887V91.6a7.96,7.96,0,0,0,7.96-7.96v-7.96a7.96,7.96,0,0,0-7.96-7.96v-9.95a1.99,1.99,0,0,0-2.619-1.889l-21.891,7.3a49.687,49.687,0,0,1-15.728,2.553H18.251A31.8,31.8,0,0,1,54.262,19.123,18.243,18.243,0,0,0,73.1,12.767,23.868,23.868,0,0,1,110.1,42.939a10.056,10.056,0,0,0-.706,11.694A39.506,39.506,0,0,1,115.308,78.927ZM59.715,96.8V62.521l5.97-1.99V98.792Zm9.95-9.18V71.7a3.98,3.98,0,0,1,3.98,3.98v7.96A3.98,3.98,0,0,1,69.665,87.622Z" transform="translate(0 -0.041)"/></g><g transform="translate(27.873 81.652)"><rect class="b" width="7.96" height="3.98"/></g><g transform="translate(27.873 73.691)"><rect class="b" width="7.96" height="3.98"/></g><g transform="translate(85.586 17.969)"><path class="b" d="M359.636,80.957a1.992,1.992,0,0,0-.552-.552l-11.94-7.96a1.99,1.99,0,0,0-3.095,1.656V90.021a1.99,1.99,0,0,0,3.095,1.656l11.94-7.96A1.99,1.99,0,0,0,359.636,80.957ZM348.029,86.3V77.82l6.368,4.241Z" transform="translate(-344.049 -72.11)"/></g><g transform="translate(73.645 10.009)"><path class="b" d="M313.96,40.112a17.911,17.911,0,1,0,17.911,17.911A17.911,17.911,0,0,0,313.96,40.112Zm0,31.841A13.931,13.931,0,1,1,327.89,58.023,13.931,13.931,0,0,1,313.96,71.953Z" transform="translate(-296.049 -40.112)"/></g><g transform="translate(21.903 21.949)"><path class="b" d="M117.9,102.043h-1.99a1.99,1.99,0,0,1-1.99-1.99v-5.97a5.97,5.97,0,1,0-11.94,0v5.97a1.99,1.99,0,0,1-1.99,1.99,1.99,1.99,0,0,0-1.99-1.99h-7.96a1.99,1.99,0,0,0-1.99,1.99v21.891a1.99,1.99,0,0,0,1.99,1.99H98a1.99,1.99,0,0,0,1.99-1.99H117.9a5.97,5.97,0,0,0,5.97-5.97v-9.95A5.97,5.97,0,0,0,117.9,102.043Zm-21.891,19.9h-3.98V104.033h3.98Zm23.881-3.98a1.99,1.99,0,0,1-1.99,1.99H99.989V106.023a5.97,5.97,0,0,0,5.97-5.97v-5.97a1.99,1.99,0,1,1,3.98,0v5.97a5.97,5.97,0,0,0,5.97,5.97h1.99a1.99,1.99,0,0,1,1.99,1.99Z" transform="translate(-88.049 -88.112)"/></g><g transform="translate(86.891 69.708)"><path class="b" d="M372.109,282.694l-.848-.852a5.992,5.992,0,0,0-7.532-.744l-2.151,1.435-2.151-1.435a5.988,5.988,0,0,0-7.532.744l-.852.852a5.97,5.97,0,0,0,0,8.442l9.127,9.125a1.99,1.99,0,0,0,2.814,0l9.126-9.125A5.97,5.97,0,0,0,372.109,282.694Zm-2.81,5.626,0,0-7.72,7.717-7.717-7.71a1.99,1.99,0,0,1,0-2.814l.85-.85a1.99,1.99,0,0,1,2.511-.249l3.254,2.169a1.99,1.99,0,0,0,2.209,0l3.256-2.169a1.99,1.99,0,0,1,2.51.247v-.008l.848.85A1.99,1.99,0,0,1,369.3,288.32Z" transform="translate(-349.294 -280.1)"/></g><g transform="translate(75.698 53.31)"><g transform="translate(0 0)"><rect class="b" width="8.205" height="3.978" transform="translate(0 7.96) rotate(-75.948)"/></g></g><g transform="translate(80.714 59.97)"><g transform="translate(0 0)"><rect class="b" width="8.9" height="3.98" transform="translate(0 3.98) rotate(-26.565)"/></g></g><g transform="translate(75.687 99.079)"><g transform="translate(0 0)"><rect class="b" width="3.978" height="8.205" transform="translate(0 0.965) rotate(-14.035)"/></g></g><g transform="translate(80.713 93.8)"><g transform="translate(0 0)"><rect class="b" width="3.98" height="8.9" transform="translate(0 3.56) rotate(-63.435)"/></g></g><g transform="translate(2.002 6.029)"><path class="b" d="M8.049,71.874h3.98c0-27.005,16.014-43.782,41.792-43.782v-3.98C25.588,24.112,8.049,42.421,8.049,71.874Z" transform="translate(-8.049 -24.112)"/></g></g><g transform="translate(1254.692 289.52)"><g transform="translate(1.329 55.534)"><path class="b" d="M66.248,283.719v-6.636h-3.7v2.935L50.359,267.83l12.188-12.188v4.786h3.7v-8.487l1.121-1.121a1.851,1.851,0,0,0,0-2.617,27.733,27.733,0,0,0-46.394,12.38,11.081,11.081,0,0,0-15.627-1.178q-.32.275-.617.573a1.851,1.851,0,0,0,0,2.617l5.233,5.235-5.233,5.235a1.851,1.851,0,0,0,0,2.617,11.081,11.081,0,0,0,15.671.012q.3-.3.573-.617a27.732,27.732,0,0,0,46.394,12.38,1.851,1.851,0,0,0,0-2.617Zm-49.916-9.51a7.4,7.4,0,0,1-7.511,0l5.069-5.071a1.851,1.851,0,0,0,0-2.617l-5.069-5.071a7.4,7.4,0,1,1,7.511,12.758Zm13.143,9.272A24.057,24.057,0,0,1,63.4,249.56L46.434,266.522a1.851,1.851,0,0,0,0,2.617L63.4,286.1A24.057,24.057,0,0,1,29.475,283.481Z" transform="translate(-4.19 -240.072)"/></g><g transform="translate(72.416 66.64)"><path class="b" d="M347.08,309.461l-.7,1.4-6.129-6.129,6.129-6.129.7,1.4,3.313-1.654-1.255-2.5.272-.274a1.851,1.851,0,0,0,0-2.617,16.637,16.637,0,0,0-27.42,6.116,7.328,7.328,0,0,0-9.947.427,1.851,1.851,0,0,0,0,2.617l2.617,2.613-2.617,2.617a1.851,1.851,0,0,0,0,2.617,7.328,7.328,0,0,0,9.947.427,16.636,16.636,0,0,0,27.42,6.116,1.851,1.851,0,0,0,0-2.617l-.272-.274,1.255-2.508Zm-29.8-1.023a3.762,3.762,0,0,1-.96-.124l2.269-2.269a1.851,1.851,0,0,0,0-2.617l-2.269-2.269a3.759,3.759,0,0,1,.96-.124,3.7,3.7,0,0,1,0,7.4Zm9.984,4.054a12.954,12.954,0,0,1,18.131-18.131l-9.068,9.068a1.851,1.851,0,0,0,0,2.617l9.068,9.068A12.954,12.954,0,0,1,327.261,312.492Z" transform="translate(-311.502 -288.085)"/></g><g transform="translate(96.697 72.188)"><rect class="b" width="3.701" height="3.701"/></g><g transform="translate(46.732 66.636)"><rect class="b" width="3.701" height="3.701"/></g><g transform="translate(80.042 31.476)"><path class="b" d="M355.571,136.07a11.1,11.1,0,1,0,11.1,11.1A11.1,11.1,0,0,0,355.571,136.07Zm0,18.506a7.4,7.4,0,1,1,7.4-7.4A7.4,7.4,0,0,1,355.571,154.576Z" transform="translate(-344.468 -136.07)"/></g><g transform="translate(68.932 0)"><path class="b" d="M335.85,19.064a8.631,8.631,0,0,1-12.188,0,1.851,1.851,0,0,0-2.617,0,8.6,8.6,0,0,1-8.731,2.069,11.1,11.1,0,1,0-5.463,1.055,12.31,12.31,0,0,0,15.5.631,12.338,12.338,0,0,0,16.113-1.138Zm-35.7-7.944a7.4,7.4,0,1,1,7.4,7.4A7.4,7.4,0,0,1,300.147,11.119Z" transform="translate(-296.439 0)"/></g><g transform="translate(0.468 9.269)"><path class="b" d="M18.974,40.069A18.506,18.506,0,1,0,37.479,58.575,18.506,18.506,0,0,0,18.974,40.069Zm0,33.31a14.8,14.8,0,1,1,14.8-14.8A14.8,14.8,0,0,1,18.974,73.379Z" transform="translate(-0.468 -40.069)"/></g><g transform="translate(39.33 0.016)"><path class="b" d="M175.87.069a7.4,7.4,0,1,0,7.4,7.4A7.4,7.4,0,0,0,175.87.069Zm0,11.1a3.7,3.7,0,1,1,3.7-3.7A3.7,3.7,0,0,1,175.87,11.172Z" transform="translate(-168.468 -0.069)"/></g><g transform="translate(88.4 37.028)"><path class="b" d="M385.92,166.515a2.776,2.776,0,0,0-2.574-1.819.925.925,0,0,1,0-1.851H385.2V161h-.925v-.925h-1.851v1.1a2.776,2.776,0,0,0,.925,5.381.925.925,0,0,1,0,1.851H381.5v1.851h.925v.925h1.851v-1.1A2.776,2.776,0,0,0,385.92,166.515Z" transform="translate(-380.601 -160.07)"/></g><g transform="translate(77.297 5.568)"><path class="b" d="M337.92,30.515a2.776,2.776,0,0,0-2.574-1.819.925.925,0,0,1,0-1.851H337.2V25h-.925V24.07h-1.851v1.1a2.776,2.776,0,0,0,.925,5.381.925.925,0,1,1,0,1.851H333.5v1.851h.925v.925h1.851v-1.1A2.776,2.776,0,0,0,337.92,30.515Z" transform="translate(-332.601 -24.07)"/></g><g transform="translate(13.422 16.671)"><path class="b" d="M62.02,77.621h5.552v-3.7h-3.7V72.069h-3.7V74.26A5.539,5.539,0,0,0,62.02,85.023a1.851,1.851,0,1,1,0,3.7H56.468v3.7h3.7v1.851h3.7V92.085A5.539,5.539,0,0,0,62.02,81.322a1.851,1.851,0,0,1,0-3.7Z" transform="translate(-56.468 -72.069)"/></g><g transform="translate(34.32 40.729)"><path class="b" d="M176.421,176.613a8.631,8.631,0,0,1-12.188,0,1.851,1.851,0,0,0-2.617,0,8.631,8.631,0,0,1-12.188,0l-2.617,2.617a12.338,12.338,0,0,0,16.113,1.138,12.338,12.338,0,0,0,16.113-1.138Z" transform="translate(-146.812 -176.071)"/></g></g><g transform="translate(1161.146 358.146)"><g transform="translate(51.425 27.141)"><path class="b" d="M315.141,183.427a4.244,4.244,0,0,1-4.285-4,14.218,14.218,0,0,0,8.571-13.571v-1A12.8,12.8,0,0,0,306.57,152H289.428A1.35,1.35,0,0,0,288,153.428a12.825,12.825,0,0,0,3.428,8.714,20.648,20.648,0,0,0-.571,4.143,14.436,14.436,0,0,0,8.571,13.142,4.244,4.244,0,0,1-4.285,4A7.073,7.073,0,0,0,288,190.569v20h2.857v-20A4.27,4.27,0,0,1,295,186.284l7,1.143-2.571,17.142a2.3,2.3,0,0,0,.429,1.286l4.285,4.285a1.381,1.381,0,0,0,2,0l4.285-4.285a1.746,1.746,0,0,0,.429-1.286l-2.571-17.142,7-1.143a4.27,4.27,0,0,1,4.143,4.285v20h2.857v-20A7.073,7.073,0,0,0,315.141,183.427ZM291,154.857h15.57a9.995,9.995,0,0,1,9.857,8.571h-15.57A9.995,9.995,0,0,1,291,154.857Zm14.142,52.282-2.714-2.714L305,187.712h.429L308,204.425Zm1.286-22.284h-2.571l-3.714-.571a6.791,6.791,0,0,0,2.143-5.143v-.714a1.372,1.372,0,0,0-1-1.286,11.567,11.567,0,0,1-7.571-10.856,8.784,8.784,0,0,1,.143-2,12.936,12.936,0,0,0,7,2H316.57A11.246,11.246,0,0,1,309,177a1.372,1.372,0,0,0-1,1.286v.857a7.25,7.25,0,0,0,2.143,5.143Z" transform="translate(-288 -152)"/></g><g transform="translate(74.281 68.567)"><rect class="b" width="4.285" height="2.857"/></g><g transform="translate(0 0)"><g transform="translate(0)"><path class="b" d="M84.28,0H1.428A1.35,1.35,0,0,0,0,1.428V7.142A1.35,1.35,0,0,0,1.428,8.571H2.857V60H1.428A1.35,1.35,0,0,0,0,61.425v5.714a1.35,1.35,0,0,0,1.428,1.428h37.14V84.28A1.35,1.35,0,0,0,40,85.709h5.714A1.35,1.35,0,0,0,47.14,84.28V68.567h1.428V65.71H2.857V62.853H48.568V60H5.714V8.571H79.995v20h2.857v-20H84.28a1.35,1.35,0,0,0,1.428-1.428V1.428A1.35,1.35,0,0,0,84.28,0ZM41.426,68.567h2.857V82.852H41.426ZM82.852,5.714H2.857V2.857H82.852Z" transform="translate(0 0)"/></g></g><g transform="translate(8.571 11.428)"><path class="b" d="M115.139,64H49.428A1.35,1.35,0,0,0,48,65.428V94a1.35,1.35,0,0,0,1.428,1.428H90.854V92.57h-40v-8l11,3.714c.143,0,.286.143.429.143a1.3,1.3,0,0,0,1-.429l7.857-7.857L78.855,84a1.314,1.314,0,0,0,1.428-.143L95.568,72.571h5.285V69.714H95.14a2.03,2.03,0,0,0-.857.286l-15,10.856L71.427,77a1.558,1.558,0,0,0-1.714.286l-8,8L50.857,81.57V66.857H113.71v10h2.857V65.428A1.35,1.35,0,0,0,115.139,64Z" transform="translate(-48 -64)"/></g><g transform="translate(31.427 44.283)"><path class="b" d="M192.713,255.571l-7.142-7.142a1.381,1.381,0,0,0-2,0l-7.142,7.142a1.381,1.381,0,0,0,0,2,1.3,1.3,0,0,0,1,.429h2.857v2.857a1.35,1.35,0,0,0,1.428,1.428h5.714a1.35,1.35,0,0,0,1.428-1.428V258h2.857a1.35,1.35,0,0,0,1.428-1.428A1.3,1.3,0,0,0,192.713,255.571Zm-5.285-.429A1.35,1.35,0,0,0,186,256.571v2.857h-2.857v-2.857a1.35,1.35,0,0,0-1.428-1.428h-.857l3.714-3.714,3.714,3.714Z" transform="translate(-176 -248)"/></g><g transform="translate(12.856 44.283)"><path class="b" d="M88.713,252.714a1.3,1.3,0,0,0-1-.429H84.856v-2.857A1.35,1.35,0,0,0,83.428,248H77.714a1.35,1.35,0,0,0-1.428,1.428v2.857H73.428A1.35,1.35,0,0,0,72,253.714a1.3,1.3,0,0,0,.429,1l7.142,7.142a1.381,1.381,0,0,0,2,0l7.142-7.142A1.381,1.381,0,0,0,88.713,252.714Zm-8.142,6.142-3.714-3.714h.857a1.35,1.35,0,0,0,1.428-1.428v-2.857H82v2.857a1.35,1.35,0,0,0,1.428,1.428h.857Z" transform="translate(-72 -248)"/></g><g transform="translate(65.71 15.713)"><path class="b" d="M372.285,89.428V88h-2.857v1.428H368v2.857h1.428v1.428h2.857V92.285h1.428V89.428Z" transform="translate(-368 -88)"/></g><g transform="translate(28.57 17.142)"><path class="b" d="M164.285,97.428V96h-2.857v1.428H160v2.857h1.428v1.428h2.857v-1.428h1.428V97.428Z" transform="translate(-160 -96)"/></g></g><g transform="translate(1187.872 203.873)"><g transform="translate(7.825 16.944)"><path class="b" d="M67.575,103.93a19.564,19.564,0,0,0-7.837,37.494v9.47a3.913,3.913,0,0,0,3.913,3.913v1.3a3.913,3.913,0,1,0,7.825,0v-1.3a3.913,3.913,0,0,0,3.913-3.913v-9.47a19.564,19.564,0,0,0-7.814-37.494Zm1.293,52.181a1.3,1.3,0,1,1-2.608,0v-1.3h2.608Zm2.608-3.913H63.651a1.3,1.3,0,0,1-1.3-1.3H72.781A1.3,1.3,0,0,1,71.476,152.2Zm1.3-3.913H62.347v-1.3H72.781Zm0-3.913H62.347v-2.032a19.063,19.063,0,0,0,10.434,0Zm-.64-4.558L74.072,126.3l-2.582-.37L69.43,140.352a16.15,16.15,0,0,1-3.733,0l-2.059-14.424-2.582.37,1.932,13.516a16.955,16.955,0,1,1,9.153,0Z" transform="translate(-48 -103.93)"/></g><path class="b" d="M77.873,22.554,60.917,5.6A1.3,1.3,0,0,0,60,5.217V1.3a1.3,1.3,0,0,0-1.3-1.3H14.347V.012a1.287,1.287,0,0,0-.922.37L.382,13.425a1.3,1.3,0,0,0-.37.922H0v62.6a1.3,1.3,0,0,0,1.3,1.3H58.691a1.3,1.3,0,0,0,1.3-1.3V34.45l2.991,2.991a1.3,1.3,0,0,0,1.844,0L77.873,24.4A1.3,1.3,0,0,0,77.873,22.554ZM54.778,2.608h2.608V5.217H54.778ZM13.042,4.453v8.59H4.453ZM52.17,75.646H2.608v-60H14.347a1.3,1.3,0,0,0,1.3-1.3V2.608H52.17V5.217H46.953a1.3,1.3,0,0,0-1.3,1.3V19.564a1.3,1.3,0,0,0,.382.922l6.139,6.139Zm5.217,0H54.778V29.233l2.608,2.608Zm6.521-40.972L48.257,19.024V7.825h11.2L75.106,23.476Z"/><g transform="translate(16.372 32.606)"><path class="b" d="M117.241,200.14a1.3,1.3,0,0,0-1.166,0l-4.634,2.311-4.634-2.318a1.3,1.3,0,0,0-1.166,0l-5.217,2.608,1.166,2.335,4.634-2.318,4.634,2.324a1.3,1.3,0,0,0,1.166,0l4.634-2.324,4.634,2.324,1.166-2.335Z" transform="translate(-100.424 -199.996)"/></g><g transform="translate(50.866 10.434)"><path class="b" d="M315.913,64a3.913,3.913,0,1,0,3.913,3.913A3.913,3.913,0,0,0,315.913,64Zm0,5.217a1.3,1.3,0,1,1,1.3-1.3A1.3,1.3,0,0,1,315.913,69.217Z" transform="translate(-312 -64)"/></g><g transform="translate(32.606 13.042)"><rect class="b" width="10.434" height="2.608"/></g><g transform="translate(39.127 7.825)"><rect class="b" width="3.913" height="2.608"/></g><g transform="translate(26.085 7.825)"><rect class="b" width="10.434" height="2.608"/></g><g transform="translate(61.681 21.251)"><g transform="translate(0)"><rect class="b" width="9.221" height="2.608" transform="translate(0 6.52) rotate(-45)"/></g></g><g transform="translate(65.212 37.849)"><path class="b" d="M412.742,239.155l.016-.013-5.217-6.521a1.351,1.351,0,0,0-1.906-.131,1.337,1.337,0,0,0-.131.131l-5.217,6.521.016.013a1.278,1.278,0,0,0-.3.8v30a2.608,2.608,0,0,0,2.608,2.608h7.825a2.608,2.608,0,0,0,2.608-2.608v-30A1.279,1.279,0,0,0,412.742,239.155Zm-6.22-3.632,2.5,3.13h-5.008Zm3.913,34.432h-7.826V241.261h7.826Z" transform="translate(-400.001 -232.157)"/></g><g transform="translate(39.127 56.083)"><rect class="b" width="10.434" height="2.608"/></g><g transform="translate(39.127 61.299)"><rect class="b" width="10.434" height="2.608"/></g><g transform="translate(39.127 66.516)"><rect class="b" width="10.434" height="2.608"/></g></g><g transform="translate(1128 281.744)"><g transform="translate(42.92 0.001)"><path class="b" d="M298.144,14.377H272.592a3.833,3.833,0,0,0-3.833,3.833V53.982a3.833,3.833,0,0,0,3.833,3.833h25.552a3.833,3.833,0,0,0,3.833-3.833V18.21A3.833,3.833,0,0,0,298.144,14.377ZM284.09,55.26h-11.5a1.278,1.278,0,0,1-1.278-1.278V45.039H284.09Zm0-12.776H271.314V32.263H284.09Zm15.331,11.5a1.278,1.278,0,0,1-1.278,1.278h-11.5V45.039h12.776Zm0-11.5H286.645V32.263h12.776Zm0-12.776H271.314V18.21a1.278,1.278,0,0,1,1.278-1.278h25.552a1.278,1.278,0,0,1,1.278,1.278Z" transform="translate(-268.759 -14.377)"/></g><g transform="translate(21.201 44.716)"><path class="b" d="M136.592,298.21h3.833v-2.555h-2.555v-1.278h-2.555v1.513a3.824,3.824,0,0,0,1.278,7.43,1.278,1.278,0,1,1,0,2.555h-3.833v2.555h2.555v1.278h2.555V308.2a3.824,3.824,0,0,0-1.278-7.43,1.278,1.278,0,0,1,0-2.555Z" transform="translate(-132.759 -294.377)"/></g><g transform="translate(48.031 5.111)"><path class="b" d="M322.478,46.377H302.037a1.278,1.278,0,0,0-1.278,1.278v5.11a1.278,1.278,0,0,0,1.278,1.278h20.441a1.278,1.278,0,0,0,1.278-1.278v-5.11A1.278,1.278,0,0,0,322.478,46.377Zm-1.278,5.11H303.314V48.932H321.2Z" transform="translate(-300.759 -46.377)"/></g><g transform="translate(0 0)"><path class="b" d="M74.86,68.032H73.583V65.477a5.11,5.11,0,0,0-5.11-5.11H45.151L31.577,37.285,40.258,17.44a1.278,1.278,0,0,0-1.607-1.712l-6.222,2.263.213-.681a1.278,1.278,0,0,0-1.723-1.555l-8.312,3.561-7.089-4.727a1.278,1.278,0,0,0-1.967,1.285l.521,2.953-5.505-.612a1.278,1.278,0,0,0-1.278,1.841L15.939,37.37,1.382,66.139A12.024,12.024,0,0,0,.019,72.376a13.032,13.032,0,0,0,2.785,7.2L.777,81.767a3.02,3.02,0,0,0-.6,3.052,1.988,1.988,0,0,0,1.856,1.1H48.031a2.334,2.334,0,0,0,2.154-1.334,2.683,2.683,0,0,0-.365-2.818,1.261,1.261,0,0,0-.139-.148l-2.357-2.135a13.415,13.415,0,0,0,2.1-3.94,11.171,11.171,0,0,0,.5-2.4H60.807v6.388a1.278,1.278,0,0,0,1.278,1.278H74.86a1.278,1.278,0,0,0,1.278-1.278V69.31A1.278,1.278,0,0,0,74.86,68.032Zm-8.943-2.555a2.555,2.555,0,1,1,5.11,0v2.555h-5.11ZM31.471,21.058l5.251-1.91L29.309,36.093H26.772Zm-9.7.773a1.278,1.278,0,0,0,1.212.111L29.374,19.2,24.1,36.093H19.718L16.591,18.371Zm-11.156-.814,3.925.437L16.559,32.9ZM2.776,83.364l1.8-1.927a13.216,13.216,0,0,0,2.978,1.927Zm45.026,0H42.513a13.118,13.118,0,0,0,3.074-2.008Zm-.821-8.56h0a10.661,10.661,0,0,1-5.853,6.4l.943,2.162H7.994L8.937,81.2A10.649,10.649,0,0,1,2.569,72.19a9.484,9.484,0,0,1,1.095-4.9l14.49-28.645h1.33l-2.9,9.657A3.107,3.107,0,0,0,21.76,51.4l2.9-2.9-1.807-1.807-2.9,2.9a.551.551,0,0,1-.917-.548l3.117-10.392H25.29l2.332,10.5,2.494-.554L27.9,38.648h1.51L42.19,60.367H36.1a12.776,12.776,0,1,0,0,12.776H47.345A8.967,8.967,0,0,1,46.981,74.8ZM60.807,69.31v1.278H35.337a1.278,1.278,0,0,0-1.143.709,10.221,10.221,0,1,1-.2-9.472,1.278,1.278,0,0,0,1.265,1.1H64.072a5.059,5.059,0,0,0-.71,2.555v2.555H62.084A1.278,1.278,0,0,0,60.807,69.31Zm12.776,8.943H63.362V70.588H73.583Z" transform="translate(0 -14.373)"/></g><g transform="translate(67.195 58.77)"><rect class="b" width="2.555" height="2.555"/></g><g transform="translate(35.255 51.104)"><rect class="b" width="2.555" height="2.555"/></g><g transform="translate(40.365 51.104)"><rect class="b" width="3.833" height="2.555"/></g><g transform="translate(46.753 51.104)"><rect class="b" width="11.498" height="2.555"/></g><g transform="translate(48.031 19.164)"><path class="b" d="M305.869,136.932v-2.555h-2.555v2.555h-2.555v2.555h2.555v2.555h2.555v-2.555h2.555v-2.555Z" transform="translate(-300.759 -134.377)"/></g><g transform="translate(63.362 21.72)"><rect class="b" width="7.666" height="2.555"/></g><g transform="translate(48.25 32.315)"><path class="b" d="M309.361,218.527l-1.806-1.807-1.807,1.807-1.806-1.807-1.807,1.807,1.807,1.807-1.807,1.808,1.807,1.806,1.806-1.808,1.807,1.808,1.806-1.806-1.806-1.808Z" transform="translate(-302.135 -216.721)"/></g><g transform="translate(63.362 34.496)"><rect class="b" width="7.666" height="2.555"/></g><g transform="translate(65.917 37.69)"><rect class="b" width="2.555" height="1.278"/></g><g transform="translate(65.917 32.579)"><rect class="b" width="2.555" height="1.278"/></g></g><g transform="translate(1043 525.034)"><g transform="translate(0)"><path class="b" d="M66.69,7.061H43.152V4.708A4.721,4.721,0,0,0,38.445,0H5.492A4.721,4.721,0,0,0,.784,4.708V30.6c0,12.946,12.357,12.946,16.477,12.946a1.177,1.177,0,0,0,0-2.354,4.721,4.721,0,0,1-4.708-4.708v-.471A4.951,4.951,0,0,1,17.5,31.776H33.737V34.13H23.145a1.112,1.112,0,0,0-1.177,1.177,10.566,10.566,0,0,0,2.825,7.179,11.377,11.377,0,0,0-.471,3.413,11.894,11.894,0,0,0,7.061,10.827c0,.706-.353,2.118-3.531,2.118a5.827,5.827,0,0,0-5.884,5.884v5.884h2.354V64.729a3.5,3.5,0,0,1,3.3-3.531l5.767,2.825a8.171,8.171,0,0,0,1.53.588v6h2.354v-6a5.826,5.826,0,0,0,1.53-.471l5.767-2.825a3.5,3.5,0,0,1,3.3,3.531v5.884h2.354V64.847a5.827,5.827,0,0,0-5.884-5.884c-3.178,0-3.531-1.412-3.531-2.118A11.714,11.714,0,0,0,47.86,45.664V44.84a9.326,9.326,0,0,0-1.177-4.708h7.885a4.951,4.951,0,0,1,4.943,4.237,4.748,4.748,0,0,1-4.237,5.178H54.8a1.177,1.177,0,1,0,0,2.354c4.119,0,16.477,0,16.477-12.946V11.769A4.549,4.549,0,0,0,66.69,7.061ZM17.5,29.422a7.358,7.358,0,0,0-7.3,6.355,7.4,7.4,0,0,0,1.412,4.943C5.845,39.544,3.138,36.366,3.138,30.6V4.708A2.361,2.361,0,0,1,5.492,2.354H38.445A2.361,2.361,0,0,1,40.8,4.708V27.069a2.361,2.361,0,0,1-2.354,2.354Zm6.944,7.061H37.268a8.234,8.234,0,0,1,8.121,7.061H32.56A8.234,8.234,0,0,1,24.44,36.484ZM39.268,54.726a1.13,1.13,0,0,0-.824,1.059v.706a4.142,4.142,0,0,0,2.354,4l-3.06,1.53a4.3,4.3,0,0,1-3.413,0l-2.942-1.53a4.142,4.142,0,0,0,2.354-4V55.9a1.13,1.13,0,0,0-.824-1.059A9.53,9.53,0,0,1,26.676,45.9a7.237,7.237,0,0,1,.118-1.648A10.658,10.658,0,0,0,32.56,45.9H45.506A9.266,9.266,0,0,1,39.268,54.726ZM69.044,38.838c0,5.767-2.707,8.944-8.474,10.121a7.4,7.4,0,0,0,1.412-4.943,7.271,7.271,0,0,0-7.3-6.355H45.153a10.522,10.522,0,0,0-7.885-3.531H36.091V31.776h2.354a4.721,4.721,0,0,0,4.708-4.708V9.415H66.69a2.361,2.361,0,0,1,2.354,2.354V38.838Z" transform="translate(-0.784)"/></g><g transform="translate(9.415 4.708)"><path class="b" d="M82.437,40.238H81.261a1.112,1.112,0,0,1-1.177-1.177V35.531a3.531,3.531,0,1,0-7.061,0v3.531a1.112,1.112,0,0,1-1.177,1.177,1.112,1.112,0,0,0-1.177-1.177H65.961a1.112,1.112,0,0,0-1.177,1.177V53.184a1.112,1.112,0,0,0,1.177,1.177h4.708a1.112,1.112,0,0,0,1.177-1.177H82.437a3.468,3.468,0,0,0,3.531-3.531V43.769A3.468,3.468,0,0,0,82.437,40.238ZM69.492,52.007H67.138V41.415h2.354Zm14.123-2.354a1.112,1.112,0,0,1-1.177,1.177H71.845V42.592a3.468,3.468,0,0,0,3.531-3.531V35.531a1.177,1.177,0,1,1,2.354,0v3.531a3.468,3.468,0,0,0,3.531,3.531h1.177a1.112,1.112,0,0,1,1.177,1.177Z" transform="translate(-64.784 -32)"/></g><g transform="translate(44.722 11.769)"><path class="b" d="M324.791,80h-4.708a1.112,1.112,0,0,0-1.177,1.177H308.315a3.468,3.468,0,0,0-3.531,3.531v5.884a3.468,3.468,0,0,0,3.531,3.531h1.177a1.112,1.112,0,0,1,1.177,1.177V98.83a3.531,3.531,0,1,0,7.061,0V95.3a1.112,1.112,0,0,1,1.177-1.177,1.112,1.112,0,0,0,1.177,1.177h4.708a1.112,1.112,0,0,0,1.177-1.177V81.177A1.112,1.112,0,0,0,324.791,80Zm-5.884,11.769a3.468,3.468,0,0,0-3.531,3.531V98.83a1.177,1.177,0,1,1-2.354,0V95.3a3.468,3.468,0,0,0-3.531-3.531h-1.177a1.112,1.112,0,0,1-1.177-1.177V84.708a1.112,1.112,0,0,1,1.177-1.177h10.592Zm4.708,1.177h-2.354V82.354h2.354Z" transform="translate(-304.784 -80)"/></g><g transform="translate(43.545 30.599)"><rect class="b" width="4.708" height="2.354"/></g><g transform="translate(28.245 4.708)"><path class="b" d="M196.315,33.177V32h-2.354v1.177h-1.177v2.354h1.177v1.177h2.354V35.531h1.177V33.177Z" transform="translate(-192.784 -32)"/></g></g><g transform="translate(1026.354 224.465)"><g transform="translate(68.204 15.158)"><path class="b" d="M314.51,101.761l-1.895-26.526a1.9,1.9,0,0,0-1.895-1.76h-1.895V71.581a7.579,7.579,0,1,0-15.157,0v1.895h-1.895a1.9,1.9,0,0,0-1.895,1.76l-1.895,26.526a1.9,1.9,0,0,0,1.755,2.024q.07,0,.139,0h22.736a1.9,1.9,0,0,0,1.9-1.89C314.515,101.854,314.513,101.808,314.51,101.761Zm-17.052-30.18a3.789,3.789,0,0,1,7.579,0v1.895h-7.579ZM291.914,100l1.624-22.736h15.419L310.58,100Z" transform="translate(-287.979 -64.002)"/></g><g transform="translate(0 0)"><path class="b" d="M105.34,10.57A32.147,32.147,0,0,0,58.792,9.405,17.117,17.117,0,0,0,43.578,0H24.631A17.073,17.073,0,0,0,7.579,17.054V41.685a26.526,26.526,0,0,0,15.157,23.93v8.28H12.672A12.694,12.694,0,0,0,0,86.566v25.222a1.9,1.9,0,0,0,1.895,1.895H66.314a1.9,1.9,0,0,0,1.895-1.895V86.566a12.694,12.694,0,0,0-12.67-12.672H45.472V65.609a26.676,26.676,0,0,0,12.173-11.8A32.189,32.189,0,0,0,105.34,10.57ZM11.368,17.054A13.278,13.278,0,0,1,24.631,3.791H43.578a13.3,13.3,0,0,1,12.063,7.821,21.907,21.907,0,0,0-3.054-.243,22.848,22.848,0,0,0-18.325,9.339l-2.241-4.5a1.894,1.894,0,0,0-1.393-1.023,1.914,1.914,0,0,0-1.643.531l-7.241,7.232L11.368,25.91ZM47.1,77.684h8.441a8.892,8.892,0,0,1,8.88,8.882v23.327H3.789V86.566a8.892,8.892,0,0,1,8.882-8.882h8.439a7.579,7.579,0,0,0,7.31,5.684H39.788A7.579,7.579,0,0,0,47.1,77.684Zm-3.748-.652a3.789,3.789,0,0,1-3.562,2.546H28.42a3.789,3.789,0,0,1-3.562-2.546,3.789,3.789,0,0,0,1.667-3.138v-6.8a26.059,26.059,0,0,0,15.157-.017v6.819A3.789,3.789,0,0,0,43.35,77.032ZM34.1,64.421A22.761,22.761,0,0,1,11.368,41.685V29.851l11.889-3.4a1.884,1.884,0,0,0,.819-.481l5.72-5.72,2.168,4.337a22.344,22.344,0,0,0-1.178,3.1,1.895,1.895,0,0,0,2.713,2.2,28.479,28.479,0,0,1,13.4-3.361,23.974,23.974,0,0,1,2.855.18,31.562,31.562,0,0,0-.5,5.5,32.02,32.02,0,0,0,5.747,18.314A22.819,22.819,0,0,1,34.1,64.421ZM104.07,49.453a28.384,28.384,0,0,1-50.2-23.873,1.9,1.9,0,0,0-1.4-2.284c-.038-.009-.076-.017-.115-.024a30.983,30.983,0,0,0-5.447-.534,32.286,32.286,0,0,0-10.665,1.819,19.066,19.066,0,0,1,16.349-9.4,18.807,18.807,0,0,1,4.369.531A1.9,1.9,0,0,0,58.9,15,28.407,28.407,0,1,1,104.07,49.453Z" transform="translate(0 -0.002)"/></g><g transform="translate(62.524 13.263)"><path class="b" d="M269.684,57.9V56h-3.789V57.9H264v3.789h1.895v1.895h3.789V61.686h1.895V57.9Z" transform="translate(-264 -56.002)"/></g><g transform="translate(98.523 26.526)"><path class="b" d="M421.684,113.9V112h-3.789V113.9H416v3.789h1.895v1.895h3.789v-1.895h1.895V113.9Z" transform="translate(-416 -112.002)"/></g><g transform="translate(92.839 17.052)"><rect class="b" width="3.789" height="3.789"/></g><g transform="translate(79.576 7.579)"><rect class="b" width="3.789" height="3.789"/></g><g transform="translate(33.78 86.356)"><path class="b" d="M164.351,367.094l-.809-.809a5.7,5.7,0,0,0-7.171-.709l-2.048,1.364-2.048-1.364a5.7,5.7,0,0,0-7.171.709l-.809.809a5.684,5.684,0,0,0,0,8.037l8.689,8.689a1.9,1.9,0,0,0,2.679,0l8.689-8.689A5.684,5.684,0,0,0,164.351,367.094Zm-2.679,5.358-7.349,7.346-7.349-7.349a1.9,1.9,0,0,1,0-2.679l.809-.809a1.9,1.9,0,0,1,2.391-.235l3.1,2.065a1.894,1.894,0,0,0,2.1,0l3.1-2.065a1.9,1.9,0,0,1,2.391.235v0l.809.809A1.9,1.9,0,0,1,161.671,372.453Z" transform="translate(-142.629 -364.626)"/></g><g transform="translate(23.494 49.83)"><path class="b" d="M117.931,210.4a11.373,11.373,0,0,1-16.078.163L99.2,213.271a15.157,15.157,0,0,0,21.435-.212l0,0Z" transform="translate(-99.2 -210.402)"/></g><g transform="translate(22.736 37.894)"><rect class="b" width="3.789" height="3.789"/></g><g transform="translate(41.683 37.894)"><rect class="b" width="3.789" height="3.789"/></g></g><g transform="translate(998.583 432.659)"><g transform="translate(37.636 28.781)"><path class="b" d="M297.46,208H275.321A3.321,3.321,0,0,0,272,211.321v30.994a3.321,3.321,0,0,0,3.321,3.321H297.46a3.321,3.321,0,0,0,3.321-3.321V211.321A3.321,3.321,0,0,0,297.46,208Zm-12.176,35.422h-9.962a1.107,1.107,0,0,1-1.107-1.107v-7.749h11.069Zm0-11.069H274.214V223.5h11.069Zm13.283,9.962a1.107,1.107,0,0,1-1.107,1.107H287.5v-8.856h11.069Zm0-9.962H287.5V223.5h11.069Zm0-11.069H274.214v-9.963a1.107,1.107,0,0,1,1.107-1.107H297.46a1.107,1.107,0,0,1,1.107,1.107Z" transform="translate(-272 -208)"/></g><g transform="translate(42.064 33.208)"><path class="b" d="M322.818,240H305.107A1.107,1.107,0,0,0,304,241.107v4.428a1.107,1.107,0,0,0,1.107,1.107h17.711a1.107,1.107,0,0,0,1.107-1.107v-4.428A1.107,1.107,0,0,0,322.818,240Zm-1.107,4.428h-15.5v-2.214h15.5Z" transform="translate(-304 -240)"/></g><g transform="translate(42.064 45.385)"><path class="b" d="M308.428,330.214V328h-2.214v2.214H304v2.214h2.214v2.214h2.214v-2.214h2.214v-2.214Z" transform="translate(-304 -328)"/></g><g transform="translate(55.347 47.599)"><rect class="b" width="6.642" height="2.214"/></g><g transform="translate(42.254 56.778)"><path class="b" d="M311.637,411.909l-1.565-1.565-1.565,1.565-1.565-1.565-1.565,1.565,1.565,1.565-1.565,1.565,1.565,1.565,1.565-1.565,1.565,1.565,1.565-1.565-1.565-1.565Z" transform="translate(-305.376 -410.344)"/></g><g transform="translate(55.347 58.668)"><rect class="b" width="6.642" height="2.214"/></g><g transform="translate(57.561 61.435)"><rect class="b" width="2.214" height="1.107"/></g><g transform="translate(57.561 57.008)"><rect class="b" width="2.214" height="1.107"/></g><path class="b" d="M44.278,0h-32.1V.01a1.1,1.1,0,0,0-.783.314L.324,11.394a1.1,1.1,0,0,0-.314.783H0V64.2a2.214,2.214,0,0,0,2.214,2.214H35.422V64.2H28.781V60.882h2.214A1.107,1.107,0,0,0,32.1,59.775V54.24a1.107,1.107,0,0,0-1.107-1.107H28.781V49.812h2.214A1.107,1.107,0,0,0,32.1,48.706V43.171a1.107,1.107,0,0,0-1.107-1.107h-.029a11.069,11.069,0,1,0-13.226,0H8.856a1.107,1.107,0,0,0-1.107,1.107V47.6H5.535a1.107,1.107,0,0,0-1.107,1.107V54.24a1.107,1.107,0,0,0,1.107,1.107H7.749v3.321H5.535a1.107,1.107,0,0,0-1.107,1.107V64.2H2.214V13.283h8.856a2.214,2.214,0,0,0,2.214-2.214V2.214H44.278V26.567h2.214V2.214A2.214,2.214,0,0,0,44.278,0ZM29.888,55.347v3.321H9.963V55.347ZM15.5,33.208a8.856,8.856,0,1,1,8.856,8.856A8.856,8.856,0,0,1,15.5,33.208ZM9.963,44.278H29.888V47.6H9.963ZM6.642,53.133V49.812H26.567v3.321H6.642Zm0,7.749H26.567V64.2H6.642Zm4.428-49.813H3.779l7.29-7.29Z"/><g transform="translate(21.032 26.567)"><path class="b" d="M155.321,195.321h3.321v-2.214h-2.214V192h-2.214v1.311a3.313,3.313,0,0,0,1.107,6.438,1.107,1.107,0,0,1,0,2.214H152v2.214h2.214v1.107h2.214v-1.311a3.313,3.313,0,0,0-1.107-6.438,1.107,1.107,0,0,1,0-2.214Z" transform="translate(-152 -192)"/></g><g transform="translate(48.706)"><path class="b" d="M365.283,5.535h-2.214a1.107,1.107,0,0,0-1.107-1.107h-1.107V1.107A1.107,1.107,0,0,0,359.749,0h-4.428a1.107,1.107,0,0,0-1.107,1.107V4.428h-1.107A1.107,1.107,0,0,0,352,5.535V26.567h2.214V6.642h6.642V26.567h2.214V7.749h2.214v14.39H367.5V7.749A2.214,2.214,0,0,0,365.283,5.535Zm-6.642-1.107h-2.214V2.214h2.214Z" transform="translate(-352)"/></g><g transform="translate(16.604 8.856)"><rect class="b" width="18.818" height="2.214"/></g><g transform="translate(4.428 15.497)"><rect class="b" width="37.636" height="2.214"/></g><g transform="translate(4.428 19.925)"><rect class="b" width="13.283" height="2.214"/></g><g transform="translate(32.101 19.925)"><rect class="b" width="9.963" height="2.214"/></g></g><g transform="translate(1287.759 153.623)"><g transform="translate(44.201 40.534)"><path class="b" d="M236.831,181.194a33.153,33.153,0,0,0-42.676,42.719l3.445-1.3a29.435,29.435,0,1,1,17.177,17.177l-1.3,3.445a33.145,33.145,0,0,0,23.354-62.04Z" transform="translate(-192.03 -179.069)"/></g><g transform="translate(60.767 57.101)"><path class="b" d="M288.854,253.266A16.573,16.573,0,0,0,266.218,275.9l3.187-1.841a12.894,12.894,0,1,1,4.731,4.731l-1.841,3.188a16.573,16.573,0,0,0,16.559-28.712Z" transform="translate(-264.002 -251.047)"/></g><g transform="translate(51.562 47.942)"><path class="b" d="M259.645,213.234A25.752,25.752,0,0,0,226,246.936l3.4-1.422a22.073,22.073,0,1,1,11.9,11.892l-1.418,3.388a25.752,25.752,0,0,0,19.767-47.56Z" transform="translate(-224.01 -211.256)"/></g><g transform="translate(0 0)"><path class="b" d="M77.345,69.282a7.366,7.366,0,0,0-7.366,7.366,7.268,7.268,0,0,0,1.044,3.718L60.16,91.23l-8.226-1.655a1.841,1.841,0,0,0-1.86.737L40.867,103.2a1.842,1.842,0,0,0,.921,2.817l1.4.466a36.929,36.929,0,0,1-15.249,3.309H5.531a1.841,1.841,0,0,1,0-3.683h25.78a5.524,5.524,0,1,0,0-11.048H5.531a1.841,1.841,0,1,1,0-3.683h12.89A11.048,11.048,0,0,0,29.349,81.87a5.511,5.511,0,0,0,3.8-5.222V74.806a5.524,5.524,0,0,0,5.524-5.524V55.912a27.621,27.621,0,1,0-22.1,0v13.37A5.524,5.524,0,0,0,22.1,74.806v1.841a5.524,5.524,0,0,0,3.535,5.139A7.375,7.375,0,0,1,18.421,87.7H5.531a5.524,5.524,0,1,0,0,11.048h25.78a1.841,1.841,0,1,1,0,3.683H5.531a5.524,5.524,0,1,0,0,11.048H27.939a40.61,40.61,0,0,0,18.9-4.681l1.14,3.421a1.842,1.842,0,0,0,1.747,1.259,1.822,1.822,0,0,0,1.07-.344l12.89-9.207a1.842,1.842,0,0,0,.737-1.858l-1.648-8.24L73.637,82.962a7.269,7.269,0,0,0,3.709,1.051,7.366,7.366,0,1,0,0-14.731ZM29.469,76.648a1.841,1.841,0,1,1-3.683,0V74.806h3.683ZM34.993,65.6H20.262V63.758H34.993Zm0-5.524H20.262V57.206a26.914,26.914,0,0,0,14.731,0ZM26.4,41.661h2.447l-1.074,12.89H27.48ZM3.69,30.613a23.938,23.938,0,1,1,27.805,23.6l1.046-12.547h4.294a7.366,7.366,0,1,0-7.366-7.518l-.313,3.836H26.094L25.786,34.3a7.366,7.366,0,1,0-7.366,7.366h4.29l1.046,12.547A23.955,23.955,0,0,1,3.69,30.613Zm29.157,7.366.306-3.683a3.683,3.683,0,1,1,3.683,3.683Zm-10.443,0H18.421a3.683,3.683,0,1,1,0-7.366A3.731,3.731,0,0,1,22.1,34.39c0,.02,0,.039,0,.059Zm-.3,33.145a1.841,1.841,0,0,1-1.841-1.841H34.993a1.841,1.841,0,0,1-1.841,1.841ZM47.386,104l-2.081-.694,7.067-9.892,4.666.934Zm3.3,4.685-.694-2.079,9.653-9.651.932,4.662ZM77.345,80.331a3.615,3.615,0,0,1-.941-.138l2.243-2.243-2.6-2.6L73.8,77.589a3.616,3.616,0,0,1-.138-.941,3.683,3.683,0,1,1,3.683,3.683Z" transform="translate(0 -2.969)"/></g><g transform="translate(57.856 2.653)"><path class="b" d="M261.524,40.448c.077-.991.116-1.908.116-2.8a40.268,40.268,0,0,0-7.262-23.15l-3.02,2.107a36.1,36.1,0,0,1,6.231,25.984,1.839,1.839,0,0,0,2.3,2.024,42.731,42.731,0,0,1,32.136,4.235l1.841-3.189A46.376,46.376,0,0,0,261.524,40.448Z" transform="translate(-251.358 -14.493)"/></g><g transform="translate(105.359 39.153)"><path class="b" d="M460.17,173.069l-2.436,2.762a42.468,42.468,0,0,1,3.753,3.753l2.762-2.44A46.764,46.764,0,0,0,460.17,173.069Z" transform="translate(-457.734 -173.069)"/></g></g><g transform="translate(1082.725 454.821)"><g transform="translate(0 0)"><path class="b" d="M59.61,41.446h0v0l-3.9-.557a1,1,0,0,1-.461-1.8l1.279-.957H59.2a1,1,0,0,0,1-1V1a1,1,0,0,0-1-1H1A1,1,0,0,0,0,1V37.128a1,1,0,0,0,1,1H3.6l-1.3,1.3a1,1,0,0,0-.116,1.278L4.091,43.48l-3.3.692A1,1,0,0,0,0,45.155v4.014a1,1,0,0,0,.8.982l3.3.693L2.188,53.617A1,1,0,0,0,2.3,54.9l3.01,3.01a1,1,0,0,0,1.278.116l2.772-1.907.693,3.3a1,1,0,0,0,.978.793h4.014a1,1,0,0,0,.982-.8l.693-3.3L19.5,58.022a1,1,0,0,0,1.278-.116l3.01-3.01a1,1,0,0,0,.116-1.278L22,50.844l3.3-.692a1,1,0,0,0,.793-.982V45.155a1,1,0,0,0-.8-.982l-3.3-.693L23.9,40.707a1,1,0,0,0-.116-1.278l-1.293-1.3h4.141l-.8,5.584a1,1,0,0,0,.849,1.137l.013,0,3.9.557a1,1,0,0,1,.461,1.8L27.9,49.57a1,1,0,0,0-.2,1.4l3.612,4.816a1,1,0,0,0,1.4.2l3.154-2.366a1,1,0,0,1,1.6.945l-.558,3.9a1,1,0,0,0,.851,1.136h0l5.959.851a.968.968,0,0,0,.142.011,1,1,0,0,0,.993-.862l.558-3.9a1,1,0,0,1,1.8-.461L49.569,58.4a1,1,0,0,0,1.4.2l4.816-3.612a1,1,0,0,0,.2-1.4L53.625,50.43a1,1,0,0,1,.945-1.6l3.9.557a1,1,0,0,0,1.136-.851h0l.852-5.959A1,1,0,0,0,59.61,41.446ZM24.082,45.97v2.384l-2.5.526a2.007,2.007,0,0,0-1.239,3.1l1.433,2.084L19.95,55.892l-2.084-1.437a2.007,2.007,0,0,0-3.1,1.239L14.237,58.2H11.852l-.527-2.5a2.007,2.007,0,0,0-3.1-1.24L6.139,55.892,4.315,54.068l1.437-2.084a2.007,2.007,0,0,0-1.239-3.1l-2.506-.526V45.97l2.5-.526a2.007,2.007,0,0,0,1.239-3.1L4.315,40.256l1.824-1.824,2.089,1.433a2.007,2.007,0,0,0,3.1-1.239l.522-2.5h2.384l.527,2.5a2.007,2.007,0,0,0,3.1,1.24l2.084-1.433,1.824,1.824-1.433,2.089a2.007,2.007,0,0,0,1.239,3.1ZM17.326,37.8l-.6.413-.693-3.3a1,1,0,0,0-.979-.8H13.045V27.093h4.014V37.128A.992.992,0,0,0,17.326,37.8Zm4.749-16.726a1,1,0,0,0-1,1V36.124H19.065V26.09a1,1,0,0,0-1-1H12.041a1,1,0,0,0-1,1v8.027a1,1,0,0,0-.982.8l-.693,3.3L6.589,36.3a.983.983,0,0,0-.569-.167v-.011H2.007V2.008H58.2V34.787l-3.211-4.282a1,1,0,0,0-1.4-.2l-3.154,2.366a1,1,0,0,1-1.6-.945l.558-3.9a.991.991,0,0,0-.224-.774V9.032a1,1,0,0,0-1-1H42.144a1,1,0,0,0-1,1V28.813l-.254,1.776a1,1,0,0,1-1.753.5V14.049a1,1,0,0,0-1-1H32.11a1,1,0,0,0-1,1V30.856l-.6.452a1,1,0,0,0-.2,1.4l2.366,3.154a1,1,0,0,1-.945,1.6L29.1,37.088V22.076a1,1,0,0,0-1-1ZM47.161,10.035V26.491l-4.014-.574V10.035ZM37.127,15.052v13.38l-.4-.536a1,1,0,0,0-1.4-.2l-2.208,1.656v-14.3h4.014ZM27.092,36.124H23.079V23.08h4.014ZM57.763,47.262l-2.91-.415a3.01,3.01,0,0,0-2.834,4.786l1.764,2.352-3.211,2.408L48.81,54.042a3.01,3.01,0,0,0-5.389,1.38L43,58.332l-3.972-.568.415-2.91a3.01,3.01,0,0,0-4.785-2.834L32.31,53.785,29.9,50.574l2.35-1.763a3.01,3.01,0,0,0-1.38-5.388l-2.91-.416.568-3.973,2.91.415a3.01,3.01,0,0,0,2.834-4.786l-1.763-2.351L35.722,29.9l1.763,2.351a3.01,3.01,0,0,0,5.389-1.38l.415-2.91,3.973.568-.415,2.91a3.01,3.01,0,0,0,4.785,2.834l2.352-1.764,2.408,3.211-2.35,1.763a3.01,3.01,0,0,0,1.38,5.388l2.91.416Z" transform="translate(0 -0.001)"/></g><g transform="translate(7.024 41.14)"><path class="b" d="M62.021,328a6.021,6.021,0,1,0,6.021,6.021A6.021,6.021,0,0,0,62.021,328Zm0,10.034a4.014,4.014,0,1,1,4.014-4.014A4.014,4.014,0,0,1,62.021,338.035Z" transform="translate(-56 -328.001)"/></g><g transform="translate(35.12 35.12)"><path class="b" d="M288.027,280a8.027,8.027,0,1,0,8.027,8.027A8.027,8.027,0,0,0,288.027,280Zm0,14.048a6.021,6.021,0,1,1,6.021-6.021A6.02,6.02,0,0,1,288.027,294.049Z" transform="translate(-280 -280.001)"/></g><g transform="translate(10.53 3.03)"><path class="b" d="M113.76,25.164l-5.017-1-.4,1.967,2.432.488L83.952,42.34l1.015,1.732,27.169-15.926-.564,2.819,1.967.393,1-5.017A1,1,0,0,0,113.76,25.164Z" transform="translate(-83.952 -24.161)"/></g><g transform="translate(4.014 27.092)"><rect class="b" width="2.007" height="7.024"/></g><g transform="translate(4.014 23.079)"><rect class="b" width="2.007" height="2.007"/></g><g transform="translate(54.185 13.045)"><rect class="b" width="2.007" height="15.051"/></g><g transform="translate(54.185 9.031)"><rect class="b" width="2.007" height="2.007"/></g><g transform="translate(23.079 57.195)"><rect class="b" width="2.007" height="2.007"/></g><g transform="translate(27.092 57.195)"><rect class="b" width="2.007" height="2.007"/></g><g transform="translate(31.106 57.195)"><rect class="b" width="2.007" height="2.007"/></g></g><g transform="translate(1026.354 356.549)"><g transform="translate(8.087 41.435)"><rect class="b" width="8.085" height="2.021"/></g><g transform="translate(8.087 44.467)"><path class="b" d="M64.017,352.009v2.021h1.011v1.011a3.032,3.032,0,0,0,6.064,0V354.03H72.1v-2.021Zm5.053,3.032a1.011,1.011,0,0,1-2.021,0V354.03H69.07Z" transform="translate(-64.017 -352.009)"/></g><g transform="translate(4.606 26.278)"><path class="b" d="M47.465,208.136a1.011,1.011,0,0,0-1.011.064l-2.473,1.644L41.51,208.2a1.011,1.011,0,0,0-1.011-.064l-4.042,2.021.9,1.809,3.518-1.759,2.544,1.7a1.01,1.01,0,0,0,1.122,0l2.542-1.7,3.518,1.765.9-1.809Z" transform="translate(-36.457 -208.027)"/></g><g transform="translate(0 16.169)"><path class="b" d="M56.6,147.2v-2.021H52.463a6.048,6.048,0,0,0-10.015-3.5v-.546a1.011,1.011,0,0,0-1.011-1.011H29.31a11.064,11.064,0,0,0-5.121,1.268,12.171,12.171,0,1,0-5.972,9.2c-.013.214-.024.43-.024.645A11.13,11.13,0,0,0,29.31,162.363H41.438a1.011,1.011,0,0,0,1.011-1.011V156.3a1.011,1.011,0,0,0-1.011-1.011H29.31a4.042,4.042,0,1,1,0-8.085H40.518a6.07,6.07,0,0,0,5.973,5.053h8.085v-2.021H51a6.041,6.041,0,0,0,1.465-3.032Zm-41.62,2.616,1.178-6.478-1.989-.362L12.852,150.2c-.241.017-.48.036-.725.036s-.482-.019-.723-.036l-1.314-7.219-1.989.362L9.28,149.82a10.106,10.106,0,1,1,5.7,0Zm23.429,7.49h2.021v3.032H38.406Zm-2.021-12.127H29.31a6.064,6.064,0,0,0,0,12.127h7.074v3.032H29.31a9.046,9.046,0,0,1-8.754-11.509,12.14,12.14,0,0,0,2.963-4.579,9.073,9.073,0,0,1,5.791-2.1h7.074v3.032Zm4.042,0H38.406v-3.032h2.021Zm6.064,5.053a4.042,4.042,0,1,1,4.042-4.042A4.043,4.043,0,0,1,46.491,150.235Z" transform="translate(0 -128.001)"/></g><g transform="translate(12.13 9.096)"><rect class="b" width="2.021" height="4.042"/></g><g transform="translate(27.289 23.244)"><rect class="b" width="4.042" height="2.021"/></g><g transform="translate(25.238 15.547)"><g transform="translate(0 0)"><rect class="b" width="4.042" height="2.021" transform="translate(0 2.108) rotate(-31.427)"/></g></g><g transform="translate(19.766 10.646)"><g transform="translate(0 0)"><rect class="b" width="4.042" height="2.021" transform="matrix(0.464, -0.886, 0.886, 0.464, 0, 3.581)"/></g></g><g transform="translate(30.321 0)"><path class="b" d="M243.049,3.041h3.032V1.02H244.06V.009h-2.021v1.2a3.025,3.025,0,0,0,1.011,5.878,1.011,1.011,0,1,1,0,2.021h-3.032v2.021h2.021v1.011h2.021v-1.2a3.025,3.025,0,0,0-1.011-5.878,1.011,1.011,0,0,1,0-2.021Z" transform="translate(-240.017 -0.009)"/></g><g transform="translate(40.374 4.997)"><path class="b" d="M330.226,41.586a6.092,6.092,0,1,0-2.49,9.805v.525a9.447,9.447,0,0,1-4.563,8.059l1.041,1.732a11.476,11.476,0,0,0,5.543-9.791V50.189A6.092,6.092,0,0,0,330.226,41.586Zm-4.511,8.138a4.042,4.042,0,1,1,4.042-4.042A4.042,4.042,0,0,1,325.715,49.724Z" transform="translate(-319.598 -39.561)"/></g><g transform="translate(58.618 33.351)"><rect class="b" width="2.021" height="2.021"/></g><g transform="translate(43.949 48.654)"><path class="b" d="M348.938,385.153l-1.041,1.732a9.446,9.446,0,0,1,4.563,8.059v2.192h2.021v-2.192A11.475,11.475,0,0,0,348.938,385.153Z" transform="translate(-347.897 -385.153)"/></g><g transform="translate(56.597 38.404)"><rect class="b" width="2.021" height="2.021"/></g><g transform="translate(54.576 14.149)"><path class="b" d="M435.049,115.041h3.032V113.02H436.06v-1.011h-2.021v1.2a3.025,3.025,0,0,0,1.011,5.878,1.011,1.011,0,1,1,0,2.021h-3.032v2.021h2.021v1.011h2.021v-1.2a3.025,3.025,0,0,0-1.011-5.878,1.011,1.011,0,0,1,0-2.021Z" transform="translate(-432.017 -112.009)"/></g><g transform="translate(51.544 43.457)"><path class="b" d="M411.049,347.041h3.032V345.02H412.06v-1.011h-2.021v1.2a3.025,3.025,0,0,0,1.011,5.878,1.011,1.011,0,1,1,0,2.021h-3.032v2.021h2.021v1.011h2.021v-1.2a3.025,3.025,0,0,0-1.011-5.878,1.011,1.011,0,0,1,0-2.021Z" transform="translate(-408.017 -344.009)"/></g><g transform="translate(44.992 31.329)"><path class="b" d="M359.055,251.529a1.516,1.516,0,0,0-1.406-.993.505.505,0,1,1,0-1.011h1.011v-1.011h-.505v-.505h-1.011v.6a1.516,1.516,0,0,0,.505,2.939.505.505,0,0,1,0,1.011h-1.011v1.011h.505v.505h1.011v-.6A1.516,1.516,0,0,0,359.055,251.529Z" transform="translate(-356.15 -248.009)"/></g><g transform="translate(44.992 8.085)"><path class="b" d="M359.055,67.529a1.516,1.516,0,0,0-1.406-.993.505.505,0,1,1,0-1.011h1.011V64.514h-.505v-.505h-1.011v.6a1.516,1.516,0,0,0,.505,2.939.505.505,0,0,1,0,1.011h-1.011v1.011h.505v.505h1.011v-.6A1.516,1.516,0,0,0,359.055,67.529Z" transform="translate(-356.15 -64.009)"/></g></g><g transform="translate(1091.272 379.931)"><g transform="translate(0)"><path class="b" d="M63,0H1.243A1.065,1.065,0,0,0,.178,1.065V47.917a1.065,1.065,0,0,0,1.065,1.065H5.5v-2.13H2.308V19.167H34.252A1.065,1.065,0,0,0,35.317,18.1V2.13h3.194v18.1a1.065,1.065,0,0,0,.662.986l22.764,9.313v6.213L45.306,29.895a1.066,1.066,0,0,0-.406-.08H39.577a1.065,1.065,0,0,0-1.065,1.065V39.4h2.13V31.945h4.046l17.25,7.1v7.805h-18.1v2.13H63a1.065,1.065,0,0,0,1.065-1.065V1.065A1.065,1.065,0,0,0,63,0ZM15.086,17.037H2.308V2.13H15.086Zm18.1,0H17.215V2.13H33.188Zm28.75,11.191-21.3-8.711V2.13h21.3Z" transform="translate(-0.178)"/></g><g transform="translate(4.177 21.214)"><path class="b" d="M72.251,190.048l-.095-.095-5.469-5.469.844-.844-1.506-1.506-3.506,3.506L61,184.119a16.013,16.013,0,1,0-4.7,4.7l1.522,1.522-3.506,3.506,1.506,1.506.844-.844,5.469,5.469a7.089,7.089,0,0,0,10.119-9.93Zm-24.639-.772a13.843,13.843,0,1,1,13.843-13.843A13.859,13.859,0,0,1,47.611,189.276ZM59.7,185.838l1.309,1.309-1.689,1.689-1.309-1.309A16.228,16.228,0,0,0,59.7,185.838ZM70.65,198.472a4.959,4.959,0,0,1-7.013,0L58.168,193l7.013-7.013,5.469,5.469A4.959,4.959,0,0,1,70.65,198.472Z" transform="translate(-31.556 -159.378)"/></g><g transform="translate(8.519 25.556)"><path class="b" d="M75.891,192A11.713,11.713,0,1,0,87.6,203.713,11.713,11.713,0,0,0,75.891,192Zm0,21.3a9.583,9.583,0,1,1,9.583-9.583A9.584,9.584,0,0,1,75.891,213.3Z" transform="translate(-64.178 -192)"/></g><g transform="translate(14.661 29.815)"><path class="b" d="M119.239,225.114a5.571,5.571,0,0,0-8.15,7.273L115,238.422a1.065,1.065,0,0,0,1.787,0l3.94-6.084A5.579,5.579,0,0,0,119.239,225.114Zm-.319,6.115-3.024,4.656-2.989-4.606a3.443,3.443,0,1,1,6.009-.05Z" transform="translate(-110.325 -224)"/></g><g transform="translate(19.167 34.074)"><rect class="b" width="2.13" height="2.13"/></g></g><g transform="translate(1012.929 577) rotate(180)"><g transform="translate(34.1 0)"><path class="b" d="M283.912,242.333c-2.79,0-3.1,1.24-3.1,1.86a10.285,10.285,0,0,1,6.2,9.817v.723a9.261,9.261,0,0,1-9.3,9.3h-12.4A.976.976,0,0,1,264.279,263a9.278,9.278,0,0,1,2.48-6.3,14.937,14.937,0,0,1-.413-3,10.443,10.443,0,0,1,6.2-9.507c0-.62-.31-1.86-3.1-1.86a5.117,5.117,0,0,1-5.167-5.167V232h2.067v5.167a3.045,3.045,0,0,0,3.1,3.1c3.2,0,5.167,1.55,5.167,4.133v.517a.993.993,0,0,1-.723.93,8.367,8.367,0,0,0-5.477,7.853,6.355,6.355,0,0,0,.1,1.447,9.358,9.358,0,0,1,5.063-1.447h11.367a8.135,8.135,0,0,0-5.477-7.75.993.993,0,0,1-.723-.93v-.62c0-2.583,1.963-4.133,5.167-4.133a3.045,3.045,0,0,0,3.1-3.1V232h2.067v5.167A5.117,5.117,0,0,1,283.912,242.333Zm-10.333,13.433a7.23,7.23,0,0,0-7.13,6.2h11.263a7.23,7.23,0,0,0,7.13-6.2Z" transform="translate(-264.279 -232)"/></g><g transform="translate(0 25.833)"><path class="b" d="M62.176,8.267V25.833a3.994,3.994,0,0,1-4.03,4.133H37.479v2.067a4.146,4.146,0,0,1-4.133,4.133H4.412A4.146,4.146,0,0,1,.279,32.034V9.3q0-6.51,4.65-9.3L5.962,1.757C3.586,3.307,2.346,5.683,2.346,9.3V32.034A2.073,2.073,0,0,0,4.412,34.1H33.346a2.073,2.073,0,0,0,2.067-2.067V12.4a2.073,2.073,0,0,0-2.067-2.067H14.952a6.461,6.461,0,0,1-6.407-5.58v-.62h2.067v.413a4.347,4.347,0,0,0,4.34,3.72H33.346A4.146,4.146,0,0,1,37.479,12.4h12.4a5.117,5.117,0,0,0,5.167-5.167h2.067a7.189,7.189,0,0,1-7.233,7.233h-12.4V27.9H58.146a2.073,2.073,0,0,0,2.067-2.067V8.267a9.009,9.009,0,0,0-1.86-5.993L59.9.93A10.4,10.4,0,0,1,62.176,8.267Z" transform="translate(-0.279)"/></g><g transform="translate(6.2 0)"><path class="b" d="M67.912,241.033a3.07,3.07,0,0,0-3.1,2.893,10.366,10.366,0,1,1-13.64,5.373,10.488,10.488,0,0,1,5.373-5.373,3.07,3.07,0,0,0-3.1-2.893,5.117,5.117,0,0,1-5.167-5.167v-4.133h2.067v4.133a3.045,3.045,0,0,0,3.1,3.1,5.117,5.117,0,0,1,5.167,5.167v.517a.993.993,0,0,1-.723.93,8.361,8.361,0,0,0-5.477,6.717h3.1a1.469,1.469,0,0,1,.62.207l2.48,1.653,2.48-1.653a1.469,1.469,0,0,1,.62-.207h7.13a8.188,8.188,0,0,0-5.477-6.717.993.993,0,0,1-.723-.93v-.517a5.117,5.117,0,0,1,5.167-5.167,3.045,3.045,0,0,0,3.1-3.1v-4.133h2.067v4.133A4.969,4.969,0,0,1,67.912,241.033Zm-5.89,13.433-2.79,1.86a1.119,1.119,0,0,1-1.137,0l-2.893-1.86H52.516a8.117,8.117,0,0,0,9.2,7.13,8.225,8.225,0,0,0,7.13-7.13Z" transform="translate(-48.279 -231.733)"/></g><g transform="translate(5.167 54.767)"><g transform="translate(0 0)"><rect class="b" width="21.7" height="2.067" transform="translate(0 0)"/></g></g><g transform="translate(5.167 50.634)"><g transform="translate(0 0)"><rect class="b" width="6.2" height="2.067" transform="translate(0 0)"/></g></g><g transform="translate(13.433 50.634)"><g transform="translate(0 0)"><rect class="b" width="15.5" height="2.067" transform="translate(0 0)"/></g></g><g transform="translate(5.167 46.5)"><g transform="translate(0 0)"><rect class="b" width="2.067" height="2.067"/></g></g><g transform="translate(9.3 46.5)"><g transform="translate(0 0)"><rect class="b" width="8.267" height="2.067"/></g></g><g transform="translate(19.633 46.5)"><g transform="translate(0 0)"><rect class="b" width="9.3" height="2.067"/></g></g><g transform="translate(43.4 47.534)"><g transform="translate(0 0)"><rect class="b" width="14.467" height="2.067" transform="translate(0 0)"/></g></g><g transform="translate(39.267 43.4)"><g transform="translate(0 0)"><rect class="b" width="7.233" height="2.067"/></g></g><g transform="translate(48.567 43.4)"><g transform="translate(0 0)"><rect class="b" width="9.3" height="2.067"/></g></g><g transform="translate(39.267 47.534)"><g transform="translate(0 0)"><rect class="b" width="2.067" height="2.067" transform="translate(0 0)"/></g></g></g><g transform="translate(898.027 321.843)"><g transform="translate(0 21.742)"><path class="b" d="M91.986,85.589H8.362A8.372,8.372,0,0,1,0,77.227V20.362A8.372,8.372,0,0,1,8.362,12H68.571v3.345H8.362a5.017,5.017,0,0,0-5.017,5.017V77.227a5.017,5.017,0,0,0,5.017,5.017H91.986A5.017,5.017,0,0,0,97,77.227V20.362a5.017,5.017,0,0,0-5.017-5.017H78.606V12h13.38a8.372,8.372,0,0,1,8.362,8.362V77.227A8.372,8.372,0,0,1,91.986,85.589Z" transform="translate(0 -12)"/></g><g transform="translate(6.69 28.432)"><path class="b" d="M110.606,104.209H33.672A1.673,1.673,0,0,1,32,102.537V45.672A1.673,1.673,0,0,1,33.672,44H93.882v3.345H35.345v53.519h73.589V47.345h-5.017V44h6.69a1.673,1.673,0,0,1,1.672,1.672v56.864A1.673,1.673,0,0,1,110.606,104.209Z" transform="translate(-32 -44)"/></g><g transform="translate(90.314 50.174)"><g transform="translate(0 0)"><rect class="b" width="3.345" height="16.725" transform="translate(0 0)"/></g></g><g transform="translate(10.033 0)"><g transform="translate(0 0)"><path class="b" d="M133.289,430.034H56.355a1.671,1.671,0,0,1-.748-.167l-6.69-3.345a1.673,1.673,0,0,1,0-2.994l6.69-3.345a1.673,1.673,0,0,1,.748-.184h76.934a5.017,5.017,0,1,1,0,10.035Zm-10.035-6.69H56.75l-3.345,1.672,3.345,1.672h66.5Zm10.035,0H126.6v3.345h6.69a1.672,1.672,0,1,0,0-3.345Z" transform="translate(-47.991 -420)"/></g></g><g transform="translate(13.38 36.794)"><g transform="translate(0 0)"><path class="b" d="M127.554,91.052h-5.017V96.07a1.673,1.673,0,0,1-1.672,1.672H105.812v1.672a1.673,1.673,0,0,1-1.672,1.672H99.122V106.1a1.673,1.673,0,0,1-1.672,1.672H87.415v3.345H94.1a1.673,1.673,0,0,1,1.672,1.672v6.69a1.673,1.673,0,0,1-1.672,1.672H77.38a1.673,1.673,0,0,1-1.672-1.672v-6.69a1.673,1.673,0,0,1,1.672-1.672h6.69v-3.345H72.362A1.673,1.673,0,0,1,70.69,106.1v-5.017H65.672A1.673,1.673,0,0,1,64,99.415v-6.69a1.673,1.673,0,0,1,1.672-1.672h13.38a1.673,1.673,0,0,1,1.672,1.672v6.69a1.673,1.673,0,0,1-1.672,1.672H74.035v3.345H95.777v-3.345H90.76a1.673,1.673,0,0,1-1.672-1.672v-6.69a1.673,1.673,0,0,1,1.672-1.672h5.017V86.035H90.76a1.673,1.673,0,0,1-1.672-1.672v-6.69A1.673,1.673,0,0,1,90.76,76h13.38a1.673,1.673,0,0,1,1.672,1.672v6.69a1.673,1.673,0,0,1-1.672,1.672H99.122v5.017h5.017a1.673,1.673,0,0,1,1.672,1.672V94.4h13.38V91.052h-5.017A1.673,1.673,0,0,1,112.5,89.38V82.69a1.673,1.673,0,0,1,1.672-1.672h13.38a1.673,1.673,0,0,1,1.672,1.672v6.69A1.673,1.673,0,0,1,127.554,91.052ZM77.38,97.742V94.4H67.345v3.345Zm1.672,16.725v3.345h13.38v-3.345ZM102.467,82.69V79.345H92.432V82.69Zm0,11.707H92.432v3.345h10.035Zm23.415-10.035H115.847v3.345h10.035Z" transform="translate(-64 -76)"/></g></g><g transform="translate(0 3.345)"><g transform="translate(0 0)"><path class="b" d="M0,439.345v-1.672A1.673,1.673,0,0,1,1.672,436H3.345v3.345Z" transform="translate(0 -436)"/></g></g><g transform="translate(69.113 16.92)"><path class="b" d="M332.383,369.575a6.709,6.709,0,0,0-1.791-1.9l1.947-2.721a10.035,10.035,0,0,1,2.676,2.843Z" transform="translate(-330.592 -364.952)"/></g><g transform="translate(71.821 23.403)"><path class="b" d="M343.639,342.667v-1.855a6.762,6.762,0,0,0-.1-1.131l3.3-.554a10.172,10.172,0,0,1,.14,1.684v1.855Z" transform="translate(-343.544 -339.128)"/></g><g transform="translate(57.332 15.052)"><g transform="translate(0 0)"><rect class="b" width="3.268" height="3.345" transform="translate(0 0)"/></g></g><g transform="translate(63.877 15.052)"><path class="b" d="M308.417,382.712a6.719,6.719,0,0,0-1.524-.167h-1.35V379.2h1.35a10.013,10.013,0,0,1,2.281.261Z" transform="translate(-305.544 -379.2)"/></g><g transform="translate(4.385 13.893)"><path class="b" d="M24.563,385.3a9.971,9.971,0,0,1-3.587-1.53l1.885-2.763a6.6,6.6,0,0,0,2.388,1.019Z" transform="translate(-20.976 -381.008)"/></g><g transform="translate(0.179 9.637)"><g transform="translate(0 0)"><path class="b" d="M2.331,405.845a9.972,9.972,0,0,1-1.475-3.613l3.286-.632a6.585,6.585,0,0,0,.978,2.405Z" transform="translate(-0.856 -401.6)"/></g></g><g transform="translate(44.262 15.052)"><g transform="translate(0 0)"><rect class="b" width="3.27" height="3.345" transform="translate(0 0)"/></g></g><g transform="translate(50.801 15.052)"><g transform="translate(0 0)"><rect class="b" width="3.268" height="3.345" transform="translate(0 0)"/></g></g><g transform="translate(24.647 15.052)"><g transform="translate(0 0)"><rect class="b" width="3.27" height="3.345" transform="translate(0 0)"/></g></g><g transform="translate(18.11 15.052)"><g transform="translate(0 0)"><rect class="b" width="3.27" height="3.345" transform="translate(0 0)"/></g></g><g transform="translate(71.916 30.212)"><g transform="translate(0 0)"><rect class="b" width="3.345" height="3.27" transform="translate(0 0)"/></g></g><g transform="translate(11.572 15.052)"><g transform="translate(0 0)"><rect class="b" width="3.268" height="3.345" transform="translate(0 0)"/></g></g><g transform="translate(31.185 15.052)"><g transform="translate(0 0)"><rect class="b" width="3.27" height="3.345" transform="translate(0 0)"/></g></g><g transform="translate(37.724 15.052)"><g transform="translate(0 0)"><rect class="b" width="3.27" height="3.345" transform="translate(0 0)"/></g></g><g transform="translate(71.916 36.794)"><g transform="translate(0 0)"><rect class="b" width="3.345" height="3.345" transform="translate(0 0)"/></g></g></g><g transform="translate(1161.146 471.32)"><path class="b" d="M87.36,40.77v5.824A1.456,1.456,0,0,1,85.9,48.05H64.064V77.17a1.456,1.456,0,0,1-1.456,1.456H50.8a10.153,10.153,0,0,1,3.074,7.28,1.456,1.456,0,0,1-1.456,1.456,10.192,10.192,0,0,1-8.736-4.969,10.192,10.192,0,0,1-8.736,4.969,1.456,1.456,0,0,1-1.456-1.456,10.153,10.153,0,0,1,3.074-7.28H24.752A1.456,1.456,0,0,1,23.3,77.17V48.05H1.456A1.456,1.456,0,0,1,0,46.594V40.77a1.456,1.456,0,0,1,1.456-1.456H49.268L40.532,36.4h-21.6a1.456,1.456,0,0,1-1.029-.427l-6.251-6.251L9.765,31.607a1.456,1.456,0,0,1-2.059,0l-7.28-7.28a1.456,1.456,0,0,1,0-2.059L22.267.428a1.456,1.456,0,0,1,2.059,0l7.28,7.28a1.456,1.456,0,0,1,0,2.059l-.24.24,8.413,6.01H68.432a1.457,1.457,0,0,1,.984.383L85.249,30.913a6.5,6.5,0,0,1,.976,8.465A1.437,1.437,0,0,1,87.36,40.77ZM50.774,84.264a7.307,7.307,0,0,0-5.451-5.451A7.307,7.307,0,0,0,50.774,84.264Zm-8.736-5.451a7.307,7.307,0,0,0-5.451,5.451A7.307,7.307,0,0,0,42.038,78.812Zm-15.83-3.1H61.152V48.05H45.5l12.449,16.6a1.456,1.456,0,0,1,0,1.747l-4.368,5.824a1.456,1.456,0,0,1-1.165.582H34.944a1.456,1.456,0,0,1-1.165-.582L29.411,66.4a1.456,1.456,0,0,1,0-1.747L41.86,48.05H26.208ZM36.837,64.066,39.989,55.4l-6.5,8.668Zm-3.349,2.912,2.184,2.912h4.493l-2.912-2.912Zm6.446-2.912h7.493l-3.746-10.3Zm1.437,2.912,2.309,2.309,2.309-2.309Zm8.736,0L47.195,69.89h4.493l2.184-2.912Zm3.765-2.912-6.5-8.668,3.152,8.668ZM2.912,42.226v2.912H84.448V42.226Zm59.319-3.748a5.85,5.85,0,0,1-.539.836h13.1l-9.828-8.736H59.8A5.844,5.844,0,0,1,62.231,38.477ZM23.3,3.516,3.515,23.3l5.221,5.221L28.517,8.738ZM83.283,33.053,67.866,18.93H39.312a1.456,1.456,0,0,1-.846-.271L29.277,12.1,13.707,27.666l5.824,5.824H40.768a1.453,1.453,0,0,1,.46.074l14.895,4.965a2.941,2.941,0,0,0,1.871-5.577q-.083-.028-.168-.051l-8.518-2.324H45.136V27.666H65.52a1.456,1.456,0,0,1,.967.367l11.67,10.373a3.593,3.593,0,0,0,2.389.909h.3a3.6,3.6,0,0,0,2.436-6.261Z" transform="translate(0 -0.002)"/><g transform="translate(6.251 19.353)"><g transform="translate(0 0)"><rect class="b" width="2.912" height="6.178" transform="translate(4.368) rotate(45)"/></g></g><g transform="translate(68.432 78.624)"><g transform="translate(0 0)"><rect class="b" width="2.912" height="2.912" transform="translate(0 0)"/></g></g><g transform="translate(71.344 81.536)"><g transform="translate(0 0)"><rect class="b" width="2.912" height="2.912"/></g></g><g transform="translate(74.256 78.624)"><g transform="translate(0 0)"><rect class="b" width="2.912" height="2.912" transform="translate(0 0)"/></g></g><g transform="translate(71.344 75.712)"><g transform="translate(0 0)"><rect class="b" width="2.912" height="2.912" transform="translate(0 0)"/></g></g><g transform="translate(84.448 82.992)"><g transform="translate(0 0)"><rect class="b" width="2.912" height="2.912"/></g></g><g transform="translate(72.8 66.976)"><g transform="translate(0 0)"><rect class="b" width="2.912" height="2.912"/></g></g><g transform="translate(13.104 68.432)"><g transform="translate(0 0)"><rect class="b" width="2.912" height="2.912" transform="translate(0 0)"/></g></g><g transform="translate(13.104 62.608)"><g transform="translate(0 0)"><rect class="b" width="2.912" height="2.912"/></g></g><g transform="translate(16.016 65.52)"><g transform="translate(0 0)"><rect class="b" width="2.912" height="2.912"/></g></g><g transform="translate(10.192 65.52)"><g transform="translate(0 0)"><rect class="b" width="2.912" height="2.912"/></g></g><g transform="translate(0 75.712)"><g transform="translate(0 0)"><rect class="b" width="2.912" height="2.912" transform="translate(0 0)"/></g></g><g transform="translate(13.104 82.992)"><g transform="translate(0 0)"><rect class="b" width="2.912" height="2.912"/></g></g></g></g></svg>