<svg xmlns="http://www.w3.org/2000/svg" viewBox="0 0 50.531 50.531">
  <defs>
    <style>
      .cls-1 {
        fill: #fff;
      }
    </style>
  </defs>
  <path id="path" class="cls-1" d="M157.227,43.227A24.018,24.018,0,0,1,175.165,35.9,25.437,25.437,0,0,1,193.1,43.227a24.018,24.018,0,0,1,7.327,17.939A25.007,25.007,0,0,1,193.1,79.1a24.018,24.018,0,0,1-17.939,7.327A25.007,25.007,0,0,1,157.227,79.1,24.018,24.018,0,0,1,149.9,61.166C149.9,54.091,152.174,48.027,157.227,43.227Zm3.537,32.087a19.529,19.529,0,0,0,14.149,6.064,18.728,18.728,0,0,0,14.149-6.064,19.529,19.529,0,0,0,6.064-14.149,18.728,18.728,0,0,0-6.064-14.149,19.529,19.529,0,0,0-14.149-6.064,18.728,18.728,0,0,0-14.149,6.064,19.539,19.539,0,0,0,0,28.3Zm9.1-3.032V49.543l15.159,11.369Z" transform="translate(-35.9 200.431) rotate(-90)"/>
</svg>
